<svg width="45" height="18" viewBox="0 0 45 18" fill="none" xmlns="http://www.w3.org/2000/svg">
<path d="M8.09585 2.32065C7.57656 2.92864 6.7457 3.40818 5.91483 3.33968C5.81097 2.5176 6.21775 1.64415 6.69377 1.10466C7.21306 0.479543 8.12182 0.0342531 8.85748 0C8.94403 0.856327 8.60649 1.69553 8.09585 2.32065ZM8.84882 3.50238C7.6458 3.43387 6.61587 4.17888 6.04465 4.17888C5.46478 4.17888 4.59064 3.53663 3.63861 3.55376C2.40097 3.57089 1.24988 4.26451 0.618072 5.36917C-0.680154 7.5785 0.280533 10.8497 1.53548 12.648C2.14998 13.5385 2.88564 14.5147 3.85498 14.4805C4.77239 14.4462 5.1359 13.8896 6.24372 13.8896C7.36019 13.8896 7.68042 14.4805 8.64976 14.4634C9.65372 14.4462 10.2855 13.5728 10.9 12.6822C11.6011 11.6717 11.8867 10.687 11.904 10.6356C11.8867 10.6185 9.9653 9.89058 9.94799 7.69838C9.93068 5.86584 11.4626 4.99239 11.5318 4.94101C10.6663 3.67364 9.31618 3.53663 8.84882 3.50238ZM15.7987 1.01903V14.3692H17.8931V9.80495H20.7925C23.4409 9.80495 25.3017 8.00666 25.3017 5.40343C25.3017 2.80019 23.4755 1.01903 20.8617 1.01903H15.7987ZM17.8931 2.76594H20.3078C22.1253 2.76594 23.1639 3.72502 23.1639 5.41199C23.1639 7.09895 22.1253 8.0666 20.2992 8.0666H17.8931V2.76594ZM29.1271 14.4719C30.4426 14.4719 31.663 13.8126 32.2169 12.7678H32.2602V14.3692H34.1988V7.72407C34.1988 5.79734 32.641 4.55566 30.2436 4.55566C28.0193 4.55566 26.3749 5.81446 26.3143 7.54424H28.201C28.3568 6.72217 29.1271 6.18268 30.183 6.18268C31.4639 6.18268 32.1823 6.77355 32.1823 7.86109V8.59753L29.5685 8.75167C27.1365 8.89724 25.821 9.88202 25.821 11.5947C25.821 13.3245 27.1798 14.4719 29.1271 14.4719ZM29.6897 12.8877C28.5732 12.8877 27.8635 12.3568 27.8635 11.5433C27.8635 10.7041 28.5472 10.216 29.8541 10.1389L32.1823 9.99334V10.7469C32.1823 11.9971 31.1091 12.8877 29.6897 12.8877ZM36.7866 18C38.8292 18 39.7899 17.2293 40.6294 14.8915L44.3077 4.68411H42.1786L39.712 12.5709H39.6687L37.2021 4.68411H35.0124L38.5609 14.4034L38.3705 14.9943C38.0502 15.9962 37.531 16.3815 36.6049 16.3815C36.4404 16.3815 36.1202 16.3644 35.9904 16.3473V17.9486C36.1116 17.9829 36.6308 18 36.7866 18Z" fill="black"/>
</svg>
