<svg width="60" height="18" viewBox="0 0 60 18" fill="none" xmlns="http://www.w3.org/2000/svg">
<path fill-rule="evenodd" clip-rule="evenodd" d="M25.7836 12.8391C26.1583 12.8391 26.503 12.8391 26.8196 12.8147C27.1476 12.7995 27.4746 12.7676 27.7994 12.7192C27.8285 12.7136 27.8585 12.715 27.8869 12.7232C27.9154 12.7315 27.9414 12.7464 27.963 12.7667C27.9846 12.787 28.001 12.8121 28.011 12.84C28.021 12.8679 28.0242 12.8977 28.0205 12.9271V14.038C28.0205 14.1673 27.9418 14.2554 27.7844 14.3041C27.3969 14.4238 26.9994 14.5084 26.5967 14.557C26.1699 14.6135 25.7401 14.6429 25.3096 14.645C24.617 14.6646 23.9271 14.5487 23.2788 14.3041C22.7519 14.0962 22.2874 13.7562 21.93 13.3168C21.5677 12.8522 21.3119 12.3137 21.1806 11.7394C21.0146 11.0462 20.9346 10.3352 20.9427 9.6224V8.94048C20.9349 8.22817 21.0123 7.51747 21.1731 6.82352C21.3019 6.25008 21.5545 5.71172 21.9131 5.2461C22.2668 4.80597 22.7291 4.46567 23.2545 4.25881C23.9007 4.01308 24.5885 3.89537 25.2797 3.91223C26.0848 3.91484 26.8847 4.04121 27.6514 4.28691C27.7227 4.30286 27.7879 4.33933 27.8387 4.39183C27.8705 4.43999 27.8857 4.49724 27.8818 4.55481V5.63577C27.8856 5.66515 27.8824 5.695 27.8724 5.72289C27.8624 5.75077 27.846 5.77589 27.8244 5.79618C27.8028 5.81648 27.7767 5.83137 27.7483 5.83963C27.7198 5.84789 27.6899 5.8493 27.6608 5.84372C27.3835 5.80625 27.0819 5.77628 26.7559 5.7538C26.4299 5.73319 26.0983 5.72382 25.763 5.7257C25.3576 5.71344 24.9535 5.77698 24.5715 5.91304C24.2527 6.03756 23.9782 6.25406 23.7828 6.53501C23.5703 6.84924 23.4266 7.20485 23.3613 7.57851C23.2699 8.06891 23.2279 8.56722 23.2358 9.066V9.52686C23.2278 10.0297 23.2724 10.532 23.3688 11.0256C23.4384 11.3982 23.5872 11.7515 23.8053 12.0616C24.0077 12.3321 24.2824 12.5399 24.5977 12.6611C24.9779 12.797 25.3801 12.8605 25.7836 12.8484V12.8391ZM29.7384 4.33375C29.7384 4.17638 29.8133 4.0977 29.9613 4.0977H31.7991C31.8312 4.09297 31.864 4.09581 31.8948 4.106C31.9256 4.11619 31.9536 4.13344 31.9765 4.15638C31.9994 4.17932 32.0167 4.20731 32.0269 4.23811C32.0371 4.2689 32.0399 4.30166 32.0352 4.33375V11.9923C32.0188 12.2153 32.0704 12.438 32.1832 12.6311C32.2611 12.7107 32.3566 12.771 32.462 12.8071C32.5674 12.8432 32.6798 12.8542 32.7902 12.8391H36.301C36.3331 12.8344 36.3659 12.8373 36.3968 12.8475C36.4276 12.8577 36.4557 12.8749 36.4788 12.8978C36.5018 12.9207 36.5193 12.9486 36.5297 12.9794C36.5401 13.0101 36.5433 13.0429 36.5389 13.0751V14.1711C36.5389 14.3584 36.4546 14.4577 36.2878 14.4689C35.7421 14.5176 35.1176 14.5595 34.4144 14.5944C33.7138 14.6282 32.9869 14.645 32.2375 14.645C31.8408 14.6527 31.4446 14.613 31.0573 14.527C30.772 14.4657 30.5055 14.3372 30.2798 14.1523C30.0776 13.9725 29.9313 13.7384 29.8583 13.4779C29.7662 13.145 29.7233 12.8004 29.7309 12.455L29.7384 4.33375ZM40.2145 14.216C40.2192 14.2503 40.2159 14.2851 40.2049 14.3179C40.1938 14.3506 40.1753 14.3803 40.1507 14.4047C40.1262 14.429 40.0963 14.4473 40.0635 14.4581C40.0307 14.469 39.9958 14.472 39.9616 14.4671H38.1688C38.1347 14.4717 38.1 14.4684 38.0674 14.4574C38.0349 14.4465 38.0053 14.4281 37.981 14.4038C37.9567 14.3795 37.9383 14.3499 37.9273 14.3173C37.9164 14.2847 37.9131 14.2501 37.9177 14.216V4.36185C37.9177 4.18575 38.002 4.0977 38.1688 4.0977H39.9616C40.1302 4.0977 40.2145 4.18575 40.2145 4.36185V14.216ZM47.1462 12.8391C47.5208 12.8391 47.8693 12.8391 48.1859 12.8147C48.5133 12.7994 48.8397 12.7675 49.1638 12.7192C49.1927 12.7137 49.2225 12.715 49.2508 12.7232C49.2791 12.7314 49.3051 12.7461 49.3266 12.7662C49.3481 12.7862 49.3646 12.8111 49.3748 12.8387C49.3849 12.8664 49.3884 12.896 49.3849 12.9252V14.038C49.3849 14.1673 49.3062 14.2554 49.147 14.3041C48.7608 14.424 48.3645 14.5086 47.963 14.557C47.5356 14.6135 47.1051 14.6429 46.6741 14.645C45.9814 14.6646 45.2916 14.5487 44.6433 14.3041C44.1164 14.0971 43.6522 13.7569 43.2963 13.3168C42.9352 12.8514 42.6796 12.3132 42.5469 11.7394C42.3817 11.0454 42.3018 10.3339 42.309 9.62053V8.94048C42.3012 8.22817 42.3786 7.51747 42.5394 6.82352C42.6714 6.24886 42.9271 5.7099 43.2888 5.24423C43.6426 4.80465 44.1049 4.46499 44.6302 4.25881C45.2731 4.01321 45.9579 3.89549 46.646 3.91223C47.4505 3.91456 48.2498 4.04094 49.0158 4.28691C49.0841 4.30373 49.146 4.3402 49.1938 4.39183C49.2253 4.4402 49.241 4.49714 49.2388 4.55481V5.63577C49.2426 5.66534 49.2394 5.6954 49.2293 5.72346C49.2192 5.75152 49.2026 5.77677 49.1808 5.7971C49.159 5.81744 49.1327 5.83228 49.104 5.84039C49.0753 5.8485 49.045 5.84964 49.0158 5.84372C48.7404 5.80438 48.4388 5.77628 48.1128 5.7538C47.7869 5.73132 47.4553 5.72382 47.1199 5.7257C46.7145 5.7125 46.3103 5.77607 45.9284 5.91304C45.6134 6.03963 45.3424 6.25589 45.1491 6.53501C44.9369 6.85009 44.7933 7.20624 44.7276 7.58038C44.6375 8.07097 44.5948 8.5691 44.6002 9.06787V9.52873C44.5944 10.0279 44.6396 10.5263 44.7351 11.0162C44.8037 11.3897 44.9527 11.7438 45.1716 12.0541C45.3735 12.325 45.6484 12.533 45.964 12.6536C46.3435 12.7895 46.7451 12.853 47.148 12.8409L47.1462 12.8391ZM58.5421 4.09957C58.5748 4.09606 58.6078 4.10239 58.6368 4.11775C58.6659 4.1331 58.6896 4.15678 58.7051 4.18575C58.7173 4.21682 58.7209 4.25056 58.7156 4.2835C58.7104 4.31643 58.6964 4.34736 58.6752 4.37309L55.5053 9.08848L59.0911 14.201C59.1101 14.2246 59.1223 14.253 59.1263 14.2831C59.1303 14.3132 59.1258 14.3438 59.1135 14.3715C59.0998 14.4041 59.0756 14.4312 59.0447 14.4485C59.0138 14.4658 58.9781 14.4723 58.9431 14.4671H56.8523C56.7665 14.4708 56.6809 14.4561 56.6013 14.424C56.5329 14.3849 56.4766 14.3279 56.4383 14.2591L53.4015 9.63739V14.216C53.4065 14.2504 53.4035 14.2855 53.3925 14.3185C53.3816 14.3514 53.3631 14.3814 53.3386 14.406C53.314 14.4306 53.284 14.449 53.251 14.46C53.218 14.4709 53.183 14.474 53.1486 14.4689H51.3557C51.3222 14.4721 51.2884 14.4676 51.2569 14.4558C51.2254 14.4441 51.1969 14.4253 51.1737 14.401C51.1504 14.3767 51.133 14.3474 51.1226 14.3153C51.1123 14.2833 51.1094 14.2493 51.1141 14.216V4.36185C51.1141 4.18388 51.1965 4.09583 51.3651 4.09583H53.158C53.3266 4.09583 53.4109 4.18388 53.4109 4.36185V8.54144L56.2416 4.2738C56.2788 4.2182 56.3293 4.17279 56.3885 4.14171C56.4477 4.11062 56.5138 4.09485 56.5807 4.09583L58.5421 4.09957Z" fill="#373844"/>
<path fill-rule="evenodd" clip-rule="evenodd" d="M7.05221 17.4249C7.44002 17.5452 7.8433 17.6084 8.24933 17.6123C9.05199 17.5966 9.83365 17.3529 10.503 16.9097C11.0786 16.5538 11.6316 16.1627 12.1591 15.7389C12.6622 15.3368 13.1432 14.9078 13.5998 14.4537C14.0222 14.0396 14.4206 13.6018 14.7932 13.1423C15.1677 12.6746 15.4976 12.1728 15.7786 11.6436C15.9777 11.2837 16.1331 10.9013 16.2413 10.5045C16.3345 10.1577 16.3787 9.79952 16.3725 9.44043C16.3607 9.07437 16.3092 8.71067 16.2188 8.35573C16.1155 7.9478 15.9904 7.54569 15.8442 7.15112C15.6154 6.58713 15.3157 6.05454 14.9524 5.56621C14.5664 5.01852 14.1352 4.50403 13.6635 4.02814C13.212 3.57688 12.7287 3.15865 12.2172 2.7767C11.6732 2.37246 11.1003 2.00867 10.503 1.68824C10.1293 1.47808 9.73742 1.30189 9.33216 1.16181C8.90976 1.01787 8.46701 0.942606 8.02077 0.938874C7.68892 0.938738 7.35862 0.984123 7.0391 1.07376C6.65559 1.18782 6.28941 1.35358 5.95065 1.56647C5.34925 1.91866 4.77781 2.31967 4.24209 2.76545C3.77374 3.157 3.29789 3.58601 2.79019 4.09371L2.77146 4.11244C1.91423 4.96967 1.02823 5.85567 0.423609 7.11408H0.430228C0.229089 7.58899 -0.00562631 8.45687 0.000102851 9.41983H0.0250308V9.4573C0.0260231 9.46664 0.0260231 9.47606 0.0250308 9.4854V9.52286C0.0260586 9.53346 0.0260586 9.54412 0.0250308 9.55471V9.58469C0.0240975 9.59716 0.0240975 9.60968 0.0250308 9.62216V9.64838V9.69147V9.71395C0.0260597 9.72892 0.0260597 9.74395 0.0250308 9.75891V9.7814V9.82636V9.85071V9.89005C0.0244809 9.89737 0.0243608 9.9047 0.0246707 9.91203C0.0451291 10.1261 0.0790731 10.3422 0.129301 10.5574L0.180524 10.6319V10.6488C0.181916 10.6525 0.183652 10.6564 0.185476 10.6606C0.191021 10.6732 0.197385 10.6876 0.197385 10.7031V10.72L0.216119 10.7706V10.7874L0.240474 10.8455V10.8586L0.259208 10.9148V10.9261C0.261252 10.9329 0.264286 10.9397 0.267321 10.9465C0.272631 10.9584 0.277942 10.9703 0.277942 10.9823L0.300423 11.0422L0.352879 11.1715L0.377233 11.2352L0.403461 11.297L0.425942 11.3476V11.3569V11.3682V11.3832L0.448423 11.43L0.495258 11.4974L0.525233 11.563V11.578L0.553334 11.6305C0.862297 12.2336 1.23945 12.7993 1.67738 13.3165C2.11772 13.8518 2.58479 14.3645 3.07683 14.8527C3.4588 15.2482 3.86755 15.6169 4.30017 15.9562C4.7806 16.316 5.29076 16.6344 5.82513 16.9079C6.21583 17.1208 6.62692 17.2941 7.05221 17.4249ZM8.40857 16.2016C8.78631 16.1091 9.14855 15.962 9.48391 15.7651V15.767C9.14845 15.9632 8.7862 16.1097 8.40857 16.2016ZM3.90488 8.28641L3.92361 8.2452H3.92548C3.93286 8.23094 3.94029 8.21671 3.94777 8.20252C3.98111 8.1321 4.01407 8.07007 4.04497 8.01777C4.04592 8.01872 4.04687 8.01967 4.04783 8.02063C4.36902 7.46024 4.78004 6.95566 5.26498 6.52727L5.27434 6.51603C5.79538 5.97332 6.38558 5.50154 7.02973 5.11284C7.36844 4.90543 7.75666 4.79285 8.15378 4.78687C8.58246 4.79351 9.00449 4.8939 9.39024 5.081C10.0369 5.42459 10.6291 5.8621 11.1475 6.37927C11.6432 6.87125 12.0428 7.4513 12.3259 8.0897C12.6781 9.04702 12.768 9.69522 12.2922 10.5851C11.9719 11.1653 11.5637 11.6924 11.0819 12.1475C10.5623 12.6677 9.98458 13.1266 9.36026 13.5151C8.98907 13.7622 8.55469 13.8975 8.10882 13.9048C7.63411 13.8908 7.17069 13.7567 6.76183 13.5151C6.18938 13.2281 5.67192 12.8425 5.23313 12.3761C4.68858 11.8552 4.22059 11.2599 3.84308 10.6079C3.8401 10.608 3.83711 10.6082 3.83411 10.6083C3.80021 10.5334 3.77105 10.4578 3.74623 10.3818C3.74461 10.3784 3.7428 10.3751 3.74103 10.3719C3.73663 10.3639 3.73252 10.3565 3.73252 10.349V10.3384C3.73235 10.3378 3.73218 10.3373 3.73201 10.3367L3.71941 10.3097L3.70629 10.276L3.69505 10.2441L3.68569 10.2123L3.67632 10.1861V10.1617V10.1467V10.1317L3.66695 10.1036L3.65758 10.0718V10.0605C3.65891 10.0525 3.65891 10.0442 3.65758 10.0362V10.0249V10.0087C3.60483 9.66729 3.62559 9.3297 3.68295 9.02585C3.67398 9.02466 3.66638 9.02302 3.66988 9.02096C3.67677 9.01689 3.68263 9.01132 3.68701 9.00467C3.70487 8.91324 3.726 8.82496 3.74938 8.74066V8.73228L3.75221 8.73052C3.7562 8.71629 3.76026 8.70217 3.76437 8.68818V8.68358V8.65173L3.77561 8.61988C3.77631 8.61638 3.77806 8.61262 3.77997 8.6085C3.78317 8.60159 3.78685 8.59367 3.78685 8.58428C3.79996 8.57304 3.79996 8.5618 3.79996 8.54869L3.8112 8.51309L3.82432 8.4775L3.83931 8.4419L3.85429 8.40069L3.87115 8.36135L3.88801 8.32388L3.90488 8.28641ZM12.3912 13.4599C12.4619 13.3882 12.5291 13.32 12.5919 13.2528V13.2585C12.5095 13.3465 12.4345 13.4233 12.324 13.5338C12.2135 13.6443 12.0974 13.7548 11.9813 13.8653L12.324 13.5282C12.3467 13.5051 12.3691 13.4823 12.3912 13.4599ZM14.2255 11.0741L14.2892 10.9523L14.2349 11.0797C14.0947 11.3423 13.9409 11.5975 13.774 11.844C13.9379 11.5954 14.0886 11.3384 14.2255 11.0741ZM14.7107 8.7379C14.6611 8.39965 14.5827 8.06623 14.4766 7.74125L14.4822 7.74687C14.5872 8.06989 14.6637 8.40151 14.7107 8.7379ZM11.9362 4.01315C11.9959 4.06744 12.0549 4.12202 12.1132 4.17688C12.0549 4.12208 11.9958 4.06761 11.9362 4.01315ZM12.1132 4.17688C12.1428 4.20468 12.1721 4.23254 12.2013 4.26049C12.1722 4.2325 12.1428 4.20465 12.1132 4.17688ZM12.6098 4.6752C12.534 4.59381 12.4568 4.51362 12.3783 4.43467C12.3202 4.3758 12.2612 4.31787 12.2013 4.26049C12.2617 4.31823 12.3213 4.37629 12.3802 4.43467C12.458 4.51369 12.5345 4.59388 12.6098 4.6752ZM12.6098 4.6752C12.8565 4.94176 13.0898 5.22051 13.3086 5.51041C13.0907 5.21996 12.8575 4.94115 12.6098 4.6752ZM13.3086 5.51041C13.3752 5.59855 13.4404 5.68773 13.5043 5.77791C13.6504 5.98586 13.7815 6.18819 13.8958 6.38302C13.715 6.08203 13.519 5.79079 13.3086 5.51041ZM9.28907 2.22216C9.34246 2.24839 9.39632 2.27555 9.45159 2.30412C9.39632 2.27509 9.34246 2.24745 9.28907 2.22216ZM9.62254 2.39452C9.56353 2.36267 9.50685 2.33269 9.45159 2.30412C9.47698 2.31747 9.50268 2.33111 9.52877 2.34496C9.55944 2.36124 9.59065 2.37781 9.62254 2.39452ZM9.62254 2.39452C9.94852 2.56313 10.2689 2.75421 10.5742 2.95654C10.5294 2.92905 10.4843 2.90123 10.4388 2.87323C10.1747 2.71046 9.90067 2.54158 9.62254 2.39452Z" fill="#5DC7E2"/>
<path d="M0.580817 11.6928C0.0747518 10.9216 -0.0116006 9.7448 0.00848135 9.25279C0.0486538 9.29296 0.135023 9.39136 0.159122 9.46365C0.189245 9.55402 0.731458 9.73476 0.821826 9.79501C0.912195 9.85525 1.03269 10.1866 1.12306 10.3673C1.21342 10.5481 1.39416 11.0903 1.39416 11.1807C1.39416 11.271 1.45438 11.4518 0.580817 11.6928Z" fill="#5DC7E2"/>
</svg>
