<svg width="107" height="119" viewBox="0 0 107 119" fill="none" xmlns="http://www.w3.org/2000/svg">
<path d="M94.6667 11.8333H88.75V3C88.75 1.34314 87.4069 0 85.75 0H79.9167C78.2598 0 76.9167 1.34315 76.9167 3V11.8333H29.5833V3C29.5833 1.34314 28.2402 0 26.5833 0H20.75C19.0931 0 17.75 1.34315 17.75 3V11.8333H11.8333C5.325 11.8333 0 17.1583 0 23.6667V106.5C0 113.008 5.325 118.333 11.8333 118.333H94.6667C101.175 118.333 106.5 113.008 106.5 106.5V23.6667C106.5 17.1583 101.175 11.8333 94.6667 11.8333ZM94.6667 103.5C94.6667 105.157 93.3235 106.5 91.6667 106.5H14.8333C13.1765 106.5 11.8333 105.157 11.8333 103.5V50.3333C11.8333 48.6765 13.1765 47.3333 14.8333 47.3333H91.6667C93.3235 47.3333 94.6667 48.6765 94.6667 50.3333V103.5ZM14.8333 35.5C13.1765 35.5 11.8333 34.1569 11.8333 32.5V26.6667C11.8333 25.0098 13.1765 23.6667 14.8333 23.6667H91.6667C93.3235 23.6667 94.6667 25.0098 94.6667 26.6667V32.5C94.6667 34.1569 93.3235 35.5 91.6667 35.5H14.8333ZM23.6667 62.1667C23.6667 60.5098 25.0098 59.1667 26.6667 59.1667H79.8333C81.4902 59.1667 82.8333 60.5098 82.8333 62.1667V68C82.8333 69.6569 81.4902 71 79.8333 71H26.6667C25.0098 71 23.6667 69.6569 23.6667 68V62.1667ZM23.6667 85.8333C23.6667 84.1765 25.0098 82.8333 26.6667 82.8333H62.0833C63.7402 82.8333 65.0833 84.1765 65.0833 85.8333V91.6667C65.0833 93.3235 63.7402 94.6667 62.0833 94.6667H26.6667C25.0098 94.6667 23.6667 93.3235 23.6667 91.6667V85.8333Z" fill="#0063A4" fill-opacity="0.13"/>
</svg>
