<svg width="62" height="18" viewBox="0 0 62 18" fill="none" xmlns="http://www.w3.org/2000/svg">
<path d="M10.1069 1.77591C9.89004 1.42531 9.60942 1.12182 9.27829 0.879136C8.94174 0.650034 8.57538 0.470272 8.18732 0.34893C7.76721 0.211299 7.33304 0.119831 6.89129 0.0755813C6.37547 0.0266093 5.85964 0.000878372 5.34127 0.0032129H0.857555C0.418187 -0.0362618 0.0333083 0.292694 0.00502875 0.732062C0.00502875 0.732062 0.00502875 0.757845 0.00502875 0.771534V8.05286C0.626277 9.38582 1.65808 10.4859 2.95226 11.1914V9.7291C2.91002 9.25514 3.26031 8.8371 3.73666 8.79762H5.08182C6.91469 8.79762 8.31609 8.41211 9.28253 7.64411C10.2474 6.87579 10.7376 5.73871 10.7514 4.22732C10.7538 3.79352 10.7024 3.35904 10.5995 2.93622C10.4974 2.52545 10.3311 2.135 10.1069 1.77591ZM7.48017 5.51874C7.3236 5.78784 7.08972 6.00474 6.81234 6.14221C6.5088 6.28743 6.1816 6.3737 5.84744 6.39673C5.48108 6.44347 5.10978 6.46687 4.74103 6.46448H3.44962C3.13881 6.46448 2.94764 6.21506 2.94764 5.84562V2.84284C2.92663 2.56275 3.16948 2.3336 3.44962 2.36649H4.74103C5.15875 2.36649 5.55339 2.37838 5.92214 2.40411C6.25396 2.41785 6.57862 2.49749 6.87755 2.63745C7.15562 2.75864 7.38647 2.96657 7.53811 3.22788C7.70912 3.57827 7.78806 3.96872 7.76721 4.35848C7.77416 4.76229 7.67606 5.16171 7.48017 5.51455V5.51874ZM2.95412 11.6302C1.8501 11.2308 0.843335 10.5983 0.00502875 9.77388V13.2926C-0.0349765 13.5755 0.168234 13.8349 0.453418 13.8629H2.4801C3.01747 13.8629 2.95412 13.2884 2.95412 13.2884V11.6302ZM30.8061 3.83772H29.0593C28.7138 3.81437 28.4037 4.04565 28.324 4.37917L26.2922 9.9772C26.2922 9.9772 24.4987 4.87924 24.3634 4.48454C24.2864 4.10853 23.9595 3.83772 23.5768 3.83299H21.9653C21.3906 3.83299 21.3906 4.28138 21.4679 4.45642C21.5448 4.63167 23.7449 10.6657 24.6064 12.9753C24.742 13.2604 24.8376 13.5616 24.8889 13.872C24.8328 14.1779 24.7186 14.4721 24.5477 14.7339C24.4826 14.8434 24.4079 14.9486 24.324 15.0466C25.9841 14.5541 27.9109 12.7558 28.88 10.8152C29.8556 8.12502 31.1428 4.53829 31.2007 4.35354C31.2639 4.07144 31.2639 3.83772 30.8061 3.83772ZM23.0161 15.5931C22.8643 15.5907 22.7148 15.577 22.5677 15.5578C22.383 15.5302 22.0327 15.5578 22.0327 15.871V17.216C22.0327 17.7321 22.2849 17.7697 22.4136 17.8043C22.8295 17.8958 23.254 17.9399 23.679 17.9377C24.1811 17.9514 24.6784 17.8485 25.1365 17.6387C25.552 17.4283 25.9231 17.1343 26.2246 16.7767C26.5676 16.3869 26.8577 15.953 27.0866 15.4855C27.334 14.9903 27.5697 14.4416 27.794 13.8414L28.0556 13.1271C27.5348 13.6429 25.2394 15.8076 23.0161 15.5931ZM20.37 5.44642C20.2746 5.21981 20.1436 5.00986 19.9852 4.82278C19.8213 4.65247 19.6373 4.50067 19.4364 4.37455C19.2188 4.22732 18.988 4.10126 18.7471 3.99907C18.4995 3.90282 18.2474 3.82806 17.9884 3.77012C17.6944 3.70439 17.3931 3.66252 17.0917 3.64151C16.7697 3.60878 16.4072 3.59015 16.008 3.59015C13.3346 3.59015 11.8144 4.43324 11.4431 6.11897C11.375 6.38792 11.5619 6.65156 11.8378 6.67496H13.484C13.9324 6.67496 13.9324 6.53739 14.1026 6.15187C14.1773 5.94192 14.3107 5.75717 14.4878 5.62161C14.9085 5.35065 15.4059 5.2222 15.9032 5.25981C16.3701 5.21068 16.8372 5.32762 17.2269 5.58686C17.5235 5.86478 17.6986 6.24727 17.7151 6.65395C17.7151 7.20994 17.5449 7.5763 16.8532 7.5763C15.2188 7.51767 13.4607 7.70242 12.47 8.27209C11.4753 8.8796 10.8848 9.97009 10.9176 11.1327C10.9081 11.5762 10.9971 12.02 11.1837 12.424C11.3565 12.7744 11.6111 13.0827 11.9213 13.3206C12.2507 13.5873 12.6291 13.7858 13.0356 13.9024C13.4929 14.0284 13.967 14.0889 14.441 14.0823C15.0814 14.0937 15.7185 14.0029 16.3301 13.8134C16.87 13.5916 17.3809 13.3045 17.8503 12.9566V13.2716C17.8503 13.5801 17.9442 13.8583 18.2987 13.8583H20.2044C20.5896 13.8583 20.6786 13.585 20.6786 13.2437V7.37553C20.6811 7.00917 20.6554 6.6443 20.6039 6.28032C20.5596 5.99509 20.4827 5.71531 20.37 5.44642ZM17.7642 11.2122C17.7642 11.2122 17.2718 12.2442 15.5224 12.2442C15.1046 12.2634 14.6885 12.1483 14.3383 11.9177C14.0255 11.6743 13.8577 11.2893 13.8899 10.8948C13.8504 10.3598 14.1446 9.85755 14.6306 9.631C15.3378 9.35786 16.0922 9.23174 16.8514 9.25737C17.3442 9.185 17.7852 9.56828 17.7828 10.0656L17.7642 11.2122Z" fill="#454545"/>
<path d="M61.3414 7.43823C61.7922 8.16236 61.7922 9.08046 61.3414 9.80629C60.893 10.486 58.4485 13.0965 57.6428 13.9353C56.9421 14.6611 55.9963 15.3968 55.0602 15.3968H35.6498C33.0225 15.3968 32.8665 14.5003 32.8665 12.5013V4.34461C32.8665 2.29639 33.4708 1.6987 35.2692 1.6987H55.1046C56.0318 1.6987 56.8628 2.17521 57.7948 3.13485C58.6096 3.95417 61.0169 6.95291 61.3414 7.43823Z" fill="#33CCCC"/>
<path d="M57.4938 10.5236C56.9054 12.109 55.3549 13.1271 53.6666 13.0387C51.0833 13.0387 49.3599 11.2801 49.3599 8.64345C49.3599 6.00719 51.1533 4.15994 53.5752 4.15994C55.9968 4.15994 57.6105 5.83692 57.7132 8.54078C57.7132 8.88613 57.6288 9.19232 57.1949 9.19232H51.714C51.7512 10.6402 52.4453 11.4341 53.6826 11.4341C54.3552 11.4502 54.9739 11.0742 55.2705 10.4746C55.3871 10.3037 55.5814 10.2055 55.7865 10.2079H57.1997C57.3791 10.2009 57.5219 10.3623 57.489 10.5397L57.4938 10.5236ZM37.2734 4.85096V4.80204C37.2734 4.53834 37.2734 4.28145 36.8251 4.28145H35.1971C34.8164 4.28145 34.7979 4.48683 34.7979 4.81149V6.96243C35.4398 6.0699 36.2902 5.34408 37.2734 4.85096ZM48.1739 12.6344V7.32646C48.1739 5.15248 47.2145 4.06688 45.2948 4.06688C44.7599 4.07335 44.2391 4.22738 43.7883 4.51511C43.291 4.82523 42.8473 5.21329 42.4737 5.66407C42.3058 5.17551 41.9763 4.76013 41.5417 4.4846C41.0469 4.21146 40.4866 4.07792 39.9235 4.10126C39.0925 4.10625 38.289 4.38411 37.6326 4.89118C37.4881 5.03571 34.793 7.13291 34.793 9.32078V12.6435C34.793 12.7462 34.7392 13.1505 35.1926 13.1505H36.8829C37.4084 13.1505 37.3596 12.8048 37.3596 12.6626V7.28237C37.6421 6.89924 38.2192 5.9909 39.1738 5.9909C39.4846 5.96299 39.7884 6.10513 39.9635 6.36225C40.1548 6.74484 40.2392 7.17238 40.2062 7.59976V12.653C40.2062 12.7559 40.1526 13.16 40.6056 13.16H42.2778C42.8009 13.16 42.7518 12.8145 42.7518 12.6693V7.26321C43.0573 6.88311 43.6485 5.9718 44.5687 5.9718C44.8835 5.94617 45.1872 6.08683 45.3719 6.34325C45.5658 6.72638 45.6517 7.15376 45.6171 7.58129V12.6344C45.6171 12.7374 45.563 13.1409 46.0164 13.1409H47.7071C48.2371 13.1157 48.1739 12.7745 48.1739 12.6344ZM53.5845 5.83199C52.5571 5.83199 51.8635 6.54625 51.7117 7.7211H55.3871C55.2939 6.69349 54.7379 5.83199 53.5845 5.83199Z" fill="white"/>
</svg>
