<svg width="82" height="17" viewBox="0 0 82 17" fill="none" xmlns="http://www.w3.org/2000/svg">
<path d="M20.8345 12.8138V4.08629V3.34039H21.5804H27.3515H27.4052L27.4622 3.34914C28.6878 3.53737 29.5421 4.23657 29.9906 5.1048C30.2287 5.56551 30.3497 6.07571 30.3491 6.58359C30.3484 7.09787 30.2231 7.6093 29.9687 8.06547C29.5196 8.87079 28.6846 9.49832 27.4447 9.65632L27.376 9.66507H27.3515H22.3263V12.8138H20.8345ZM75.83 12.8138V4.90464H71.9241V3.41283H81.1201V4.90464H77.3218V12.8138H75.83ZM62.8077 7.30848H70.8422V8.80028H62.7966C63.0506 10.2159 64.3691 11.6026 65.8667 11.6026H70.8746V13.0944H65.7766C63.3662 13.0944 61.3615 10.8204 61.2688 8.47481C61.1708 5.526 63.3202 3.41283 65.8667 3.41283H70.8746V4.90464H65.9387C64.5773 4.90464 63.1647 5.75653 62.8077 7.30848ZM45.1782 12.8499V9.88891C43.3167 9.56642 41.2089 7.72942 41.2089 5.74407V3.40493H42.6988V5.74407C42.6988 7.05876 44.5101 8.41163 45.7709 8.45983C47.1258 8.51171 49.1437 7.0299 49.1437 5.63549V3.40479H50.6355V5.6174C50.6355 7.60275 48.5147 9.49806 46.6701 9.86932V12.8499H45.1782ZM39.0101 10.4223H32.5681V12.8138H31.0763V7.36828C31.0763 5.21383 33.5377 3.28616 35.5848 3.20762C37.7201 3.12576 40.5019 5.16019 40.5019 7.40434V12.8139H39.0101V10.4223ZM32.5681 8.93046H39.0101V7.57103C39.0101 6.18739 36.9578 4.64305 35.6373 4.69358C34.3976 4.74093 32.5681 6.14394 32.5681 7.46252V8.93046ZM51.4517 12.8138V7.39014C51.4517 5.24503 53.9151 3.2861 55.9603 3.20762C58.2137 3.12122 60.8773 5.25184 60.8773 7.58913V12.8139H59.3855V7.53491C59.3855 6.12864 57.3795 4.64124 56.0127 4.69358C54.7383 4.74229 52.9435 6.09737 52.9435 7.42633V12.8138H51.4517ZM22.3263 4.83219V8.17327H27.3219C28.0001 8.07124 28.4429 7.74869 28.6692 7.34292C28.7988 7.11033 28.8628 6.84822 28.8631 6.58359C28.8634 6.31252 28.7975 6.03757 28.6679 5.78662C28.4299 5.32598 27.9671 4.95069 27.2929 4.83219H22.3263Z" fill="#373435"/>
<path d="M8.15016 16.3004C12.6514 16.3004 16.3003 12.6514 16.3003 8.15019C16.3003 3.64896 12.6514 0 8.15016 0C3.64896 0 0 3.64896 0 8.15019C0 12.6514 3.64896 16.3004 8.15016 16.3004Z" fill="#88C54D"/>
<path opacity="0.08" fill-rule="evenodd" clip-rule="evenodd" d="M8.1502 7.74625C11.7853 7.74625 14.732 9.5368 14.732 11.7456C14.732 13.9544 11.7853 15.7449 8.1502 15.7449C4.51513 15.7449 1.56836 13.9544 1.56836 11.7456C1.56836 9.5368 4.51513 7.74625 8.1502 7.74625Z" fill="#FFFFFF"/>
<path opacity="0.08" fill-rule="evenodd" clip-rule="evenodd" d="M8.15027 0.367584C12.4478 0.367584 15.9329 3.85269 15.9329 8.1502C15.9329 8.50136 15.9091 8.84681 15.864 9.18564C13.7451 8.13191 11.065 7.5023 8.15027 7.5023C5.23556 7.5023 2.5555 8.13191 0.436558 9.18564C0.39148 8.84681 0.367676 8.50136 0.367676 8.1502C0.367676 3.85269 3.85279 0.367584 8.15027 0.367584Z" fill="#FEFEFE"/>
</svg>
