<svg width="168" height="168" viewBox="0 0 168 168" fill="none" xmlns="http://www.w3.org/2000/svg">
<g filter="url(#filter0_d_73_141)">
<rect x="30" y="25" width="107.901" height="107.897" rx="53.9487" fill="white"/>
<mask id="mask0_73_141" style="mask-type:alpha" maskUnits="userSpaceOnUse" x="30" y="25" width="108" height="108">
<rect x="30" y="25" width="107.901" height="107.897" rx="53.9487" fill="white"/>
</mask>
<g mask="url(#mask0_73_141)">
<path d="M72.5265 94.7341V94.886C72.4855 98.0493 69.819 100.429 64.527 102.024C70.9053 106.649 77.2837 110.35 83.6567 110.35C90.0298 110.35 96.4074 106.645 102.786 102.02C97.5297 100.424 94.8637 98.0425 94.7877 94.8746C94.7877 94.3097 94.7923 93.5078 94.7953 92.0021C94.7953 91.7631 94.7953 91.5181 94.7953 91.267C95.175 91.3209 95.1446 91.2868 94.7953 91.1911C94.806 87.2297 94.8227 81.9022 94.8462 76.489C99.8312 70.0446 97.9997 62.4885 96.4408 62.6776C94.5242 62.9054 77.9322 47.2047 74.7498 46.4014C71.5675 45.598 63.4837 48.1942 62.0918 55.4374C60.7 62.6806 60.1176 80.9333 65.3957 88.2206C66.8971 90.2961 69.2619 91.106 72.4901 90.6505C72.4946 92.1691 72.5037 93.0165 72.5258 94.7334L72.5265 94.7341Z" fill="#FFE2CF"/>
<path opacity="0.228" d="M72.522 90.6681C76.9514 90.22 81.2272 88.7986 85.0433 86.5055C85.0433 86.5055 79.7774 93.4845 72.522 94.8315V90.6681Z" fill="#DB844C"/>
<path d="M120.132 111.574C123.431 118.277 125.331 133.736 125.331 133.736H42.1492C42.1492 133.736 44.0475 118.275 47.3475 111.574C50.6476 104.873 69.9094 98.6547 69.9094 98.6547C73.6226 106.272 93.9991 106.272 97.5566 98.6547C97.5566 98.6547 116.829 104.871 120.132 111.574Z" fill="#0063A4"/>
<path d="M99.1821 75.1983C101.579 69.4494 111.18 57.7428 102.903 50.4571C100.121 36.9274 84.7481 38.4255 74.4873 41.5471C67.5911 43.6459 62.3836 47.7918 61.2704 44.6695C54.3142 50.4571 57.798 56.1179 62.3836 57.7428C66.5462 59.2175 73.5844 60.6883 85.5522 59.304C87.6897 59.0565 87.2425 65.5859 88.3845 66.2898C90.0983 67.3491 91.4286 60.6898 96.1296 62.6891C100.831 64.6884 98.0401 73.9606 92.9967 73.9606C91.2578 73.9606 90.3884 78.7291 95.0833 80.9843C98.4866 82.6571 97.6255 78.9334 99.1821 75.1983Z" fill="#192734"/>
</g>
</g>
<defs>
<filter id="filter0_d_73_141" x="0" y="0" width="167.9" height="167.897" filterUnits="userSpaceOnUse" color-interpolation-filters="sRGB">
<feFlood flood-opacity="0" result="BackgroundImageFix"/>
<feColorMatrix in="SourceAlpha" type="matrix" values="0 0 0 0 0 0 0 0 0 0 0 0 0 0 0 0 0 0 127 0" result="hardAlpha"/>
<feOffset dy="5"/>
<feGaussianBlur stdDeviation="15"/>
<feColorMatrix type="matrix" values="0 0 0 0 0.0294097 0 0 0 0 0.247882 0 0 0 0 0.504167 0 0 0 0.05 0"/>
<feBlend mode="normal" in2="BackgroundImageFix" result="effect1_dropShadow_73_141"/>
<feBlend mode="normal" in="SourceGraphic" in2="effect1_dropShadow_73_141" result="shape"/>
</filter>
</defs>
</svg>
