<svg width="347" height="217" viewBox="0 0 347 217" fill="none" xmlns="http://www.w3.org/2000/svg">
<path fill-rule="evenodd" clip-rule="evenodd" d="M55.1333 7.68017C65.8708 3.23253 77.3791 0.943359 89.0013 0.943359V35.9415C81.9751 35.9415 75.0177 37.3254 68.5264 40.0142C62.0351 42.703 56.1369 46.6441 51.1686 51.6124C46.2004 56.5807 42.2593 62.4789 39.5705 68.9703C36.8817 75.4617 35.4978 82.4191 35.4978 89.4453C35.4978 96.4715 36.8817 103.429 39.5705 109.92C42.2593 116.412 46.2004 122.31 51.1686 127.278C56.1369 132.247 62.0351 136.188 68.5264 138.876C75.0177 141.565 81.9751 142.949 89.0013 142.949V177.947C77.3791 177.947 65.8708 175.658 55.1333 171.21C44.3958 166.763 34.6395 160.244 26.4214 152.026C18.2033 143.807 11.6844 134.051 7.23676 123.314C2.78915 112.576 0.500001 101.068 0.5 89.4453C0.499999 77.8231 2.78915 66.3146 7.23676 55.5771C11.6844 44.8395 18.2033 35.0831 26.4214 26.865C34.6395 18.6468 44.3958 12.1278 55.1333 7.68017ZM89.0021 142.947H212.501C222.133 142.947 229.947 150.729 230.001 160.348C230.082 150.753 237.886 143 247.5 143H347V178H247.5C237.868 178 230.053 170.218 230 160.599C229.919 170.194 222.115 177.947 212.501 177.947H89.0021V142.947Z" fill="white"/>
<path d="M89.001 160.447H215.001" stroke="#0063A4" stroke-dasharray="8 8"/>
<mask id="path-3-inside-1_361_1313" fill="white">
<path d="M89 17.9469C79.6367 17.9469 70.365 19.7963 61.7144 23.3895C53.0638 26.9827 45.2036 32.2494 38.5827 38.8888C31.9618 45.5282 26.7099 53.4103 23.1267 62.0852C19.5435 70.7599 17.6992 80.0575 17.6992 89.4471C17.6992 98.8366 19.5435 108.134 23.1267 116.809C26.7099 125.484 31.9619 133.366 38.5827 140.005C45.2036 146.645 53.0638 151.911 61.7144 155.505C70.365 159.098 79.6367 160.947 89 160.947V159.946C79.7677 159.946 70.6259 158.123 62.0964 154.58C53.5669 151.037 45.8168 145.844 39.2886 139.298C32.7604 132.751 27.5819 124.979 24.0489 116.426C20.5159 107.873 18.6974 98.7052 18.6974 89.4471C18.6974 80.189 20.5159 71.0216 24.0489 62.4682C27.5819 53.9149 32.7604 46.1431 39.2886 39.5966C45.8168 33.0502 53.5669 27.8572 62.0964 24.3143C70.6259 20.7714 79.7677 18.9479 89 18.9479V17.9469Z"/>
</mask>
<path d="M89 17.9469C79.6367 17.9469 70.365 19.7963 61.7144 23.3895C53.0638 26.9827 45.2036 32.2494 38.5827 38.8888C31.9618 45.5282 26.7099 53.4103 23.1267 62.0852C19.5435 70.7599 17.6992 80.0575 17.6992 89.4471C17.6992 98.8366 19.5435 108.134 23.1267 116.809C26.7099 125.484 31.9619 133.366 38.5827 140.005C45.2036 146.645 53.0638 151.911 61.7144 155.505C70.365 159.098 79.6367 160.947 89 160.947V159.946C79.7677 159.946 70.6259 158.123 62.0964 154.58C53.5669 151.037 45.8168 145.844 39.2886 139.298C32.7604 132.751 27.5819 124.979 24.0489 116.426C20.5159 107.873 18.6974 98.7052 18.6974 89.4471C18.6974 80.189 20.5159 71.0216 24.0489 62.4682C27.5819 53.9149 32.7604 46.1431 39.2886 39.5966C45.8168 33.0502 53.5669 27.8572 62.0964 24.3143C70.6259 20.7714 79.7677 18.9479 89 18.9479V17.9469Z" stroke="#0063A4" stroke-width="2" stroke-dasharray="8 8" mask="url(#path-3-inside-1_361_1313)"/>
</svg>
