<svg width="319" height="359" viewBox="0 0 319 359" fill="none" xmlns="http://www.w3.org/2000/svg">
<path fill-rule="evenodd" clip-rule="evenodd" d="M55.1333 7.68408C65.8708 3.23644 77.3791 0.947266 89.0013 0.947266V35.9454C81.9751 35.9454 75.0177 37.3293 68.5264 40.0181C62.0351 42.7069 56.1369 46.648 51.1686 51.6163C46.2004 56.5846 42.2593 62.4828 39.5705 68.9742C36.8817 75.4656 35.4978 82.423 35.4978 89.4492C35.4978 96.4754 36.8817 103.433 39.5705 109.924C42.2593 116.416 46.2004 122.314 51.1686 127.282C56.1369 132.25 62.0351 136.192 68.5264 138.88C75.0177 141.569 81.9751 142.953 89.0013 142.953V177.951C77.3791 177.951 65.8708 175.662 55.1333 171.214C44.3958 166.767 34.6395 160.248 26.4214 152.03C18.2033 143.811 11.6844 134.055 7.23676 123.317C2.78915 112.58 0.500001 101.071 0.5 89.4492C0.499999 77.827 2.78915 66.3185 7.23676 55.581C11.6844 44.8434 18.2033 35.0871 26.4214 26.8689C34.6395 18.6507 44.3958 12.1317 55.1333 7.68408ZM263.867 149.684C253.129 145.236 241.621 142.947 229.999 142.947V142.951H89.0021V177.951H230.001V177.945C237.026 177.946 243.983 179.33 250.474 182.018C256.965 184.707 262.863 188.648 267.831 193.616C272.8 198.585 276.741 204.483 279.43 210.974C282.118 217.466 283.502 224.423 283.502 231.449C283.502 238.475 282.118 245.433 279.43 251.924C276.741 258.416 272.8 264.314 267.831 269.282C262.863 274.25 256.965 278.192 250.474 280.88C243.983 283.569 237.026 284.953 230.001 284.953V284.951H89.0019V319.951H229.999H230.001C241.622 319.951 253.13 317.662 263.867 313.214C274.604 308.767 284.361 302.248 292.579 294.03C300.797 285.811 307.316 276.055 311.763 265.317C316.211 254.58 318.5 243.071 318.5 231.449C318.5 219.827 316.211 208.319 311.763 197.581C307.316 186.843 300.797 177.087 292.579 168.869C284.361 160.651 274.604 154.132 263.867 149.684Z" fill="white"/>
<path d="M89.001 160.451H230.001" stroke="#0063A4" stroke-dasharray="8 8"/>
<mask id="path-3-inside-1_361_1303" fill="white">
<path d="M230 159.951C239.363 159.951 248.635 161.8 257.286 165.393C265.936 168.987 273.796 174.253 280.417 180.893C287.038 187.532 292.29 195.414 295.873 204.089C299.457 212.764 301.301 222.061 301.301 231.451C301.301 240.841 299.457 250.138 295.873 258.813C292.29 267.488 287.038 275.37 280.417 282.009C273.796 288.649 265.936 293.915 257.286 297.509C248.635 301.102 239.363 302.951 230 302.951V301.95C239.232 301.95 248.374 300.127 256.904 296.584C265.433 293.041 273.183 287.848 279.711 281.301C286.24 274.755 291.418 266.983 294.951 258.43C298.484 249.877 300.303 240.709 300.303 231.451C300.303 222.193 298.484 213.025 294.951 204.472C291.418 195.919 286.24 188.147 279.711 181.601C273.183 175.054 265.433 169.861 256.904 166.318C248.374 162.775 239.232 160.952 230 160.952V159.951Z"/>
</mask>
<path d="M230 159.951C239.363 159.951 248.635 161.8 257.286 165.393C265.936 168.987 273.796 174.253 280.417 180.893C287.038 187.532 292.29 195.414 295.873 204.089C299.457 212.764 301.301 222.061 301.301 231.451C301.301 240.841 299.457 250.138 295.873 258.813C292.29 267.488 287.038 275.37 280.417 282.009C273.796 288.649 265.936 293.915 257.286 297.509C248.635 301.102 239.363 302.951 230 302.951V301.95C239.232 301.95 248.374 300.127 256.904 296.584C265.433 293.041 273.183 287.848 279.711 281.301C286.24 274.755 291.418 266.983 294.951 258.43C298.484 249.877 300.303 240.709 300.303 231.451C300.303 222.193 298.484 213.025 294.951 204.472C291.418 195.919 286.24 188.147 279.711 181.601C273.183 175.054 265.433 169.861 256.904 166.318C248.374 162.775 239.232 160.952 230 160.952V159.951Z" stroke="#0063A4" stroke-width="2" stroke-dasharray="8 8" mask="url(#path-3-inside-1_361_1303)"/>
<mask id="path-4-inside-2_361_1303" fill="white">
<path d="M89 17.9508C79.6367 17.9508 70.365 19.8002 61.7144 23.3934C53.0638 26.9866 45.2036 32.2533 38.5827 38.8927C31.9618 45.5321 26.7099 53.4143 23.1267 62.0891C19.5435 70.7639 17.6992 80.0615 17.6992 89.451C17.6992 98.8405 19.5435 108.138 23.1267 116.813C26.7099 125.488 31.9619 133.37 38.5827 140.009C45.2036 146.649 53.0638 151.915 61.7144 155.509C70.365 159.102 79.6367 160.951 89 160.951V159.95C79.7677 159.95 70.6259 158.127 62.0964 154.584C53.5669 151.041 45.8168 145.848 39.2886 139.301C32.7604 132.755 27.5819 124.983 24.0489 116.43C20.5159 107.877 18.6974 98.7091 18.6974 89.451C18.6974 80.1929 20.5159 71.0255 24.0489 62.4721C27.5819 53.9188 32.7604 46.147 39.2886 39.6005C45.8168 33.0541 53.5669 27.8611 62.0964 24.3182C70.6259 20.7753 79.7677 18.9518 89 18.9518V17.9508Z"/>
</mask>
<path d="M89 17.9508C79.6367 17.9508 70.365 19.8002 61.7144 23.3934C53.0638 26.9866 45.2036 32.2533 38.5827 38.8927C31.9618 45.5321 26.7099 53.4143 23.1267 62.0891C19.5435 70.7639 17.6992 80.0615 17.6992 89.451C17.6992 98.8405 19.5435 108.138 23.1267 116.813C26.7099 125.488 31.9619 133.37 38.5827 140.009C45.2036 146.649 53.0638 151.915 61.7144 155.509C70.365 159.102 79.6367 160.951 89 160.951V159.95C79.7677 159.95 70.6259 158.127 62.0964 154.584C53.5669 151.041 45.8168 145.848 39.2886 139.301C32.7604 132.755 27.5819 124.983 24.0489 116.43C20.5159 107.877 18.6974 98.7091 18.6974 89.451C18.6974 80.1929 20.5159 71.0255 24.0489 62.4721C27.5819 53.9188 32.7604 46.147 39.2886 39.6005C45.8168 33.0541 53.5669 27.8611 62.0964 24.3182C70.6259 20.7753 79.7677 18.9518 89 18.9518V17.9508Z" stroke="#0063A4" stroke-width="2" stroke-dasharray="8 8" mask="url(#path-4-inside-2_361_1303)"/>
<path d="M89.001 302.451H230.001" stroke="#0063A4" stroke-dasharray="8 8"/>
</svg>
