<svg width="319" height="319" viewBox="0 0 319 319" fill="none" xmlns="http://www.w3.org/2000/svg">
<path fill-rule="evenodd" clip-rule="evenodd" d="M55.1333 -32.3198C65.8708 -36.7675 77.3791 -39.0566 89.0013 -39.0566V-4.05854C81.9751 -4.05854 75.0177 -2.67463 68.5264 0.0141945C62.0351 2.70301 56.1369 6.64408 51.1686 11.6124C46.2004 16.5807 42.2593 22.4789 39.5705 28.9703C36.8817 35.4617 35.4978 42.4191 35.4978 49.4453C35.4978 56.4715 36.8817 63.429 39.5705 69.9204C42.2593 76.4117 46.2004 82.31 51.1686 87.2783C56.1369 92.2466 62.0351 96.1876 68.5264 98.8764C75.0177 101.565 81.9751 102.949 89.0013 102.949V137.947C77.3791 137.947 65.8708 135.658 55.1333 131.21C44.3958 126.763 34.6395 120.244 26.4214 112.026C18.2033 103.807 11.6844 94.0511 7.23676 83.3135C2.78915 72.576 0.500001 61.0676 0.5 49.4453C0.499999 37.8231 2.78915 26.3146 7.23676 15.5771C11.6844 4.83953 18.2033 -4.91685 26.4214 -13.135C34.6395 -21.3532 44.3958 -27.8722 55.1333 -32.3198ZM263.867 109.68C253.129 105.233 241.621 102.943 229.999 102.943V102.947H89.0021V137.947H230.001V137.941C237.026 137.942 243.983 139.326 250.474 142.014C256.965 144.703 262.863 148.644 267.831 153.612C272.8 158.581 276.741 164.479 279.43 170.97C282.118 177.462 283.502 184.419 283.502 191.445C283.502 198.472 282.118 205.429 279.43 211.92C276.741 218.412 272.8 224.31 267.831 229.278C262.863 234.247 256.965 238.188 250.474 240.876C243.983 243.565 237.026 244.949 230.001 244.949V244.947H89.0019V279.947H229.999H230.001C241.622 279.947 253.13 277.658 263.867 273.21C274.604 268.763 284.361 262.244 292.579 254.026C300.797 245.807 307.316 236.051 311.763 225.314C316.211 214.576 318.5 203.068 318.5 191.445C318.5 179.823 316.211 168.315 311.763 157.577C307.316 146.84 300.797 137.083 292.579 128.865C284.361 120.647 274.604 114.128 263.867 109.68Z" fill="white"/>
<path d="M89.001 120.447H230.001" stroke="#0063A4" stroke-dasharray="8 8"/>
<mask id="path-3-inside-1_361_1293" fill="white">
<path d="M230 119.947C239.363 119.947 248.635 121.796 257.286 125.39C265.936 128.983 273.796 134.249 280.417 140.889C287.038 147.528 292.29 155.41 295.873 164.085C299.457 172.76 301.301 182.058 301.301 191.447C301.301 200.837 299.457 210.134 295.873 218.809C292.29 227.484 287.038 235.366 280.417 242.005C273.796 248.645 265.936 253.911 257.286 257.505C248.635 261.098 239.363 262.947 230 262.947V261.946C239.232 261.946 248.374 260.123 256.904 256.58C265.433 253.037 273.183 247.844 279.711 241.298C286.24 234.751 291.418 226.979 294.951 218.426C298.484 209.873 300.303 200.705 300.303 191.447C300.303 182.189 298.484 173.022 294.951 164.468C291.418 155.915 286.24 148.143 279.711 141.597C273.183 135.05 265.433 129.857 256.904 126.314C248.374 122.771 239.232 120.948 230 120.948V119.947Z"/>
</mask>
<path d="M230 119.947C239.363 119.947 248.635 121.796 257.286 125.39C265.936 128.983 273.796 134.249 280.417 140.889C287.038 147.528 292.29 155.41 295.873 164.085C299.457 172.76 301.301 182.058 301.301 191.447C301.301 200.837 299.457 210.134 295.873 218.809C292.29 227.484 287.038 235.366 280.417 242.005C273.796 248.645 265.936 253.911 257.286 257.505C248.635 261.098 239.363 262.947 230 262.947V261.946C239.232 261.946 248.374 260.123 256.904 256.58C265.433 253.037 273.183 247.844 279.711 241.298C286.24 234.751 291.418 226.979 294.951 218.426C298.484 209.873 300.303 200.705 300.303 191.447C300.303 182.189 298.484 173.022 294.951 164.468C291.418 155.915 286.24 148.143 279.711 141.597C273.183 135.05 265.433 129.857 256.904 126.314C248.374 122.771 239.232 120.948 230 120.948V119.947Z" stroke="#0063A4" stroke-width="2" stroke-dasharray="8 8" mask="url(#path-3-inside-1_361_1293)"/>
<mask id="path-4-inside-2_361_1293" fill="white">
<path d="M89 -22.0531C79.6367 -22.0531 70.365 -20.2037 61.7144 -16.6105C53.0638 -13.0173 45.2036 -7.75058 38.5827 -1.11118C31.9618 5.52823 26.7099 13.4103 23.1267 22.0852C19.5435 30.7599 17.6992 40.0575 17.6992 49.4471C17.6992 58.8366 19.5435 68.1342 23.1267 76.809C26.7099 85.4838 31.9619 93.3659 38.5827 100.005C45.2036 106.645 53.0638 111.911 61.7144 115.505C70.365 119.098 79.6367 120.947 89 120.947V119.946C79.7677 119.946 70.6259 118.123 62.0964 114.58C53.5669 111.037 45.8168 105.844 39.2886 99.2975C32.7604 92.7511 27.5819 84.9793 24.0489 76.426C20.5159 67.8726 18.6974 58.7052 18.6974 49.4471C18.6974 40.189 20.5159 31.0216 24.0489 22.4682C27.5819 13.9149 32.7604 6.14309 39.2886 -0.403366C45.8168 -6.94982 53.5669 -12.1428 62.0964 -15.6857C70.6259 -19.2286 79.7677 -21.0521 89 -21.0521V-22.0531Z"/>
</mask>
<path d="M89 -22.0531C79.6367 -22.0531 70.365 -20.2037 61.7144 -16.6105C53.0638 -13.0173 45.2036 -7.75058 38.5827 -1.11118C31.9618 5.52823 26.7099 13.4103 23.1267 22.0852C19.5435 30.7599 17.6992 40.0575 17.6992 49.4471C17.6992 58.8366 19.5435 68.1342 23.1267 76.809C26.7099 85.4838 31.9619 93.3659 38.5827 100.005C45.2036 106.645 53.0638 111.911 61.7144 115.505C70.365 119.098 79.6367 120.947 89 120.947V119.946C79.7677 119.946 70.6259 118.123 62.0964 114.58C53.5669 111.037 45.8168 105.844 39.2886 99.2975C32.7604 92.7511 27.5819 84.9793 24.0489 76.426C20.5159 67.8726 18.6974 58.7052 18.6974 49.4471C18.6974 40.189 20.5159 31.0216 24.0489 22.4682C27.5819 13.9149 32.7604 6.14309 39.2886 -0.403366C45.8168 -6.94982 53.5669 -12.1428 62.0964 -15.6857C70.6259 -19.2286 79.7677 -21.0521 89 -21.0521V-22.0531Z" stroke="#0063A4" stroke-width="2" stroke-dasharray="8 8" mask="url(#path-4-inside-2_361_1293)"/>
<path d="M89.001 262.447H230.001" stroke="#0063A4" stroke-dasharray="8 8"/>
</svg>
