<svg width="24" height="25" viewBox="0 0 24 25" fill="none" xmlns="http://www.w3.org/2000/svg">
<path d="M20.5 16.5556V19.0556C20.5 20.9856 18.93 22.5556 17 22.5556H7C5.07 22.5556 3.5 20.9856 3.5 19.0556V18.4056C3.5 16.8356 4.78 15.5556 6.35 15.5556H19.5C20.05 15.5556 20.5 16.0056 20.5 16.5556Z" fill="#0063A4"/>
<path d="M15.5 2.5556H8.5C4.5 2.5556 3.5 3.5556 3.5 7.5556V15.1356C4.26 14.4656 5.26 14.0556 6.35 14.0556H19.5C20.05 14.0556 20.5 13.6056 20.5 13.0556V7.5556C20.5 3.5556 19.5 2.5556 15.5 2.5556ZM13 11.3056H8C7.59 11.3056 7.25 10.9656 7.25 10.5556C7.25 10.1456 7.59 9.8056 8 9.8056H13C13.41 9.8056 13.75 10.1456 13.75 10.5556C13.75 10.9656 13.41 11.3056 13 11.3056ZM16 7.8056H8C7.59 7.8056 7.25 7.4656 7.25 7.0556C7.25 6.6456 7.59 6.3056 8 6.3056H16C16.41 6.3056 16.75 6.6456 16.75 7.0556C16.75 7.4656 16.41 7.8056 16 7.8056Z" fill="#0063A4"/>
</svg>
