<svg width="24" height="25" viewBox="0 0 24 25" fill="none" xmlns="http://www.w3.org/2000/svg">
<path d="M19.83 9.25565L15.3 4.72565C14.35 3.77565 13.04 3.26565 11.7 3.33565L6.70004 3.57565C4.70004 3.66565 3.11004 5.25565 3.01004 7.24565L2.77004 12.2457C2.71004 13.5857 3.21004 14.8957 4.16004 15.8457L8.69004 20.3757C10.55 22.2357 13.57 22.2357 15.44 20.3757L19.83 15.9857C21.7 14.1357 21.7 11.1157 19.83 9.25565ZM9.50004 12.9357C7.91004 12.9357 6.62004 11.6457 6.62004 10.0557C6.62004 8.46565 7.91004 7.17565 9.50004 7.17565C11.09 7.17565 12.38 8.46565 12.38 10.0557C12.38 11.6457 11.09 12.9357 9.50004 12.9357Z" fill="#0063A4"/>
</svg>
