<svg width="19" height="16" viewBox="0 0 19 16" fill="none" xmlns="http://www.w3.org/2000/svg">
<path d="M12.0002 1.33337C8.32683 1.33337 5.3335 4.32671 5.3335 8.00004C5.3335 11.6734 8.32683 14.6667 12.0002 14.6667C15.6735 14.6667 18.6668 11.6734 18.6668 8.00004C18.6668 4.32671 15.6735 1.33337 12.0002 1.33337ZM13.8602 8.35337L11.5068 10.7067C11.4068 10.8067 11.2802 10.8534 11.1535 10.8534C11.0268 10.8534 10.9002 10.8067 10.8002 10.7067C10.6068 10.5134 10.6068 10.1934 10.8002 10L12.8002 8.00004L10.8002 6.00004C10.6068 5.80671 10.6068 5.48671 10.8002 5.29337C10.9935 5.10004 11.3135 5.10004 11.5068 5.29337L13.8602 7.64671C14.0602 7.84004 14.0602 8.16004 13.8602 8.35337Z" fill="#0063A4"/>
</svg>
