<svg width="19" height="18" viewBox="0 0 19 18" fill="none" xmlns="http://www.w3.org/2000/svg">
<path d="M5.7861 10.0546L8.43733 12.7066L7.37773 13.7669L7.90857 14.298C8.20136 14.5909 8.2013 15.0657 7.90843 15.3586C7.61548 15.6515 7.14053 15.6514 6.84764 15.3585L5.52211 14.0325L3.93083 15.6238C3.63794 15.9167 3.16307 15.9167 2.87018 15.6238C2.57728 15.3309 2.57728 14.856 2.87018 14.5631L4.46144 12.9718L3.13554 11.6463C2.84255 11.3534 2.84251 10.8785 3.13546 10.5855C3.42831 10.2927 3.9031 10.2926 4.19603 10.5854L4.72608 11.1152L5.7861 10.0546ZM2.74931 2.25L5.4088 2.25251L14.2718 11.1155L14.8025 10.5853C15.0955 10.2926 15.5703 10.2927 15.8631 10.5855C16.1561 10.8785 16.1561 11.3535 15.8632 11.6464L14.5375 12.9721L16.1284 14.5631C16.4213 14.856 16.4213 15.3309 16.1284 15.6238C15.8355 15.9167 15.3607 15.9167 15.0678 15.6238L13.4768 14.0328L12.1511 15.3585C11.8581 15.6515 11.3831 15.6515 11.0902 15.3585C10.7973 15.0657 10.7972 14.5909 11.0899 14.2979L11.6202 13.7671L2.75136 4.89839L2.74931 2.25ZM13.5922 2.25007L16.2493 2.25251L16.2508 4.89486L13.2111 7.93358L10.5591 5.28232L13.5922 2.25007Z" fill="white"/>
</svg>
