<svg width="68" height="58" viewBox="0 0 68 58" fill="none" xmlns="http://www.w3.org/2000/svg">
<path d="M65.8128 46.0374L65.8156 46.0301L65.8183 46.0228C65.8328 45.9835 65.8492 45.9403 65.8669 45.8938C65.9351 45.7145 66.0217 45.4867 66.0866 45.246C66.2938 44.7369 66.4288 44.213 66.5272 43.7186C66.6578 43.2155 66.7629 42.687 66.8025 42.1135C66.9342 41.3259 67 40.5373 67 39.7178V8.52103C67 7.34695 66.8358 6.32269 66.4897 5.50044C66.1409 4.67176 65.5803 3.99402 64.7781 3.65827C63.9743 3.32186 63.1007 3.40106 62.2733 3.7397C61.4537 4.0751 60.626 4.6825 59.8147 5.50806L59.8134 5.50944L51.5659 13.9349C51.0082 14.4752 50.2681 14.6675 49.5773 14.5137L49.5481 14.5072L49.5186 14.5025C49.1444 14.4423 48.7826 14.262 48.4283 13.9291L43.259 8.66863L43.2573 8.66681L36.987 2.25343L36.9853 2.25161C35.3454 0.582796 32.6546 0.582796 31.0147 2.25161L24.8067 8.56912L25.52 9.27001L24.8067 8.56912C24.7426 8.63435 24.6929 8.70151 24.6593 8.75167L19.5717 13.9291C19.2175 14.262 18.8557 14.4423 18.4814 14.5025L18.4669 14.5048L18.4526 14.5075C17.7355 14.6444 16.9552 14.4379 16.4021 13.9024L8.18662 5.50944L8.18526 5.50806C7.37401 4.6825 6.54632 4.0751 5.72675 3.7397C4.89926 3.40106 4.02568 3.32186 3.22191 3.65827C2.41974 3.99402 1.85914 4.67176 1.51032 5.50044C1.16422 6.32269 1 7.34695 1 8.52103V39.7178C1 40.5373 1.06577 41.3259 1.19747 42.1135C1.23709 42.6871 1.34226 43.2157 1.47284 43.7188C1.57496 44.2305 1.71116 44.7182 1.9104 45.2351C1.97565 45.4798 2.06387 45.7118 2.1331 45.8939C2.15076 45.9403 2.16719 45.9835 2.18168 46.0228L2.18437 46.0301L2.18718 46.0374C4.12189 51.0458 8.29862 54.9214 13.4733 56.3765L13.4766 56.3774C13.5308 56.3925 13.5867 56.4083 13.6442 56.4245C13.9266 56.5044 14.2471 56.5949 14.5861 56.6577L14.5912 56.6586C14.6341 56.6663 14.6773 56.6741 14.7208 56.682C15.2016 56.7689 15.7239 56.8633 16.2781 56.8987C16.8516 56.9662 17.4257 57 18 57H50C50.5743 57 51.1484 56.9662 51.7219 56.8987C52.2761 56.8633 52.7984 56.7689 53.2792 56.682C53.3227 56.6741 53.3659 56.6663 53.4088 56.6586L53.4201 56.6566L53.4314 56.6543C53.7859 56.5821 54.1661 56.4766 54.505 56.3825L54.5234 56.3774L54.5267 56.3765C59.7014 54.9214 63.8781 51.0458 65.8128 46.0374Z" fill="white"/>
<path d="M65.8128 46.0374L65.8156 46.0301L65.8183 46.0228C65.8328 45.9835 65.8492 45.9403 65.8669 45.8938C65.9351 45.7145 66.0217 45.4867 66.0866 45.246C66.2938 44.7369 66.4288 44.213 66.5272 43.7186C66.6578 43.2155 66.7629 42.687 66.8025 42.1135C66.9342 41.3259 67 40.5373 67 39.7178V8.52103C67 7.34695 66.8358 6.32269 66.4897 5.50044C66.1409 4.67176 65.5803 3.99402 64.7781 3.65827C63.9743 3.32186 63.1007 3.40106 62.2733 3.7397C61.4537 4.0751 60.626 4.6825 59.8147 5.50806L59.8134 5.50944L51.5659 13.9349C51.0082 14.4752 50.2681 14.6675 49.5773 14.5137L49.5481 14.5072L49.5186 14.5025C49.1444 14.4423 48.7826 14.262 48.4283 13.9291L43.259 8.66863L43.2573 8.66681L36.987 2.25343L36.9853 2.25161C35.3454 0.582796 32.6546 0.582796 31.0147 2.25161L24.8067 8.56912L25.52 9.27001L24.8067 8.56912C24.7426 8.63435 24.6929 8.70151 24.6593 8.75167L19.5717 13.9291C19.2175 14.262 18.8557 14.4423 18.4814 14.5025L18.4669 14.5048L18.4526 14.5075C17.7355 14.6444 16.9552 14.4379 16.4021 13.9024L8.18662 5.50944L8.18526 5.50806C7.37401 4.6825 6.54632 4.0751 5.72675 3.7397C4.89926 3.40106 4.02568 3.32186 3.22191 3.65827C2.41974 3.99402 1.85914 4.67176 1.51032 5.50044C1.16422 6.32269 1 7.34695 1 8.52103V39.7178C1 40.5373 1.06577 41.3259 1.19747 42.1135C1.23709 42.6871 1.34226 43.2157 1.47284 43.7188C1.57496 44.2305 1.71116 44.7182 1.9104 45.2351C1.97565 45.4798 2.06387 45.7118 2.1331 45.8939C2.15076 45.9403 2.16719 45.9835 2.18168 46.0228L2.18437 46.0301L2.18718 46.0374C4.12189 51.0458 8.29862 54.9214 13.4733 56.3765L13.4766 56.3774C13.5308 56.3925 13.5867 56.4083 13.6442 56.4245C13.9266 56.5044 14.2471 56.5949 14.5861 56.6577L14.5912 56.6586C14.6341 56.6663 14.6773 56.6741 14.7208 56.682C15.2016 56.7689 15.7239 56.8633 16.2781 56.8987C16.8516 56.9662 17.4257 57 18 57H50C50.5743 57 51.1484 56.9662 51.7219 56.8987C52.2761 56.8633 52.7984 56.7689 53.2792 56.682C53.3227 56.6741 53.3659 56.6663 53.4088 56.6586L53.4201 56.6566L53.4314 56.6543C53.7859 56.5821 54.1661 56.4766 54.505 56.3825L54.5234 56.3774L54.5267 56.3765C59.7014 54.9214 63.8781 51.0458 65.8128 46.0374Z" fill="#007AFF" fill-opacity="0.15"/>
<path d="M65.8128 46.0374L65.8156 46.0301L65.8183 46.0228C65.8328 45.9835 65.8492 45.9403 65.8669 45.8938C65.9351 45.7145 66.0217 45.4867 66.0866 45.246C66.2938 44.7369 66.4288 44.213 66.5272 43.7186C66.6578 43.2155 66.7629 42.687 66.8025 42.1135C66.9342 41.3259 67 40.5373 67 39.7178V8.52103C67 7.34695 66.8358 6.32269 66.4897 5.50044C66.1409 4.67176 65.5803 3.99402 64.7781 3.65827C63.9743 3.32186 63.1007 3.40106 62.2733 3.7397C61.4537 4.0751 60.626 4.6825 59.8147 5.50806L59.8134 5.50944L51.5659 13.9349C51.0082 14.4752 50.2681 14.6675 49.5773 14.5137L49.5481 14.5072L49.5186 14.5025C49.1444 14.4423 48.7826 14.262 48.4283 13.9291L43.259 8.66863L43.2573 8.66681L36.987 2.25343L36.9853 2.25161C35.3454 0.582796 32.6546 0.582796 31.0147 2.25161L24.8067 8.56912L25.52 9.27001L24.8067 8.56912C24.7426 8.63435 24.6929 8.70151 24.6593 8.75167L19.5717 13.9291C19.2175 14.262 18.8557 14.4423 18.4814 14.5025L18.4669 14.5048L18.4526 14.5075C17.7355 14.6444 16.9552 14.4379 16.4021 13.9024L8.18662 5.50944L8.18526 5.50806C7.37401 4.6825 6.54632 4.0751 5.72675 3.7397C4.89926 3.40106 4.02568 3.32186 3.22191 3.65827C2.41974 3.99402 1.85914 4.67176 1.51032 5.50044C1.16422 6.32269 1 7.34695 1 8.52103V39.7178C1 40.5373 1.06577 41.3259 1.19747 42.1135C1.23709 42.6871 1.34226 43.2157 1.47284 43.7188C1.57496 44.2305 1.71116 44.7182 1.9104 45.2351C1.97565 45.4798 2.06387 45.7118 2.1331 45.8939C2.15076 45.9403 2.16719 45.9835 2.18168 46.0228L2.18437 46.0301L2.18718 46.0374C4.12189 51.0458 8.29862 54.9214 13.4733 56.3765L13.4766 56.3774C13.5308 56.3925 13.5867 56.4083 13.6442 56.4245C13.9266 56.5044 14.2471 56.5949 14.5861 56.6577L14.5912 56.6586C14.6341 56.6663 14.6773 56.6741 14.7208 56.682C15.2016 56.7689 15.7239 56.8633 16.2781 56.8987C16.8516 56.9662 17.4257 57 18 57H50C50.5743 57 51.1484 56.9662 51.7219 56.8987C52.2761 56.8633 52.7984 56.7689 53.2792 56.682C53.3227 56.6741 53.3659 56.6663 53.4088 56.6586L53.4201 56.6566L53.4314 56.6543C53.7859 56.5821 54.1661 56.4766 54.505 56.3825L54.5234 56.3774L54.5267 56.3765C59.7014 54.9214 63.8781 51.0458 65.8128 46.0374Z" stroke="#F6F9FF" stroke-width="2"/>
</svg>
