<svg width="93" height="103" viewBox="0 0 93 103" fill="none" xmlns="http://www.w3.org/2000/svg">
<path d="M82.6667 10.3H77.5V3C77.5 1.34315 76.1569 0 74.5 0H70.1667C68.5098 0 67.1667 1.34315 67.1667 3V10.3H25.8333V3C25.8333 1.34315 24.4902 0 22.8333 0H18.5C16.8431 0 15.5 1.34315 15.5 3V10.3H10.3333C4.65 10.3 0 14.935 0 20.6V92.7C0 98.365 4.65 103 10.3333 103H82.6667C88.35 103 93 98.365 93 92.7V20.6C93 14.935 88.35 10.3 82.6667 10.3ZM82.6667 89.7C82.6667 91.3569 81.3235 92.7 79.6667 92.7H13.3333C11.6765 92.7 10.3333 91.3569 10.3333 89.7V44.2C10.3333 42.5431 11.6765 41.2 13.3333 41.2H79.6667C81.3235 41.2 82.6667 42.5431 82.6667 44.2V89.7ZM13.3333 30.9C11.6765 30.9 10.3333 29.5569 10.3333 27.9V23.6C10.3333 21.9431 11.6765 20.6 13.3333 20.6H79.6667C81.3235 20.6 82.6667 21.9431 82.6667 23.6V27.9C82.6667 29.5569 81.3235 30.9 79.6667 30.9H13.3333ZM20.6667 54.5C20.6667 52.8432 22.0098 51.5 23.6667 51.5H69.3333C70.9902 51.5 72.3333 52.8431 72.3333 54.5V58.8C72.3333 60.4568 70.9902 61.8 69.3333 61.8H23.6667C22.0098 61.8 20.6667 60.4569 20.6667 58.8V54.5ZM20.6667 75.1C20.6667 73.4431 22.0098 72.1 23.6667 72.1H53.8333C55.4902 72.1 56.8333 73.4431 56.8333 75.1V79.4C56.8333 81.0569 55.4902 82.4 53.8333 82.4H23.6667C22.0098 82.4 20.6667 81.0569 20.6667 79.4V75.1Z" fill="#0063A4" fill-opacity="0.13"/>
</svg>
