<svg width="20" height="21" viewBox="0 0 20 21" fill="none" xmlns="http://www.w3.org/2000/svg">
<path d="M7.49999 2.1665C5.31666 2.1665 3.54166 3.9415 3.54166 6.12484C3.54166 8.2665 5.21666 9.99984 7.39999 10.0748C7.46666 10.0665 7.53332 10.0665 7.58332 10.0748C7.59999 10.0748 7.60832 10.0748 7.62499 10.0748C7.63332 10.0748 7.63332 10.0748 7.64166 10.0748C9.77499 9.99984 11.45 8.2665 11.4583 6.12484C11.4583 3.9415 9.68332 2.1665 7.49999 2.1665Z" fill="#0063A4"/>
<path d="M11.7333 12.2919C9.4083 10.7419 5.61663 10.7419 3.27497 12.2919C2.21663 13.0002 1.6333 13.9586 1.6333 14.9836C1.6333 16.0086 2.21663 16.9586 3.26663 17.6586C4.4333 18.4419 5.96663 18.8336 7.49997 18.8336C9.0333 18.8336 10.5666 18.4419 11.7333 17.6586C12.7833 16.9502 13.3666 16.0002 13.3666 14.9669C13.3583 13.9419 12.7833 12.9919 11.7333 12.2919Z" fill="#0063A4"/>
<path d="M16.6582 6.61659C16.7915 8.23325 15.6415 9.64992 14.0499 9.84159C14.0415 9.84159 14.0415 9.84159 14.0332 9.84159H14.0082C13.9582 9.84159 13.9082 9.84159 13.8665 9.85825C13.0582 9.89992 12.3165 9.64159 11.7582 9.16659C12.6165 8.39992 13.1082 7.24992 13.0082 5.99992C12.9499 5.32492 12.7165 4.70825 12.3665 4.18325C12.6832 4.02492 13.0499 3.92492 13.4249 3.89159C15.0582 3.74992 16.5165 4.96659 16.6582 6.61659Z" fill="#0063A4"/>
<path d="M18.3252 14.3252C18.2585 15.1335 17.7419 15.8335 16.8752 16.3085C16.0419 16.7668 14.9919 16.9835 13.9502 16.9585C14.5502 16.4168 14.9002 15.7418 14.9669 15.0252C15.0502 13.9918 14.5585 13.0002 13.5752 12.2085C13.0169 11.7668 12.3669 11.4168 11.6585 11.1585C13.5002 10.6252 15.8169 10.9835 17.2419 12.1335C18.0085 12.7502 18.4002 13.5252 18.3252 14.3252Z" fill="#0063A4"/>
</svg>
