<svg width="20" height="20" viewBox="0 0 20 20" fill="none" xmlns="http://www.w3.org/2000/svg">
<path d="M14.2498 1.66666H10.7498C8.24635 1.66666 7.03822 2.53231 6.74575 4.61574C6.66834 5.16724 7.1298 5.62499 7.68671 5.62499H9.2498C12.7498 5.62499 14.3748 7.24999 14.3748 10.75V12.3131C14.3748 12.87 14.8326 13.3315 15.3841 13.254C17.4675 12.9616 18.3331 11.7534 18.3331 9.24999V5.74999C18.3331 2.83332 17.1665 1.66666 14.2498 1.66666Z" fill="#0063A4"/>
<path d="M9.25033 6.66666H5.75033C2.83366 6.66666 1.66699 7.83332 1.66699 10.75V14.25C1.66699 17.1667 2.83366 18.3333 5.75033 18.3333H9.25033C12.167 18.3333 13.3337 17.1667 13.3337 14.25V10.75C13.3337 7.83332 12.167 6.66666 9.25033 6.66666ZM10.242 11.375L7.15033 14.4667C7.03366 14.5833 6.88366 14.6417 6.72533 14.6417C6.56699 14.6417 6.41699 14.5833 6.30033 14.4667L4.75033 12.9167C4.51699 12.6833 4.51699 12.3083 4.75033 12.075C4.98366 11.8417 5.35866 11.8417 5.59199 12.075L6.71699 13.2L9.39199 10.525C9.62533 10.2917 10.0003 10.2917 10.2337 10.525C10.467 10.7583 10.4753 11.1417 10.242 11.375Z" fill="#0063A4"/>
</svg>
