<svg width="24" height="24" viewBox="0 0 24 24" fill="none" xmlns="http://www.w3.org/2000/svg">
<path d="M8.04472 17C7.77918 17 7.51363 16.9022 7.30398 16.6926C6.89867 16.2875 6.89867 15.6168 7.30398 15.2117L15.2145 7.30388C15.6198 6.89871 16.2907 6.89871 16.696 7.30388C17.1013 7.70905 17.1013 8.37967 16.696 8.78484L8.78546 16.6926C8.5898 16.9022 8.31027 17 8.04472 17Z" fill="#292D32"/>
<path d="M15.9553 17C15.6897 17 15.4242 16.9022 15.2145 16.6926L7.30398 8.78484C6.89867 8.37967 6.89867 7.70905 7.30398 7.30388C7.70929 6.89871 8.38015 6.89871 8.78546 7.30388L16.696 15.2117C17.1013 15.6168 17.1013 16.2875 16.696 16.6926C16.4864 16.9022 16.2208 17 15.9553 17Z" fill="#292D32"/>
</svg>
