<svg width="25" height="24" viewBox="0 0 25 24" fill="none" xmlns="http://www.w3.org/2000/svg">
<path d="M11.75 18.25H9.5C8.4 18.25 7.5 19.15 7.5 20.25V20.5H6.5C6.09 20.5 5.75 20.84 5.75 21.25C5.75 21.66 6.09 22 6.5 22H18.5C18.91 22 19.25 21.66 19.25 21.25C19.25 20.84 18.91 20.5 18.5 20.5H17.5V20.25C17.5 19.15 16.6 18.25 15.5 18.25H13.25V15.96C13 15.99 12.75 16 12.5 16C12.25 16 12 15.99 11.75 15.96V18.25Z" fill="white"/>
<path d="M18.9798 11.64C19.6398 11.39 20.2198 10.98 20.6798 10.52C21.6098 9.49 22.2198 8.26 22.2198 6.82C22.2198 5.38 21.0898 4.25 19.6498 4.25H19.0898C18.4398 2.92 17.0798 2 15.4998 2H9.49979C7.91979 2 6.55978 2.92 5.90979 4.25H5.34979C3.90979 4.25 2.77979 5.38 2.77979 6.82C2.77979 8.26 3.38979 9.49 4.31979 10.52C4.77979 10.98 5.35979 11.39 6.01979 11.64C7.05978 14.2 9.55979 16 12.4998 16C15.4398 16 17.9398 14.2 18.9798 11.64ZM15.3398 8.45L14.7198 9.21C14.6198 9.32 14.5498 9.54 14.5598 9.69L14.6198 10.67C14.6598 11.27 14.2298 11.58 13.6698 11.36L12.7598 11C12.6198 10.95 12.3798 10.95 12.2398 11L11.3298 11.36C10.7698 11.58 10.3398 11.27 10.3798 10.67L10.4398 9.69C10.4498 9.54 10.3798 9.32 10.2798 9.21L9.65979 8.45C9.26979 7.99 9.43979 7.48 10.0198 7.33L10.9698 7.09C11.1198 7.05 11.2998 6.91 11.3798 6.78L11.9098 5.96C12.2398 5.45 12.7598 5.45 13.0898 5.96L13.6198 6.78C13.6998 6.91 13.8798 7.05 14.0298 7.09L14.9798 7.33C15.5598 7.48 15.7298 7.99 15.3398 8.45Z" fill="white"/>
</svg>
