<svg width="25" height="24" viewBox="0 0 25 24" fill="none" xmlns="http://www.w3.org/2000/svg">
<path d="M12.6504 16.5V18.6" stroke="#94BDDB" stroke-width="1.5" stroke-linecap="round" stroke-linejoin="round"/>
<path d="M7.65039 22H17.6504V21C17.6504 19.9 16.7504 19 15.6504 19H9.65039C8.55039 19 7.65039 19.9 7.65039 21V22V22Z" stroke="#94BDDB" stroke-width="1.5" stroke-miterlimit="10"/>
<path d="M6.65039 22H18.6504" stroke="#94BDDB" stroke-width="1.5" stroke-linecap="round" stroke-linejoin="round"/>
<path d="M12.5 16C8.63 16 5.5 12.87 5.5 9V6C5.5 3.79 7.29 2 9.5 2H15.5C17.71 2 19.5 3.79 19.5 6V9C19.5 12.87 16.37 16 12.5 16Z" stroke="#94BDDB" stroke-width="1.5" stroke-linecap="round" stroke-linejoin="round"/>
<path d="M5.97004 11.6501C5.22004 11.4101 4.56004 10.9701 4.04004 10.4501C3.14004 9.4501 2.54004 8.2501 2.54004 6.8501C2.54004 5.4501 3.64004 4.3501 5.04004 4.3501H5.69004C5.49004 4.8101 5.39004 5.3201 5.39004 5.8501V8.8501C5.39004 9.8501 5.60004 10.7901 5.97004 11.6501Z" stroke="#94BDDB" stroke-width="1.5" stroke-linecap="round" stroke-linejoin="round"/>
<path d="M19.0303 11.6501C19.7803 11.4101 20.4403 10.9701 20.9603 10.4501C21.8603 9.4501 22.4603 8.2501 22.4603 6.8501C22.4603 5.4501 21.3603 4.3501 19.9603 4.3501H19.3103C19.5103 4.8101 19.6103 5.3201 19.6103 5.8501V8.8501C19.6103 9.8501 19.4003 10.7901 19.0303 11.6501Z" stroke="#94BDDB" stroke-width="1.5" stroke-linecap="round" stroke-linejoin="round"/>
</svg>
