<svg width="25" height="24" viewBox="0 0 25 24" fill="none" xmlns="http://www.w3.org/2000/svg">
<path d="M18.2916 2H6.677C4.14575 2 2.08325 3.98 2.08325 6.41V12.91V13.11C2.08325 15.55 4.14575 17.52 6.677 17.52H10.677C11.2499 17.52 11.7187 17.97 11.7187 18.52V19.49C11.7187 20.04 11.2499 20.49 10.677 20.49H8.15617C7.72909 20.49 7.37492 20.83 7.37492 21.24C7.37492 21.65 7.71867 22 8.15617 22H16.8541C17.2812 22 17.6353 21.66 17.6353 21.25C17.6353 20.84 17.2812 20.5 16.8541 20.5H14.3333C13.7603 20.5 13.2916 20.05 13.2916 19.5V18.53C13.2916 17.98 13.7603 17.53 14.3333 17.53H18.302C20.8437 17.53 22.8958 15.55 22.8958 13.12V12.92V6.42C22.8853 3.98 20.8228 2 18.2916 2Z" fill="#0063A4"/>
</svg>
