<svg width="24" height="25" viewBox="0 0 24 25" fill="none" xmlns="http://www.w3.org/2000/svg">
<path d="M16.4805 3.5556H8.5195C5.0615 3.5556 3 5.6171 3 9.0751V17.0266C3 20.4941 5.0615 22.5556 8.5195 22.5556H16.471C19.929 22.5556 21.9905 20.4941 21.9905 17.0361V9.0751C22 5.6171 19.9385 3.5556 16.4805 3.5556ZM9.1465 12.0866C9.422 11.8111 9.878 11.8111 10.1535 12.0866L11.7875 13.7206V7.8401C11.7875 7.4506 12.1105 7.1276 12.5 7.1276C12.8895 7.1276 13.2125 7.4506 13.2125 7.8401V13.7206L14.8465 12.0866C15.122 11.8111 15.578 11.8111 15.8535 12.0866C16.129 12.3621 16.129 12.8181 15.8535 13.0936L13.0035 15.9436C12.937 16.0101 12.861 16.0576 12.7755 16.0956C12.69 16.1336 12.595 16.1526 12.5 16.1526C12.405 16.1526 12.3195 16.1336 12.2245 16.0956C12.139 16.0576 12.063 16.0101 11.9965 15.9436L9.1465 13.0936C8.871 12.8181 8.871 12.3716 9.1465 12.0866ZM18.428 18.0146C16.5185 18.6511 14.514 18.9741 12.5 18.9741C10.486 18.9741 8.4815 18.6511 6.572 18.0146C6.2015 17.8911 6.002 17.4826 6.1255 17.1121C6.249 16.7416 6.648 16.5326 7.028 16.6656C10.562 17.8436 14.4475 17.8436 17.9815 16.6656C18.352 16.5421 18.7605 16.7416 18.884 17.1121C18.998 17.4921 18.7985 17.8911 18.428 18.0146Z" fill="#0063A4"/>
</svg>
