<svg version="1.1" id="Layer_1" xmlns="http://www.w3.org/2000/svg" xmlns:xlink="http://www.w3.org/1999/xlink" x="0px" y="0px"
	 width="100%" viewBox="0 0 1080 1080" enable-background="new 0 0 1080 1080" xml:space="preserve">
<path fill="#FEFFFF" opacity="1.000000" stroke="none" 
	d="
M816.000000,218.999649 
	C825.814636,218.999649 835.129211,218.999649 844.805054,218.999649 
	C844.805054,330.952240 844.805054,442.669617 844.805054,555.167786 
	C843.406128,555.167786 841.827332,555.167847 840.248596,555.167847 
	C825.250854,555.167847 810.251587,555.054199 795.256531,555.253784 
	C791.836731,555.299316 789.916931,554.154968 788.051453,551.358154 
	C737.426758,475.460022 686.712646,399.621490 636.011902,323.774078 
	C635.096924,322.405304 634.161804,321.050018 632.413818,318.479126 
	C632.413818,398.073792 632.413818,476.322815 632.413818,554.868896 
	C613.882202,554.868896 595.967346,554.868896 577.775635,554.868896 
	C577.775635,443.057861 577.775635,331.308380 577.775635,218.999649 
	C585.677734,218.999649 593.448730,218.999649 601.219666,218.999649 
	C609.885010,218.999649 618.557434,219.202911 627.212402,218.903214 
	C630.857361,218.776993 632.839722,220.086121 634.803955,223.030502 
	C684.788574,297.953339 734.869446,372.812042 784.935425,447.680603 
	C786.320374,449.751740 787.726685,451.808685 789.948669,455.092346 
	C789.948669,375.694672 789.948669,297.594513 789.948669,218.999649 
	C798.929382,218.999649 807.214722,218.999649 816.000000,218.999649 
z"/>
<path fill="#FFFFFF" opacity="1.000000" stroke="none" 
	d="
M239.068207,219.000885 
	C320.014587,219.000809 400.467926,219.000809 481.206604,219.000809 
	C481.206604,236.450409 481.206604,253.498474 481.206604,270.968781 
	C417.916565,270.968781 354.830292,270.968781 291.456055,270.968781 
	C291.456055,299.150238 291.456055,326.912781 291.456055,355.365814 
	C350.541962,355.365814 409.717316,355.365814 469.190491,355.365814 
	C469.190491,372.958588 469.190491,389.863831 469.190491,407.300568 
	C410.005524,407.300568 350.944153,407.300568 291.525574,407.300568 
	C291.525574,439.359650 291.525574,470.890961 291.525574,502.814636 
	C357.157745,502.814636 422.736572,502.814636 488.656921,502.814636 
	C488.656921,520.268799 488.656921,537.338196 488.656921,554.787903 
	C404.264801,554.787903 319.738525,554.787903 234.859558,554.787903 
	C234.859558,443.080414 234.859558,331.359924 234.859558,219.289993 
	C236.014023,219.200180 237.294601,219.100571 239.068207,219.000885 
z"/>
<path fill="#93BDDB" opacity="1.000000" stroke="none" 
	d="
M701.952820,832.124146 
	C716.113647,832.042358 730.311157,832.563965 744.424622,831.704590 
	C757.840454,830.887817 771.366516,829.562622 784.488953,826.783997 
	C804.555481,822.534973 817.657227,809.332520 823.871643,790.093323 
	C832.310608,763.967041 830.946899,737.792664 820.985352,712.304626 
	C814.383606,695.413086 800.286316,687.225952 783.503357,683.130981 
	C767.076172,679.122803 750.315125,678.002686 733.434814,677.970886 
	C670.776123,677.852844 608.117554,677.626709 545.459045,677.425049 
	C543.845154,677.419861 542.231934,677.228455 540.109741,677.090942 
	C540.109741,670.073730 540.101929,663.445068 540.111511,656.816406 
	C540.126648,646.317627 540.265747,635.817139 540.111572,625.320923 
	C540.060791,621.864136 541.162537,620.701538 544.675171,620.714783 
	C609.333740,620.957336 673.993591,620.940674 738.650879,621.350952 
	C758.473206,621.476685 778.265930,622.886169 797.594421,627.954346 
	C837.052185,638.301025 862.641235,663.462830 874.340271,702.074219 
	C884.563538,735.814941 884.024597,770.289734 875.644653,804.305908 
	C868.918030,831.610779 854.150269,854.069275 829.638611,869.012878 
	C815.221375,877.802551 799.277771,882.929993 782.609985,884.865723 
	C765.596741,886.841553 748.441101,888.568665 731.340454,888.639221 
	C669.184082,888.895752 607.024719,888.415710 544.866516,888.190308 
	C543.387878,888.184937 541.910217,887.908081 540.460083,887.025391 
	C540.659607,884.486633 540.974426,882.680664 540.979858,880.873840 
	C541.020752,867.227722 540.995422,853.581482 541.002319,839.935242 
	C541.005798,833.017883 541.016663,833.003235 547.853149,833.002380 
	C596.946228,832.996399 646.039368,833.008423 695.132385,832.958252 
	C697.406128,832.955933 699.679382,832.414490 701.952820,832.124146 
z"/>
<path fill="#92BCDA" opacity="1.000000" stroke="none" 
	d="
M495.677063,864.264038 
	C492.149750,876.610657 483.656128,883.355042 471.434113,883.094910 
	C408.553345,881.756348 353.622192,860.342957 307.561890,817.255066 
	C267.770630,780.031616 243.334061,734.324585 234.351257,680.626648 
	C232.110550,667.232056 231.577148,653.509460 230.928238,639.905762 
	C230.489304,630.704163 234.936920,623.515320 243.001083,618.947754 
	C251.139832,614.337891 259.230072,615.005798 267.139435,619.816040 
	C284.932251,630.637268 302.765686,641.391663 320.556976,652.215393 
	C331.756622,659.028870 335.626282,672.401428 329.673309,683.445801 
	C323.699646,694.528564 309.835358,698.758972 298.164398,692.866211 
	C293.307709,690.414062 288.672607,687.523071 282.667938,684.110535 
	C283.324493,687.294983 283.595428,689.164490 284.098938,690.969116 
	C293.420013,724.373840 309.646027,753.967407 334.323120,778.403198 
	C369.129547,812.869324 411.074219,832.316406 460.127533,835.903198 
	C464.278717,836.206726 468.433685,836.499023 472.592224,836.653320 
	C488.097321,837.228699 497.624939,848.366760 495.677063,864.264038 
z"/>
<path fill="#9ECAEA" opacity="1.000000" stroke="none" 
	d="
M701.490234,832.067993 
	C699.679382,832.414490 697.406128,832.955933 695.132385,832.958252 
	C646.039368,833.008423 596.946228,832.996399 547.853149,833.002380 
	C541.016663,833.003235 541.005798,833.017883 541.002319,839.935242 
	C540.995422,853.581482 541.020752,867.227722 540.979858,880.873840 
	C540.974426,882.680664 540.659607,884.486633 540.262085,886.637268 
	C540.036011,868.732971 540.036011,850.484436 540.036011,832.011841 
	C594.005859,832.011841 647.516785,832.011841 701.490234,832.067993 
z"/>
</svg>