<svg width="24" height="24" viewBox="0 0 24 24" fill="none" xmlns="http://www.w3.org/2000/svg">
<g clip-path="url(#clip0_176_1294)">
<path d="M13.4213 9.30091H21.8199C22.3319 9.30091 22.7468 9.71592 22.7468 10.2278V19.0915C22.7468 19.6035 22.3318 20.0185 21.8199 20.0185H13.7832C12.8113 20.0185 12.0234 19.2306 12.0234 18.2587V7.90308C12.0235 8.67508 12.6493 9.30091 13.4213 9.30091Z" fill="url(#paint0_linear_176_1294)"/>
<path d="M22.744 9.30091H13.8205C12.828 9.30091 12.0234 8.67508 12.0234 7.90308V18.2587C12.1691 19.646 13.1982 20.1026 14.2858 20.0185H22.744V9.30091Z" fill="url(#paint1_linear_176_1294)"/>
<path d="M12.0234 16.0942V18.2589C12.0234 19.2308 12.8113 20.0187 13.7832 20.0187H21.8199C22.3318 20.0187 22.7468 19.6037 22.7468 19.0918V16.0942H12.0234Z" fill="url(#paint2_linear_176_1294)"/>
<path d="M12.0264 9.30103H17.3852V14.6598H12.0264V9.30103Z" fill="url(#paint3_linear_176_1294)"/>
<path d="M12.0264 9.30103H17.3852V14.6598H12.0264V9.30103Z" fill="url(#paint4_linear_176_1294)"/>
<path d="M12.0264 9.30103H16.5096V14.6598H12.0264V9.30103Z" fill="url(#paint5_linear_176_1294)"/>
<path d="M22.7441 19.1489V14.6599H17.3853V20.0187H21.82C22.3127 20.0187 22.7144 19.6341 22.7441 19.1489Z" fill="url(#paint6_linear_176_1294)"/>
<path d="M22.7441 19.1489V14.6599H17.3853V20.0187H21.82C22.3127 20.0187 22.7144 19.6341 22.7441 19.1489Z" fill="url(#paint7_linear_176_1294)"/>
<path d="M22.7441 19.2746V15.4353H17.3853V20.0186H21.82C22.3127 20.0186 22.7144 19.6896 22.7441 19.2746Z" fill="url(#paint8_linear_176_1294)"/>
<path d="M13.7313 11.8363H12.0234V18.4471C12.0234 17.7556 12.584 17.1951 13.2754 17.1951H13.3165C14.2883 17.1951 15.0762 16.4073 15.0762 15.4354V10.4915C15.0762 11.2342 14.4741 11.8363 13.7313 11.8363Z" fill="url(#paint9_linear_176_1294)"/>
<path d="M13.7313 11.8363H12.0234V18.4471C12.0234 17.7556 12.584 17.1951 13.2754 17.1951H13.3165C14.2883 17.1951 15.0762 16.4073 15.0762 15.4354V10.4915C15.0762 11.2342 14.4741 11.8363 13.7313 11.8363Z" fill="url(#paint10_linear_176_1294)"/>
<path d="M13.7313 11.8363H12.0234V18.4471C12.0234 17.7556 12.584 17.1951 13.2754 17.1951H13.3165C14.2883 17.1951 15.0762 16.4073 15.0762 15.4354V10.4915C15.0762 11.2342 14.4741 11.8363 13.7313 11.8363Z" fill="url(#paint11_linear_176_1294)"/>
<path d="M13.6783 14.0374H2.61914V3.31982H13.3164C14.2883 3.31982 15.0762 4.10768 15.0762 5.07959V15.4353C15.0762 14.6633 14.4503 14.0374 13.6783 14.0374Z" fill="url(#paint12_linear_176_1294)"/>
<path d="M13.6783 14.0374H2.61914V10.2778H15.0762V15.4352C15.0762 14.6632 14.4503 14.0374 13.6783 14.0374Z" fill="url(#paint13_linear_176_1294)"/>
<path d="M13.6784 14.0374C14.4504 14.0374 15.0762 14.6633 15.0762 15.4353V5.07959C15.0762 4.10773 14.2884 3.31982 13.3165 3.31982H12.0234V14.0374H13.6784Z" fill="url(#paint14_linear_176_1294)"/>
<path d="M3.81201 3.31982H6.66476V14.0374H3.81201V3.31982Z" fill="url(#paint15_linear_176_1294)"/>
<path d="M3.81201 3.31982H6.66476V8.67865H3.81201V3.31982Z" fill="url(#paint16_linear_176_1294)"/>
<path d="M3.81201 3.31982H6.66476V8.67865H3.81201V3.31982Z" fill="url(#paint17_linear_176_1294)"/>
<path d="M3.81201 3.31982H6.66474V8.6786H3.81201V3.31982Z" fill="url(#paint18_linear_176_1294)"/>
<path d="M6.66455 8.67871H12.0234V14.0375H6.66455V8.67871Z" fill="url(#paint19_linear_176_1294)"/>
<path d="M13.7313 8.67865H12.0234V3.31982H13.3165C14.2883 3.31982 15.0762 4.10768 15.0762 5.07959V10.0235C15.0762 9.28077 14.4741 8.67865 13.7313 8.67865Z" fill="url(#paint20_linear_176_1294)"/>
<path d="M13.7313 8.67865H12.0234V3.31982H13.3165C14.2883 3.31982 15.0762 4.10768 15.0762 5.07959V10.0235C15.0762 9.28077 14.4741 8.67865 13.7313 8.67865Z" fill="url(#paint21_linear_176_1294)"/>
<path d="M13.3182 3.31982H12.0264V8.67865H13.7326C14.4747 8.67865 15.0762 9.28077 15.0762 10.0235V5.07959C15.0762 4.10768 14.2891 3.31982 13.3182 3.31982Z" fill="url(#paint22_linear_176_1294)"/>
<path d="M6.66455 9.30103H12.0234V14.0376H6.66455V9.30103Z" fill="url(#paint23_linear_176_1294)"/>
<path d="M3.38196 24.0001H2.71481C2.37721 24.0001 2.10352 23.7264 2.10352 23.3888V2.47852H3.99326V23.3888C3.99326 23.7264 3.71956 24.0001 3.38196 24.0001Z" fill="url(#paint24_linear_176_1294)"/>
<path d="M2.10352 2.47852H3.99326V7.44995H2.10352V2.47852Z" fill="url(#paint25_linear_176_1294)" fill-opacity="0.6"/>
<path d="M3.04822 3.59059C4.03974 3.59059 4.84352 2.78681 4.84352 1.79529C4.84352 0.803781 4.03974 0 3.04822 0C2.05671 0 1.25293 0.803781 1.25293 1.79529C1.25293 2.78681 2.05671 3.59059 3.04822 3.59059Z" fill="url(#paint26_linear_176_1294)"/>
</g>
<defs>
<linearGradient id="paint0_linear_176_1294" x1="13.7522" y1="10.7828" x2="20.1839" y2="17.2145" gradientUnits="userSpaceOnUse">
<stop stop-color="#F9F5F3"/>
<stop offset="1" stop-color="#D8E8F0"/>
</linearGradient>
<linearGradient id="paint1_linear_176_1294" x1="19.2674" y1="14.9321" x2="14.0641" y2="12.4778" gradientUnits="userSpaceOnUse">
<stop stop-color="#96D4E7" stop-opacity="0"/>
<stop offset="0.9957" stop-color="#96D4E7" stop-opacity="0.996"/>
<stop offset="1" stop-color="#96D4E7"/>
</linearGradient>
<linearGradient id="paint2_linear_176_1294" x1="17.3851" y1="17.7884" x2="17.3851" y2="20.3923" gradientUnits="userSpaceOnUse">
<stop stop-color="#678D98" stop-opacity="0"/>
<stop offset="0.9957" stop-color="#678D98" stop-opacity="0.996"/>
<stop offset="1" stop-color="#678D98"/>
</linearGradient>
<linearGradient id="paint3_linear_176_1294" x1="14.1696" y1="11.6531" x2="16.5853" y2="13.1277" gradientUnits="userSpaceOnUse">
<stop stop-color="#5A5A5A"/>
<stop offset="1" stop-color="#444444"/>
</linearGradient>
<linearGradient id="paint4_linear_176_1294" x1="13.1269" y1="10.4015" x2="16.9085" y2="14.1832" gradientUnits="userSpaceOnUse">
<stop stop-color="#0063A4"/>
<stop offset="1" stop-color="#004C7E"/>
</linearGradient>
<linearGradient id="paint5_linear_176_1294" x1="16.5096" y1="11.9804" x2="14.6309" y2="11.9804" gradientUnits="userSpaceOnUse">
<stop stop-color="#00436F" stop-opacity="0"/>
<stop offset="1" stop-color="#00375B"/>
</linearGradient>
<linearGradient id="paint6_linear_176_1294" x1="20.0647" y1="18.3233" x2="20.0647" y2="20.651" gradientUnits="userSpaceOnUse">
<stop stop-color="#5A5A5A"/>
<stop offset="1" stop-color="#444444"/>
</linearGradient>
<linearGradient id="paint7_linear_176_1294" x1="18.4858" y1="15.7604" x2="22.2675" y2="19.5421" gradientUnits="userSpaceOnUse">
<stop stop-color="#0063A4"/>
<stop offset="1" stop-color="#004C7E"/>
</linearGradient>
<linearGradient id="paint8_linear_176_1294" x1="20.0647" y1="16.8294" x2="20.0647" y2="20.5593" gradientUnits="userSpaceOnUse">
<stop stop-color="#00375B" stop-opacity="0"/>
<stop offset="1" stop-color="#00375B"/>
</linearGradient>
<linearGradient id="paint9_linear_176_1294" x1="13.0156" y1="13.9351" x2="14.3392" y2="15.2587" gradientUnits="userSpaceOnUse">
<stop stop-color="#5A5A5A"/>
<stop offset="1" stop-color="#444444"/>
</linearGradient>
<linearGradient id="paint10_linear_176_1294" x1="12.6504" y1="12.1253" x2="16.4061" y2="13.5664" gradientUnits="userSpaceOnUse">
<stop stop-color="#0063A4"/>
<stop offset="1" stop-color="#004C7E"/>
</linearGradient>
<linearGradient id="paint11_linear_176_1294" x1="13.5498" y1="16.6275" x2="13.5498" y2="14.0519" gradientUnits="userSpaceOnUse">
<stop stop-color="#00375B" stop-opacity="0"/>
<stop offset="1" stop-color="#00375B"/>
</linearGradient>
<linearGradient id="paint12_linear_176_1294" x1="7.599" y1="6.70326" x2="10.6037" y2="13.1002" gradientUnits="userSpaceOnUse">
<stop stop-color="#F9F5F3"/>
<stop offset="1" stop-color="#D8E8F0"/>
</linearGradient>
<linearGradient id="paint13_linear_176_1294" x1="8.84766" y1="12.5672" x2="8.84766" y2="16.3633" gradientUnits="userSpaceOnUse">
<stop stop-color="#678D98" stop-opacity="0"/>
<stop offset="0.9957" stop-color="#678D98" stop-opacity="0.996"/>
<stop offset="1" stop-color="#678D98"/>
</linearGradient>
<linearGradient id="paint14_linear_176_1294" x1="13.6174" y1="9.37757" x2="15.1002" y2="9.37757" gradientUnits="userSpaceOnUse">
<stop stop-color="#96D4E7" stop-opacity="0"/>
<stop offset="0.9957" stop-color="#96D4E7" stop-opacity="0.996"/>
<stop offset="1" stop-color="#96D4E7"/>
</linearGradient>
<linearGradient id="paint15_linear_176_1294" x1="5.36778" y1="8.67865" x2="3.98834" y2="8.67865" gradientUnits="userSpaceOnUse">
<stop stop-color="#96D4E7" stop-opacity="0"/>
<stop offset="0.9957" stop-color="#96D4E7" stop-opacity="0.996"/>
<stop offset="1" stop-color="#96D4E7"/>
</linearGradient>
<linearGradient id="paint16_linear_176_1294" x1="4.02872" y1="4.78957" x2="6.92613" y2="7.68698" gradientUnits="userSpaceOnUse">
<stop stop-color="#5A5A5A"/>
<stop offset="1" stop-color="#444444"/>
</linearGradient>
<linearGradient id="paint17_linear_176_1294" x1="4.39789" y1="4.42034" x2="7.53514" y2="6.09047" gradientUnits="userSpaceOnUse">
<stop stop-color="#0063A4"/>
<stop offset="1" stop-color="#004C7E"/>
</linearGradient>
<linearGradient id="paint18_linear_176_1294" x1="6.40218" y1="8.14701" x2="4.07455" y2="8.14701" gradientUnits="userSpaceOnUse">
<stop stop-color="#00436F" stop-opacity="0"/>
<stop offset="1" stop-color="#00375B"/>
</linearGradient>
<linearGradient id="paint19_linear_176_1294" x1="7.76512" y1="9.77923" x2="11.5468" y2="13.5609" gradientUnits="userSpaceOnUse">
<stop stop-color="#0063A4"/>
<stop offset="1" stop-color="#004C7E"/>
</linearGradient>
<linearGradient id="paint20_linear_176_1294" x1="12.1911" y1="5.15592" x2="15.6336" y2="8.59841" gradientUnits="userSpaceOnUse">
<stop stop-color="#5A5A5A"/>
<stop offset="1" stop-color="#444444"/>
</linearGradient>
<linearGradient id="paint21_linear_176_1294" x1="12.6504" y1="4.69653" x2="16.219" y2="6.32166" gradientUnits="userSpaceOnUse">
<stop stop-color="#0063A4"/>
<stop offset="1" stop-color="#004C7E"/>
</linearGradient>
<linearGradient id="paint22_linear_176_1294" x1="12.0968" y1="6.67166" x2="15.0058" y2="6.67166" gradientUnits="userSpaceOnUse">
<stop stop-color="#00436F" stop-opacity="0"/>
<stop offset="1" stop-color="#00375B"/>
</linearGradient>
<linearGradient id="paint23_linear_176_1294" x1="9.34394" y1="12.539" x2="9.34394" y2="14.5964" gradientUnits="userSpaceOnUse">
<stop stop-color="#00436F" stop-opacity="0"/>
<stop offset="1" stop-color="#00375B"/>
</linearGradient>
<linearGradient id="paint24_linear_176_1294" x1="2.19429" y1="13.2393" x2="3.84201" y2="13.2393" gradientUnits="userSpaceOnUse">
<stop stop-color="#E6E6E6"/>
<stop offset="1" stop-color="#999999"/>
</linearGradient>
<linearGradient id="paint25_linear_176_1294" x1="3.04839" y1="7.15025" x2="3.04841" y2="2.95894" gradientUnits="userSpaceOnUse">
<stop stop-color="#14689F" stop-opacity="0"/>
<stop offset="0.598066" stop-color="#14689F" stop-opacity="0.7"/>
<stop offset="1" stop-color="#003E67" stop-opacity="0.7"/>
</linearGradient>
<linearGradient id="paint26_linear_176_1294" x1="2.11622" y1="0.863294" x2="4.32799" y2="3.07506" gradientUnits="userSpaceOnUse">
<stop stop-color="#E6E6E6"/>
<stop offset="1" stop-color="#999999"/>
</linearGradient>
<clipPath id="clip0_176_1294">
<rect width="24" height="24" fill="white"/>
</clipPath>
</defs>
</svg>
