<svg width="18" height="17" viewBox="0 0 18 17" fill="none" xmlns="http://www.w3.org/2000/svg">
<circle cx="8.54201" cy="4.36696" r="4.36696" fill="#0063A4"/>
<path fill-rule="evenodd" clip-rule="evenodd" d="M13.143 17C15.4256 17 17.276 15.1496 17.276 12.867C17.276 10.5844 15.4256 8.73395 13.143 8.73395C10.8604 8.73395 9.01001 10.5844 9.01001 12.867C9.01001 15.1496 10.8604 17 13.143 17ZM15.3225 12.2392C15.5357 12.026 15.5357 11.6804 15.3225 11.4672C15.1093 11.254 14.7637 11.254 14.5505 11.4672L12.8395 13.1783L11.8081 12.4907C11.5573 12.3235 11.2184 12.3913 11.0512 12.6421C10.8839 12.893 10.9517 13.2319 11.2026 13.3991L12.6062 14.3349C12.8227 14.4792 13.111 14.4507 13.295 14.2667L15.3225 12.2392Z" fill="#0063A4"/>
<path d="M0.510014 13.8027C0.82194 9.99724 6.77452 9.3058 9.71183 9.43577C7.21642 12.3679 8.62009 15.1284 9.63384 16.1422H2.06964C0.27607 16.2202 0.510014 14.5046 0.510014 13.8027Z" fill="#0063A4"/>
</svg>
