<svg width="21" height="21" viewBox="0 0 21 21" fill="none" xmlns="http://www.w3.org/2000/svg">
<path d="M18.2083 15.8914L16.8333 16.2164C16.525 16.2914 16.2833 16.5248 16.2167 16.8331L15.925 18.0581C15.7667 18.7248 14.9167 18.9331 14.475 18.4081L11.9833 15.5414C11.7833 15.3081 11.8917 14.9414 12.1917 14.8664C13.6667 14.5081 14.9917 13.6831 15.9667 12.5081C16.125 12.3164 16.4083 12.2914 16.5833 12.4664L18.4334 14.3164C19.0667 14.9498 18.8417 15.7414 18.2083 15.8914Z" fill="white"/>
<path d="M2.75001 15.8914L4.12501 16.2164C4.43335 16.2914 4.67501 16.5248 4.74168 16.8331L5.03335 18.0581C5.19168 18.7248 6.04168 18.9331 6.48335 18.4081L8.97501 15.5414C9.17501 15.3081 9.06668 14.9414 8.76668 14.8664C7.29168 14.5081 5.96668 13.6831 4.99168 12.5081C4.83335 12.3164 4.55001 12.2914 4.37501 12.4664L2.52501 14.3164C1.89168 14.9498 2.11668 15.7414 2.75001 15.8914Z" fill="white"/>
<path d="M10.5 2.1665C7.27499 2.1665 4.66666 4.77484 4.66666 7.99984C4.66666 9.20817 5.02499 10.3165 5.64166 11.2415C6.54166 12.5748 7.96666 13.5165 9.62499 13.7582C9.90832 13.8082 10.2 13.8332 10.5 13.8332C10.8 13.8332 11.0917 13.8082 11.375 13.7582C13.0333 13.5165 14.4583 12.5748 15.3583 11.2415C15.975 10.3165 16.3333 9.20817 16.3333 7.99984C16.3333 4.77484 13.725 2.1665 10.5 2.1665ZM13.05 7.8165L12.3583 8.50817C12.2417 8.62484 12.175 8.84984 12.2167 9.0165L12.4167 9.87484C12.575 10.5498 12.2167 10.8165 11.6167 10.4582L10.7833 9.9665C10.6333 9.87484 10.3833 9.87484 10.2333 9.9665L9.39999 10.4582C8.79999 10.8082 8.44166 10.5498 8.59999 9.87484L8.79999 9.0165C8.83332 8.85817 8.77499 8.62484 8.65832 8.50817L7.94999 7.8165C7.54166 7.40817 7.67499 6.99984 8.24166 6.90817L9.13332 6.75817C9.28332 6.73317 9.45832 6.59984 9.52499 6.4665L10.0167 5.48317C10.2833 4.94984 10.7167 4.94984 10.9833 5.48317L11.475 6.4665C11.5417 6.59984 11.7167 6.73317 11.875 6.75817L12.7667 6.90817C13.325 6.99984 13.4583 7.40817 13.05 7.8165Z" fill="white"/>
</svg>
