<svg width="17" height="16" viewBox="0 0 17 16" fill="none" xmlns="http://www.w3.org/2000/svg">
<path d="M13 5.33337V6.73337C12.7067 6.69337 12.3733 6.67337 12 6.66671V5.33337C12 3.23337 11.4067 1.83337 8.5 1.83337C5.59333 1.83337 5 3.23337 5 5.33337V6.66671C4.62667 6.67337 4.29333 6.69337 4 6.73337V5.33337C4 3.40004 4.46667 0.833374 8.5 0.833374C12.5333 0.833374 13 3.40004 13 5.33337Z" fill="#B3B7BC"/>
<path d="M12.9997 6.73329C12.7063 6.69329 12.373 6.67329 11.9997 6.66663H4.99967C4.62634 6.67329 4.29301 6.69329 3.99967 6.73329C2.29967 6.93996 1.83301 7.77329 1.83301 9.99996V11.3333C1.83301 14 2.49967 14.6666 5.16634 14.6666H11.833C14.4997 14.6666 15.1663 14 15.1663 11.3333V9.99996C15.1663 7.77329 14.6997 6.93996 12.9997 6.73329ZM6.30634 11.14C6.17967 11.26 6.00634 11.3333 5.83301 11.3333C5.74634 11.3333 5.65967 11.3133 5.57967 11.28C5.49301 11.2466 5.42634 11.2 5.35967 11.14C5.23967 11.0133 5.16634 10.84 5.16634 10.6666C5.16634 10.58 5.18634 10.4933 5.21967 10.4133C5.25301 10.3333 5.29967 10.26 5.35967 10.1933C5.42634 10.1333 5.49301 10.0866 5.57967 10.0533C5.82634 9.94663 6.11967 10.0066 6.30634 10.1933C6.36634 10.26 6.41301 10.3333 6.44634 10.4133C6.47967 10.4933 6.49967 10.58 6.49967 10.6666C6.49967 10.84 6.42634 11.0133 6.30634 11.14ZM9.11301 10.92C9.07967 11 9.03301 11.0733 8.97301 11.14C8.84634 11.26 8.67301 11.3333 8.49967 11.3333C8.31967 11.3333 8.15301 11.26 8.02634 11.14C7.96634 11.0733 7.91967 11 7.88634 10.92C7.85301 10.84 7.83301 10.7533 7.83301 10.6666C7.83301 10.4866 7.90634 10.32 8.02634 10.1933C8.27301 9.94663 8.71967 9.94663 8.97301 10.1933C9.09301 10.32 9.16634 10.4866 9.16634 10.6666C9.16634 10.7533 9.14634 10.84 9.11301 10.92ZM11.6397 11.14C11.513 11.26 11.3397 11.3333 11.1663 11.3333C10.993 11.3333 10.8197 11.26 10.693 11.14C10.573 11.0133 10.4997 10.8466 10.4997 10.6666C10.4997 10.4866 10.573 10.32 10.693 10.1933C10.9463 9.94663 11.393 9.94663 11.6397 10.1933C11.6663 10.2266 11.693 10.26 11.7197 10.3C11.7463 10.3333 11.7663 10.3733 11.7797 10.4133C11.7997 10.4533 11.813 10.4933 11.8197 10.5333C11.8263 10.58 11.833 10.6266 11.833 10.6666C11.833 10.84 11.7597 11.0133 11.6397 11.14Z" fill="#B3B7BC"/>
</svg>
