<svg width="211" height="105" viewBox="0 0 211 105" fill="none" xmlns="http://www.w3.org/2000/svg">
    <defs>
        <linearGradient id="paint0_linear_136_13" x1="90.264" y1="-24.8821" x2="78.7081" y2="93.0829" gradientUnits="userSpaceOnUse">
            <stop stop-color="white"/>
            <stop stop-color="white"/>
            <stop offset="0.0001" stop-color="white" stop-opacity="0.44"/>
            <stop offset="0.678717" stop-color="white" stop-opacity="0.83"/>
        </linearGradient>
        <linearGradient id="paint1_linear_136_13" x1="137.733" y1="-53.2185" x2="140.164" y2="98.9287" gradientUnits="userSpaceOnUse">
            <stop offset="0.334586" stop-color="#FBFDFF" stop-opacity="0.75"/>
            <stop offset="1" stop-color="#5096C4" stop-opacity="0.92"/>
        </linearGradient>
        <linearGradient id="paint2_linear_136_13" x1="90.264" y1="-24.8821" x2="78.7081" y2="93.0829" gradientUnits="userSpaceOnUse">
            <stop stop-color="white"/>
            <stop stop-color="white"/>
            <stop offset="0.0001" stop-color="white" stop-opacity="0.44"/>
            <stop offset="0.678717" stop-color="white" stop-opacity="0.83"/>
        </linearGradient>
        <linearGradient id="paint3_linear_136_13" x1="137.733" y1="-53.2185" x2="140.164" y2="98.9287" gradientUnits="userSpaceOnUse">
            <stop offset="0.334586" stop-color="#FBFDFF" stop-opacity="0.75"/>
            <stop offset="1" stop-color="#5096C4" stop-opacity="0.92"/>
        </linearGradient>
    </defs>
<path d="M47.2814 78.1268L39.594 98.8331L31.3841 78.1268H23.1369L14.9644 98.7955L7.23962 78.1268H0L10.2997 104.432H19.5544L27.2792 84.628L34.9666 104.432H44.2587L54.5584 78.1268H47.2814Z" fill="white"/>
<path d="M56.6047 74.3688V79.9682H62.986V74.3688H56.6047ZM56.6047 82.2981V104.432H62.986V82.2981H56.6047Z" fill="white"/>
<path d="M65.4152 96.6534C65.4152 103.718 73.2519 104.808 81.723 104.808C90.1941 104.808 95.7917 103.718 95.7917 97.4802C95.7917 91.5802 89.9329 91.3547 81.3498 90.7159C73.7743 90.1522 72.6175 89.9267 72.6175 88.5363C72.6175 87.2586 74.3341 86.8076 80.3795 86.8076C86.313 86.8076 88.6267 87.2586 88.6267 89.1H95.0454C95.0454 83.0121 89.0372 81.9223 80.7527 81.9223C72.916 81.9223 66.1988 83.0121 66.1988 88.7993C66.1988 94.1356 70.9382 94.8872 80.6035 95.4509C88.3282 95.9394 89.3731 96.0522 89.3731 97.7432C89.3731 99.4719 88.2536 99.9229 81.3498 99.9229C74.2221 99.9229 71.7965 99.0209 71.7965 96.6534H65.4152Z" fill="white"/>
<path d="M121.701 74.3688V85.7554C119.312 83.2376 115.469 81.9223 110.729 81.9223C103.676 81.9223 97.6308 84.9287 97.6308 93.384C97.6308 101.839 103.676 104.808 110.729 104.808C115.469 104.808 119.312 103.493 121.701 100.975V104.432H128.082V74.3688H121.701ZM112.856 99.4343C107.147 99.4343 104.049 97.7432 104.049 93.384C104.049 88.9872 107.147 87.2962 112.856 87.2962C118.566 87.2962 121.701 88.9872 121.701 93.384C121.701 97.7432 118.566 99.4343 112.856 99.4343Z" fill="white"/>
<path d="M145.728 104.808C154.796 104.808 160.954 101.501 160.954 93.384C160.954 85.2293 154.796 81.9223 145.728 81.9223C136.622 81.9223 130.502 85.2293 130.502 93.384C130.502 101.501 136.622 104.808 145.728 104.808ZM145.728 99.4343C139.794 99.4343 136.884 97.9687 136.884 93.384C136.884 88.7618 139.794 87.2962 145.728 87.2962C151.624 87.2962 154.535 88.7618 154.535 93.384C154.535 97.9687 151.624 99.4343 145.728 99.4343Z" fill="white"/>
<path d="M201.521 81.9223C196.073 81.9223 192.155 83.8389 189.318 85.9809C187.639 82.8994 184.504 81.9223 181.183 81.9223C175.735 81.9223 172.152 83.9892 169.764 85.9057V82.2981H163.383V104.432H169.764V91.3923C171.593 89.4006 175.175 87.4841 178.87 87.4841C183.422 87.4841 184.206 89.9267 184.206 94.6242V104.432H190.587L190.662 92.0312C190.662 91.6178 190.662 91.242 190.625 90.8662C192.565 89.1 195.849 87.4841 199.208 87.4841C203.76 87.4841 204.544 89.9267 204.544 94.6242V104.432H210.925L211 92.0312C210.925 84.0267 206.447 81.9223 201.521 81.9223Z" fill="white"/>
<path d="M97.6746 50.4363C87.5447 46.462 78.8463 39.5295 72.7122 30.5416C66.5781 21.5536 63.2925 10.9269 63.2834 0.0452795L117.463 0L97.6746 50.4363Z" fill="url(#paint0_linear_136_13)" fill-opacity="0.9"/>
<path d="M128.103 50.4363C117.966 46.4592 109.263 39.5197 103.128 30.5229C96.9932 21.526 93.7119 10.8893 93.7119 0L147.891 8.63733e-06L128.103 50.4363Z" fill="url(#paint1_linear_136_13)"/>
<path fill-rule="evenodd" clip-rule="evenodd" d="M93.7117 0.0198493L117.462 0L104.653 32.6481C104.129 31.9533 103.62 31.2447 103.128 30.5228C96.9967 21.5315 93.7157 10.9023 93.7117 0.0198493Z" fill="white" fill-opacity="0.78"/>
<g opacity="0.7">
<path d="M97.6746 50.4363C87.5447 46.462 78.8463 39.5295 72.7122 30.5416C66.5781 21.5536 63.2925 10.9269 63.2834 0.0452795L117.463 0L97.6746 50.4363Z" fill="url(#paint2_linear_136_13)" fill-opacity="0.9"/>
<path d="M128.103 50.4363C117.966 46.4592 109.263 39.5197 103.128 30.5229C96.9932 21.526 93.7119 10.8893 93.7119 0L147.891 8.63733e-06L128.103 50.4363Z" fill="url(#paint3_linear_136_13)"/>
<path fill-rule="evenodd" clip-rule="evenodd" d="M93.7117 0.0198493L117.462 0L104.653 32.6481C104.129 31.9533 103.62 31.2447 103.128 30.5228C96.9967 21.5315 93.7157 10.9023 93.7117 0.0198493Z" fill="white" fill-opacity="0.78"/>
</g>

</svg>
