<svg width="180" height="53" viewBox="0 0 180 53" fill="none" xmlns="http://www.w3.org/2000/svg">
    <defs>
        <linearGradient id="paint0_linear_7_2" x1="33.2567" y1="-40.2049" x2="48.6049" y2="40.2049" gradientUnits="userSpaceOnUse">
            <stop stop-color="#0063A4"/>
            <stop offset="1" stop-color="#0063A4" stop-opacity="0.71"/>
        </linearGradient>
        <linearGradient id="paint1_linear_7_2" x1="56.2444" y1="-40.2049" x2="71.5926" y2="40.2049" gradientUnits="userSpaceOnUse">
            <stop stop-color="#0063A4" stop-opacity="0.67"/>
            <stop offset="1" stop-color="#0063A4" stop-opacity="0.92"/>
        </linearGradient>
    </defs>
<path d="M25.9815 38.1031C18.3287 35.1006 11.7573 29.8633 7.12314 23.0732C2.489 16.2831 0.00687036 8.25494 0 0.0342073L40.9307 0L25.9815 38.1031Z" fill="url(#paint0_linear_7_2)" fill-opacity="0.9"/>
<path d="M48.9693 38.1031C41.311 35.0985 34.7359 29.8559 30.1013 23.0591C25.4667 16.2622 22.9878 8.22657 22.9878 0L63.9185 6.52523e-06L48.9693 38.1031Z" fill="url(#paint1_linear_7_2)"/>
<path d="M61.115 13.9006V18.182H66.0286V13.9006H61.115ZM61.115 19.9636V36.8883H66.0286V19.9636H61.115Z" fill="#0063A4"/>
<path d="M67.8991 30.9403C67.8991 36.3424 73.9334 37.1757 80.4561 37.1757C86.9789 37.1757 91.2891 36.3424 91.2891 31.5724C91.2891 27.0611 86.7778 26.8887 80.1688 26.4002C74.3356 25.9691 73.4449 25.7967 73.4449 24.7336C73.4449 23.7566 74.7667 23.4118 79.4217 23.4118C83.9905 23.4118 85.7721 23.7566 85.7721 25.1646H90.7144C90.7144 20.5096 86.0881 19.6762 79.709 19.6762C73.6747 19.6762 68.5025 20.5096 68.5025 24.9347C68.5025 29.015 72.1518 29.5897 79.5941 30.0207C85.5422 30.3943 86.3468 30.4805 86.3468 31.7736C86.3468 33.0954 85.4847 33.4402 80.1688 33.4402C74.6805 33.4402 72.8127 32.7505 72.8127 30.9403H67.8991Z" fill="#0063A4"/>
<path d="M111.239 13.9006V22.6072C109.4 20.682 106.44 19.6762 102.791 19.6762C97.3602 19.6762 92.7052 21.975 92.7052 28.4403C92.7052 34.9056 97.3602 37.1757 102.791 37.1757C106.44 37.1757 109.4 36.17 111.239 34.2447V36.8883H116.153V13.9006H111.239ZM104.429 33.0666C100.033 33.0666 97.6476 31.7736 97.6476 28.4403C97.6476 25.0784 100.033 23.7853 104.429 23.7853C108.825 23.7853 111.239 25.0784 111.239 28.4403C111.239 31.7736 108.825 33.0666 104.429 33.0666Z" fill="#0063A4"/>
<path d="M129.74 37.1757C136.723 37.1757 141.464 34.647 141.464 28.4403C141.464 22.2049 136.723 19.6762 129.74 19.6762C122.729 19.6762 118.016 22.2049 118.016 28.4403C118.016 34.647 122.729 37.1757 129.74 37.1757ZM129.74 33.0666C125.171 33.0666 122.93 31.946 122.93 28.4403C122.93 24.906 125.171 23.7853 129.74 23.7853C134.28 23.7853 136.522 24.906 136.522 28.4403C136.522 31.946 134.28 33.0666 129.74 33.0666Z" fill="#0063A4"/>
<path d="M172.701 19.6762C168.506 19.6762 165.489 21.1417 163.305 22.7796C162.012 20.4234 159.598 19.6762 157.041 19.6762C152.846 19.6762 150.087 21.2567 148.248 22.7221V19.9636H143.334V36.8883H148.248V26.9174C149.656 25.3945 152.415 23.929 155.259 23.929C158.765 23.929 159.368 25.7967 159.368 29.3886V36.8883H164.282L164.339 27.4059C164.339 27.0898 164.339 26.8025 164.311 26.5151C165.805 25.1646 168.334 23.929 170.92 23.929C174.425 23.929 175.029 25.7967 175.029 29.3886V36.8883H179.942L180 27.4059C179.942 21.2854 176.494 19.6762 172.701 19.6762Z" fill="#0063A4"/>
<path d="M32.7992 43.6411V46.2531C32.2475 45.6755 31.3596 45.3738 30.2648 45.3738C28.6355 45.3738 27.239 46.0634 27.239 48.003C27.239 49.9426 28.6355 50.6236 30.2648 50.6236C31.3596 50.6236 32.2475 50.3219 32.7992 49.7444V50.5374H34.2733V43.6411H32.7992ZM30.7561 49.3909C29.4372 49.3909 28.7217 49.003 28.7217 48.003C28.7217 46.9945 29.4372 46.6065 30.7561 46.6065C32.0751 46.6065 32.7992 46.9945 32.7992 48.003C32.7992 49.003 32.0751 49.3909 30.7561 49.3909Z" fill="#3F86B5"/>
<path d="M45.1328 43.6411V44.9256H46.6069V43.6411H45.1328ZM45.1328 45.46V50.5374H46.6069V45.46H45.1328Z" fill="#3F86B5"/>
<path d="M57.3401 48.003C57.3401 49.865 58.7538 50.6236 60.8572 50.6236C62.7537 50.6236 64.0899 50.003 64.3312 48.5116H62.8227C62.6244 49.1668 61.9261 49.3909 60.8572 49.3909C59.59 49.3909 58.8142 49.0547 58.8142 48.003C58.8142 46.9427 59.59 46.6065 60.8572 46.6065C61.9261 46.6065 62.6244 46.8307 62.8227 47.4858H64.3312C64.0899 45.9945 62.7537 45.3738 60.8572 45.3738C58.7538 45.3738 57.3401 46.1324 57.3401 48.003Z" fill="#3F86B5"/>
<path d="M79.8328 46.6927V45.46H77.4277V43.9859L75.945 44.4083V45.46H74.6088V46.6927H75.945V49.0116C75.945 50.1323 76.7898 50.6236 78.1001 50.6236C78.7811 50.6236 79.3414 50.5805 79.8328 50.4943V49.3047C79.238 49.3909 78.9794 49.3909 78.5139 49.3909C77.6174 49.3909 77.4277 49.1409 77.4277 48.1582V46.6927H79.8328Z" fill="#3F86B5"/>
<path d="M90.6085 43.6411V44.9256H92.0825V43.6411H90.6085ZM90.6085 45.46V50.5374H92.0825V45.46H90.6085Z" fill="#3F86B5"/>
<path d="M106.333 50.6236C108.428 50.6236 109.85 49.865 109.85 48.003C109.85 46.1324 108.428 45.3738 106.333 45.3738C104.23 45.3738 102.816 46.1324 102.816 48.003C102.816 49.865 104.23 50.6236 106.333 50.6236ZM106.333 49.3909C104.962 49.3909 104.29 49.0547 104.29 48.003C104.29 46.9427 104.962 46.6065 106.333 46.6065C107.695 46.6065 108.367 46.9427 108.367 48.003C108.367 49.0547 107.695 49.3909 106.333 49.3909Z" fill="#3F86B5"/>
<path d="M125.014 45.3738C123.781 45.3738 122.781 45.779 122.057 46.3479V45.46H120.583V50.5374H122.057V47.6927C122.514 47.1582 123.583 46.6496 124.574 46.6496C125.79 46.6496 126.152 47.21 126.152 48.2875V50.5374H127.635L127.652 47.7272C127.635 45.8566 126.368 45.3738 125.014 45.3738Z" fill="#3F86B5"/>
<path d="M141.873 45.3738C140.812 45.3738 139.795 45.5635 138.761 45.8997L139.287 46.9772C140.33 46.6669 141.14 46.6065 141.804 46.6065C142.493 46.6065 143.735 46.6841 143.735 47.6496C143.071 47.4255 142.269 47.2875 141.398 47.2875C139.786 47.2875 138.338 47.7013 138.338 49.0202C138.338 50.1668 139.226 50.6236 140.649 50.6236C141.847 50.6236 142.838 50.3478 143.735 49.9082V50.5374H145.217V47.9772C145.2 46.0548 143.993 45.3738 141.873 45.3738ZM143.735 48.9599C142.976 49.2875 141.873 49.5375 141.071 49.5375C140.304 49.5375 139.812 49.4944 139.812 48.9599C139.812 48.4427 140.476 48.253 141.58 48.253C142.519 48.253 143.217 48.3996 143.735 48.5634V48.9599Z" fill="#3F86B5"/>
<path d="M160.124 45.3738C159.176 45.3738 158.279 45.641 157.521 46.3221V45.46H156.047V50.5374H157.521V47.4944C158.417 46.7962 159.366 46.6065 160.193 46.6065C160.624 46.6065 161.012 46.6583 161.495 46.7789V45.5462C161.15 45.46 160.728 45.3738 160.124 45.3738Z" fill="#3F86B5"/>
<path d="M177.776 45.46L175.794 49.6495L173.621 45.46H171.983L174.613 50.5374H175.371L174.345 52.6925H175.975L179.406 45.46H177.776Z" fill="#3F86B5"/>

</svg>
