<svg width="20" height="20" viewBox="0 0 20 20" fill="none" xmlns="http://www.w3.org/2000/svg">
<path d="M10 18.275C5.8 18.275 2.375 14.8583 2.375 10.65V9.08333C2.375 8.75833 2.64167 8.5 2.95833 8.5C3.275 8.5 3.54167 8.76667 3.54167 9.08333V10.65C3.54167 14.2083 6.43333 17.1 9.99167 17.1C13.55 17.1 16.4417 14.2083 16.4417 10.65V9.08333C16.4417 8.75833 16.7083 8.5 17.025 8.5C17.3417 8.5 17.6083 8.76667 17.6083 9.08333V10.65C17.625 14.8583 14.2 18.275 10 18.275Z" fill="#0063A4"/>
<path d="M10.0003 1.66669C7.20033 1.66669 4.91699 3.95002 4.91699 6.75002V10.6584C4.91699 13.4584 7.20033 15.7417 10.0003 15.7417C12.8003 15.7417 15.0837 13.4584 15.0837 10.6584V6.75002C15.0837 3.95002 12.8003 1.66669 10.0003 1.66669ZM11.817 8.82502C11.7587 9.05002 11.5503 9.20002 11.3253 9.20002C11.2837 9.20002 11.2337 9.19169 11.192 9.18335C10.342 8.95002 9.44199 8.95002 8.59199 9.18335C8.31699 9.25835 8.04199 9.10002 7.96699 8.82502C7.89199 8.55835 8.05032 8.27502 8.32532 8.20002C9.35032 7.91669 10.4337 7.91669 11.4587 8.20002C11.7337 8.27502 11.892 8.55002 11.817 8.82502ZM12.5253 6.51669C12.4503 6.72502 12.2587 6.85002 12.0503 6.85002C11.992 6.85002 11.9337 6.84169 11.8753 6.81669C10.6003 6.35002 9.20032 6.35002 7.92532 6.81669C7.65866 6.91669 7.36699 6.78335 7.26699 6.51669C7.17533 6.25835 7.30866 5.96669 7.57533 5.86669C9.07532 5.32502 10.7253 5.32502 12.217 5.86669C12.4837 5.96669 12.617 6.25835 12.5253 6.51669Z" fill="#0063A4"/>
</svg>
