<svg width="4" height="17" viewBox="0 0 4 17" fill="none" xmlns="http://www.w3.org/2000/svg">
<path d="M3.11988 15.1825C3.11988 15.5558 2.99322 15.8758 2.73988 16.1425C2.47322 16.4092 2.13988 16.5425 1.73988 16.5425C1.35322 16.5425 1.03322 16.4092 0.779883 16.1425C0.513216 15.8758 0.379883 15.5558 0.379883 15.1825C0.379883 14.8092 0.50655 14.4958 0.759883 14.2425C1.01322 13.9892 1.33988 13.8625 1.73988 13.8625C2.13988 13.8625 2.47322 13.9958 2.73988 14.2625C2.99322 14.5158 3.11988 14.8225 3.11988 15.1825Z" fill="white"/>
<path d="M3.11988 8.25125C3.11988 8.62458 2.99322 8.94458 2.73988 9.21125C2.47322 9.47792 2.13988 9.61125 1.73988 9.61125C1.35322 9.61125 1.03322 9.47792 0.779883 9.21125C0.513216 8.94458 0.379883 8.62458 0.379883 8.25125C0.379883 7.87792 0.50655 7.56458 0.759883 7.31125C1.01322 7.05792 1.33988 6.93125 1.73988 6.93125C2.13988 6.93125 2.47322 7.06458 2.73988 7.33125C2.99322 7.58458 3.11988 7.89125 3.11988 8.25125Z" fill="white"/>
<path d="M3.11988 1.32C3.11988 1.69333 2.99322 2.01333 2.73988 2.28C2.47322 2.54667 2.13988 2.68 1.73988 2.68C1.35322 2.68 1.03322 2.54667 0.779883 2.28C0.513216 2.01333 0.379883 1.69333 0.379883 1.32C0.379883 0.946667 0.50655 0.633333 0.759883 0.38C1.01322 0.126667 1.33988 0 1.73988 0C2.13988 0 2.47322 0.133333 2.73988 0.4C2.99322 0.653333 3.11988 0.96 3.11988 1.32Z" fill="white"/>
</svg>
