<svg width="20" height="21" viewBox="0 0 20 21" fill="none" xmlns="http://www.w3.org/2000/svg">
<path d="M6.90833 5.74166C6.55833 5.74166 6.28333 5.45833 6.28333 5.11666V2.79166C6.28333 2.45 6.55833 2.16666 6.90833 2.16666C7.25833 2.16666 7.53333 2.45 7.53333 2.79166V5.10833C7.53333 5.45833 7.25833 5.74166 6.90833 5.74166Z" fill="#0063A4"/>
<path d="M13.0917 5.74166C12.7417 5.74166 12.4667 5.45833 12.4667 5.11666V2.79166C12.4667 2.44166 12.75 2.16666 13.0917 2.16666C13.4417 2.16666 13.7167 2.45 13.7167 2.79166V5.10833C13.7167 5.45833 13.4417 5.74166 13.0917 5.74166Z" fill="#0063A4"/>
<path d="M16.3084 4.25C15.7584 3.84166 14.9667 4.23333 14.9667 4.925V5.00833C14.9667 5.98333 14.2667 6.88333 13.2917 6.98333C12.1667 7.1 11.2167 6.21666 11.2167 5.11666V4.25C11.2167 3.79166 10.8417 3.41666 10.3834 3.41666H9.61671C9.15837 3.41666 8.78337 3.79166 8.78337 4.25V5.11666C8.78337 5.775 8.44171 6.35833 7.92504 6.68333C7.85004 6.73333 7.76671 6.775 7.68337 6.81666C7.60837 6.85833 7.52504 6.89166 7.43337 6.91666C7.33337 6.95 7.22504 6.975 7.10837 6.98333C6.97504 7 6.84171 7 6.70837 6.98333C6.59171 6.975 6.48337 6.95 6.38337 6.91666C6.30004 6.89166 6.21671 6.85833 6.13337 6.81666C6.05004 6.775 5.96671 6.73333 5.89171 6.68333C5.36671 6.31666 5.03337 5.68333 5.03337 5.00833V4.925C5.03337 4.28333 4.35004 3.9 3.80837 4.175C3.80004 4.18333 3.79171 4.18333 3.78337 4.19166C3.75004 4.20833 3.72504 4.225 3.69171 4.25C3.66671 4.275 3.63337 4.29166 3.60837 4.31666C3.37504 4.5 3.16671 4.70833 2.99171 4.93333C2.90004 5.03333 2.82504 5.14166 2.75837 5.25C2.75004 5.25833 2.74171 5.26666 2.73337 5.28333C2.65837 5.39166 2.59171 5.51666 2.53337 5.63333C2.51671 5.65 2.50837 5.65833 2.50837 5.675C2.45837 5.775 2.40837 5.875 2.37504 5.98333C2.35004 6.025 2.34171 6.05833 2.32504 6.1C2.27504 6.225 2.24171 6.35 2.20837 6.475C2.17504 6.59166 2.15004 6.71666 2.13337 6.84166C2.11671 6.93333 2.10837 7.025 2.10004 7.125C2.09171 7.24166 2.08337 7.35833 2.08337 7.475V14.775C2.08337 17.0167 3.90004 18.8333 6.14171 18.8333H13.8584C16.1 18.8333 17.9167 17.0167 17.9167 14.775V7.475C17.9167 6.15 17.2834 4.99166 16.3084 4.25ZM10 15.0167H6.13337C5.79171 15.0167 5.50837 14.7333 5.50837 14.3917C5.50837 14.0417 5.79171 13.7583 6.13337 13.7583H10C10.35 13.7583 10.625 14.0417 10.625 14.3917C10.625 14.7333 10.35 15.0167 10 15.0167ZM12.3167 11.925H6.13337C5.79171 11.925 5.50837 11.6417 5.50837 11.3C5.50837 10.95 5.79171 10.6667 6.13337 10.6667H12.3167C12.6667 10.6667 12.95 10.95 12.95 11.3C12.95 11.6417 12.6667 11.925 12.3167 11.925Z" fill="#0063A4"/>
</svg>
