<svg width="115" height="99" viewBox="0 0 115 99" fill="none" xmlns="http://www.w3.org/2000/svg">
<path d="M66.0079 4.20892C82.1151 -4.37968 112.877 1.05378 112.877 29.9627C112.877 68.3081 58.7552 95.3877 56.5009 96.5C54.2442 95.3877 0.123535 68.3081 0.123535 29.9627C0.123535 1.20439 30.5669 -4.3224 46.7399 4.07671L41.054 21.698L50.1659 21.1514L41.7913 36.0191L52.9323 35.1473L48.6905 48.5004L59.3034 81.5778L60.6474 51.4264L67.8719 31.2419L59.6208 31.6803L70.5646 17.6844L58.2808 18.2218L66.0079 4.20892Z" fill="url(#paint0_linear_534_13334)"/>
<path d="M80.2165 54.1598L79.5619 53.239C79.7525 53.0483 79.9213 52.8361 80.0647 52.6063C80.3125 52.209 80.4797 51.7668 80.5567 51.3049C80.6337 50.843 80.619 50.3705 80.5133 49.9143L79.5391 50.1399L80.5133 49.9143C80.4077 49.4581 80.2132 49.0272 79.9411 48.6461C79.6689 48.2651 79.3243 47.9414 78.927 47.6935L78.4114 48.52L78.927 47.6935C78.5298 47.4456 78.0876 47.2784 77.6257 47.2014C77.1638 47.1245 76.6912 47.1392 76.235 47.2448L76.4606 48.2191L76.235 47.2448C75.7792 47.3504 75.3485 47.5447 74.9677 47.8165C74.9674 47.8167 74.9671 47.8169 74.9669 47.8171L70.7527 50.8131L70.7509 50.8144C70.3698 51.0866 70.0461 51.4312 69.7982 51.8284L70.6206 52.3416L69.7982 51.8284C69.5504 52.2257 69.3831 52.6679 69.3062 53.1298L70.2826 53.2926L69.3062 53.1298C69.2292 53.5917 69.2439 54.0643 69.3496 54.5204C69.4552 54.9766 69.6497 55.4076 69.9218 55.7886C70.194 56.1697 70.5386 56.4934 70.9358 56.7412C71.3331 56.9891 71.7753 57.1563 72.2372 57.2333C72.6991 57.3103 73.1717 57.2955 73.6279 57.1899L73.4023 56.2157L73.6279 57.1899C73.8774 57.1321 74.1194 57.0478 74.3498 56.9386L75.0069 57.8629C72.6709 60.0725 70.8143 62.7587 69.5728 65.7559C67.8351 69.951 67.3805 74.5672 68.2663 79.0207C69.1522 83.4741 71.3388 87.5649 74.5495 90.7757C77.7603 93.9865 81.8511 96.1731 86.3046 97.0589C90.7581 97.9448 95.3742 97.4901 99.5693 95.7524C103.764 94.0148 107.35 91.0722 109.873 87.2967C112.395 83.5212 113.742 79.0824 113.742 74.5417C113.742 68.4528 111.323 62.6132 107.018 58.3077C106.867 58.1575 106.715 58.0097 106.562 57.8641L107.216 56.9439C107.445 57.0546 107.685 57.1407 107.934 57.2004C108.393 57.3107 108.869 57.3287 109.335 57.2533C109.801 57.178 110.247 57.0107 110.648 56.7614C111.049 56.512 111.396 56.1855 111.669 55.8007C111.943 55.416 112.137 54.9808 112.241 54.5203C112.345 54.0598 112.356 53.5833 112.274 53.1185C112.192 52.6537 112.018 52.2097 111.763 51.8126C111.508 51.4154 111.177 51.0729 110.788 50.8049L110.34 50.4963L110.17 50.3791L110.12 50.3448L110.11 50.338L106.602 47.8187L106.595 47.8131L106.587 47.8076C105.816 47.2764 104.868 47.0697 103.946 47.2323C103.024 47.3948 102.204 47.9136 101.662 48.6764C101.119 49.4392 100.899 50.3847 101.049 51.3086C101.166 52.0371 101.507 52.706 102.016 53.2275L101.352 54.1606C99.1623 53.0251 96.7967 52.2462 94.3453 51.8612V49.9237L95.5412 49.9237C96.4858 49.9237 97.3918 49.5484 98.0597 48.8804L97.377 48.1977L98.0597 48.8804C98.7277 48.2125 99.103 47.3065 99.103 46.3619C99.103 45.4172 98.7277 44.5112 98.0597 43.8433L98.0597 43.8433C97.3918 43.1753 96.4858 42.8 95.5412 42.8H86.0259C85.0812 42.8 84.1753 43.1753 83.5073 43.8433C82.8393 44.5112 82.4641 45.4172 82.4641 46.3619C82.4641 47.3065 82.8393 48.2125 83.5073 48.8804C84.1753 49.5484 85.0812 49.9237 86.0259 49.9237L87.2217 49.9237V51.8613C84.7804 52.2447 82.4144 53.0203 80.2165 54.1598ZM102.807 63.1449C103.449 63.822 104.035 64.5551 104.558 65.3378C106.379 68.0621 107.35 71.2651 107.35 74.5417C107.35 78.9355 105.605 83.1493 102.498 86.2561C99.3911 89.363 95.1773 91.1084 90.7835 91.1084C87.507 91.1084 84.304 90.1368 81.5796 88.3164C78.8552 86.496 76.7318 83.9087 75.4779 80.8815C74.224 77.8543 73.896 74.5233 74.5352 71.3097C75.1457 68.2406 76.6123 65.4102 78.7611 63.1437L88.1795 76.3917L88.7589 77.2067L89.5739 76.6273L90.7841 75.7669L91.995 76.6277L92.81 77.2072L93.3895 76.3921L102.807 63.1449ZM97.1233 59.2361C97.2828 59.3021 97.441 59.3706 97.5979 59.4414L90.7846 69.0251L83.9708 59.4407C85.1112 58.9262 86.3119 58.5399 87.5515 58.2934C90.7652 57.6541 94.0962 57.9822 97.1233 59.2361Z" fill="url(#paint1_linear_534_13334)" stroke="white" stroke-width="2"/>
<path d="M86.0257 48.9237H95.541C96.2204 48.9237 96.872 48.6538 97.3524 48.1733C97.8329 47.6929 98.1028 47.0413 98.1028 46.3619C98.1028 45.6824 97.8329 45.0308 97.3524 44.5504C96.872 44.07 96.2204 43.8 95.541 43.8H86.0257C85.3462 43.8 84.6946 44.07 84.2142 44.5504C83.7338 45.0308 83.4639 45.6824 83.4639 46.3619C83.4639 47.0413 83.7338 47.6929 84.2142 48.1733C84.6946 48.6538 85.3462 48.9237 86.0257 48.9237Z" fill="url(#paint2_linear_534_13334)"/>
<path d="M76.2566 50.3152L72.6772 52.8599L88.9947 75.8123L92.574 73.2677L76.2566 50.3152Z" fill="#0063A4"/>
<path d="M105.313 50.3156L88.9951 73.2681L92.5744 75.8127L108.892 52.8603L105.313 50.3156Z" fill="#0063A4"/>
<path d="M109.758 51.3038L106.019 48.6308C105.465 48.2487 104.783 48.1 104.12 48.2169C103.457 48.3339 102.867 48.707 102.477 49.2556C102.087 49.8043 101.928 50.4843 102.036 51.1488C102.143 51.8133 102.508 52.4088 103.051 52.8065L107.252 55.8038C107.526 56.0044 107.837 56.1486 108.167 56.228C108.497 56.3073 108.84 56.3203 109.175 56.2661C109.51 56.2118 109.831 56.0916 110.12 55.9122C110.408 55.7329 110.658 55.498 110.854 55.2213C111.051 54.9446 111.191 54.6315 111.265 54.3003C111.34 53.9691 111.348 53.6264 111.289 53.2921C111.23 52.9578 111.105 52.6385 110.922 52.3528C110.738 52.0672 110.5 51.8208 110.22 51.6281L109.758 51.3038Z" fill="url(#paint3_linear_534_13334)"/>
<path d="M75.5483 48.6308L71.3323 51.6281C71.0581 51.8239 70.8252 52.0718 70.6468 52.3577C70.4684 52.6436 70.3481 52.9618 70.2927 53.2941C70.2373 53.6265 70.2479 53.9665 70.324 54.2948C70.4 54.623 70.5399 54.9331 70.7357 55.2073C70.9316 55.4815 71.1795 55.7144 71.4654 55.8927C71.7512 56.0711 72.0694 56.1914 72.4018 56.2468C72.7342 56.3022 73.0742 56.2916 73.4024 56.2156C73.7307 56.1396 74.0408 55.9997 74.3149 55.8038L78.5309 52.8065C78.8051 52.6107 79.0381 52.3627 79.2164 52.0769C79.3948 51.791 79.5151 51.4728 79.5705 51.1404C79.6259 50.8081 79.6153 50.4681 79.5393 50.1398C79.4632 49.8115 79.3233 49.5015 79.1275 49.2273C78.9316 48.9531 78.6837 48.7202 78.3978 48.5418C78.112 48.3635 77.7938 48.2431 77.4614 48.1877C77.1291 48.1323 76.789 48.143 76.4608 48.219C76.1325 48.295 75.8225 48.4349 75.5483 48.6308Z" fill="url(#paint4_linear_534_13334)"/>
<path d="M93.3453 48.9236H88.2217V54.0472H93.3453V48.9236Z" fill="#0063A4"/>
<path d="M90.7837 92.4744C100.688 92.4744 108.716 84.4457 108.716 74.5418C108.716 64.6378 100.688 56.6091 90.7837 56.6091C80.8798 56.6091 72.8511 64.6378 72.8511 74.5418C72.8511 84.4457 80.8798 92.4744 90.7837 92.4744Z" fill="white"/>
<path opacity="0.2" d="M74.6807 76.0057C74.6809 72.5315 75.7112 69.1353 77.6415 66.2466C79.5718 63.3579 82.3153 61.1065 85.525 59.777C88.7348 58.4475 92.2668 58.0996 95.6743 58.7773C99.0818 59.4551 102.212 61.128 104.668 63.5846L107.41 60.8435C103.435 56.8727 98.3116 54.0474 92.2474 54.0474C86.4237 54.0474 80.8385 56.3608 76.7205 60.4788C72.6025 64.5968 70.2891 70.182 70.2891 76.0057C70.2891 82.0699 73.1144 87.1935 77.0852 91.1679L79.8263 88.4268C78.1926 86.7975 76.897 84.8614 76.014 82.7297C75.1309 80.5981 74.6778 78.313 74.6807 76.0057Z" fill="#D92B53"/>
<path d="M90.7835 52.5833C86.4406 52.5833 82.1952 53.8711 78.5841 56.2839C74.9731 58.6967 72.1587 62.1261 70.4967 66.1385C68.8347 70.1509 68.3999 74.566 69.2471 78.8255C70.0944 83.085 72.1857 86.9976 75.2567 90.0685C78.3276 93.1394 82.2402 95.2307 86.4997 96.078C90.7592 96.9253 95.1743 96.4904 99.1866 94.8285C103.199 93.1665 106.628 90.352 109.041 86.741C111.454 83.13 112.742 78.8845 112.742 74.5416C112.742 68.7179 110.428 63.1327 106.31 59.0147C102.192 54.8967 96.6073 52.5833 90.7835 52.5833ZM90.7835 92.1083C87.3092 92.1083 83.9128 91.078 81.024 89.1477C78.1352 87.2175 75.8836 84.474 74.5541 81.2641C73.2245 78.0542 72.8766 74.5221 73.5544 71.1145C74.2322 67.7069 75.9053 64.5768 78.362 62.1201C80.8188 59.6633 83.9489 57.9903 87.3565 57.3125C90.7641 56.6346 94.2961 56.9825 97.506 58.3121C100.716 59.6417 103.459 61.8932 105.39 64.7821C107.32 67.6709 108.35 71.0672 108.35 74.5416C108.35 79.2006 106.499 83.6687 103.205 86.9631C99.9107 90.2575 95.4425 92.1083 90.7835 92.1083Z" fill="url(#paint5_linear_534_13334)"/>
<path d="M90.7835 60.2688C88.4365 60.2691 86.1258 60.8483 84.056 61.9549C81.9862 63.0615 80.2212 64.6615 78.9175 66.6131C77.6137 68.5647 76.8113 70.8077 76.5814 73.1435C76.3514 75.4792 76.7011 77.8356 77.5993 80.004C78.4975 82.1724 79.9166 84.0858 81.7309 85.5747C83.5451 87.0637 85.6986 88.0823 88.0005 88.5403C90.3025 88.9983 92.6818 88.8815 94.9278 88.2004C97.1739 87.5192 99.2173 86.2947 100.877 84.6352L90.7835 74.5417V60.2688Z" fill="url(#paint6_linear_534_13334)"/>
<path d="M99.8412 85.0634C99.6489 85.0635 99.4584 85.0258 99.2807 84.9523C99.103 84.8788 98.9415 84.7711 98.8055 84.6352L86.0623 71.892C85.9263 71.756 85.8184 71.5945 85.7448 71.4168C85.6712 71.2391 85.6333 71.0487 85.6333 70.8563C85.6333 70.664 85.6712 70.4735 85.7448 70.2958C85.8184 70.1181 85.9263 69.9566 86.0623 69.8206C86.337 69.5459 86.7095 69.3916 87.098 69.3916C87.2904 69.3916 87.4808 69.4295 87.6585 69.5031C87.8362 69.5767 87.9977 69.6846 88.1337 69.8206L100.877 82.5638C101.082 82.7685 101.221 83.0294 101.278 83.3136C101.335 83.5977 101.306 83.8922 101.195 84.1598C101.084 84.4275 100.896 84.6562 100.655 84.817C100.414 84.9778 100.131 85.0636 99.8412 85.0634Z" fill="#0063A4"/>
<path d="M90.7835 77.8355C92.6026 77.8355 94.0772 76.3609 94.0772 74.5418C94.0772 72.7227 92.6026 71.248 90.7835 71.248C88.9644 71.248 87.4897 72.7227 87.4897 74.5418C87.4897 76.3609 88.9644 77.8355 90.7835 77.8355Z" fill="url(#paint7_linear_534_13334)"/>
<defs>
<linearGradient id="paint0_linear_534_13334" x1="56.5001" y1="-7.99007" x2="56.5001" y2="108.53" gradientUnits="userSpaceOnUse">
<stop stop-color="#E40000"/>
<stop offset="1" stop-color="#FF7878"/>
</linearGradient>
<linearGradient id="paint1_linear_534_13334" x1="68.8252" y1="74.5417" x2="112.742" y2="74.5417" gradientUnits="userSpaceOnUse">
<stop stop-color="#FFA280"/>
<stop offset="1" stop-color="#D92B53"/>
</linearGradient>
<linearGradient id="paint2_linear_534_13334" x1="83.4639" y1="46.3619" x2="98.1028" y2="46.3619" gradientUnits="userSpaceOnUse">
<stop stop-color="#FFCE89"/>
<stop offset="1" stop-color="#EB6F3D"/>
</linearGradient>
<linearGradient id="paint3_linear_534_13334" x1="101.975" y1="52.2173" x2="111.315" y2="52.2173" gradientUnits="userSpaceOnUse">
<stop stop-color="#FFCE89"/>
<stop offset="1" stop-color="#EB6F3D"/>
</linearGradient>
<linearGradient id="paint4_linear_534_13334" x1="70.2527" y1="52.2173" x2="79.5923" y2="52.2173" gradientUnits="userSpaceOnUse">
<stop stop-color="#FFCE89"/>
<stop offset="1" stop-color="#EB6F3D"/>
</linearGradient>
<linearGradient id="paint5_linear_534_13334" x1="68.8252" y1="74.5416" x2="112.742" y2="74.5416" gradientUnits="userSpaceOnUse">
<stop stop-color="#FFA280"/>
<stop offset="1" stop-color="#D92B53"/>
</linearGradient>
<linearGradient id="paint6_linear_534_13334" x1="76.5106" y1="74.5417" x2="100.877" y2="74.5417" gradientUnits="userSpaceOnUse">
<stop stop-color="#B2E9FF"/>
<stop offset="1" stop-color="#69A8EB"/>
</linearGradient>
<linearGradient id="paint7_linear_534_13334" x1="87.4897" y1="43.8001" x2="94.0772" y2="43.8001" gradientUnits="userSpaceOnUse">
<stop stop-color="#FFA280"/>
<stop offset="1" stop-color="#D92B53"/>
</linearGradient>
</defs>
</svg>
