<svg width="24" height="25" viewBox="0 0 24 25" fill="none" xmlns="http://www.w3.org/2000/svg">
<path d="M17.53 8.3256C17.46 8.3156 17.39 8.3156 17.32 8.3256C15.77 8.2756 14.54 7.0056 14.54 5.4456C14.54 3.8556 15.83 2.5556 17.43 2.5556C19.02 2.5556 20.32 3.8456 20.32 5.4456C20.31 7.0056 19.08 8.2756 17.53 8.3256Z" fill="#0063A4"/>
<path d="M20.79 15.2556C19.67 16.0056 18.1 16.2856 16.65 16.0956C17.03 15.2756 17.23 14.3656 17.24 13.4056C17.24 12.4056 17.02 11.4556 16.6 10.6256C18.08 10.4256 19.65 10.7056 20.78 11.4556C22.36 12.4956 22.36 14.2056 20.79 15.2556Z" fill="#0063A4"/>
<path d="M6.44003 8.3256C6.51003 8.3156 6.58003 8.3156 6.65003 8.3256C8.20003 8.2756 9.43003 7.0056 9.43003 5.4456C9.43003 3.8456 8.14003 2.5556 6.54003 2.5556C4.95003 2.5556 3.66003 3.8456 3.66003 5.4456C3.66003 7.0056 4.89003 8.2756 6.44003 8.3256Z" fill="#0063A4"/>
<path d="M6.55 13.4056C6.55 14.3756 6.75999 15.2956 7.14 16.1256C5.73 16.2756 4.26 15.9756 3.18 15.2656C1.6 14.2156 1.6 12.5056 3.18 11.4556C4.25 10.7356 5.75999 10.4456 7.18 10.6056C6.77 11.4456 6.55 12.3956 6.55 13.4056Z" fill="#0063A4"/>
<path d="M12.12 16.4256C12.04 16.4156 11.95 16.4156 11.86 16.4256C10.02 16.3656 8.55005 14.8556 8.55005 12.9956C8.56005 11.0956 10.09 9.5556 12 9.5556C13.9 9.5556 15.44 11.0956 15.44 12.9956C15.43 14.8556 13.97 16.3656 12.12 16.4256Z" fill="#0063A4"/>
<path d="M8.87005 18.4956C7.36005 19.5056 7.36005 21.1656 8.87005 22.1656C10.59 23.3156 13.41 23.3156 15.13 22.1656C16.64 21.1556 16.64 19.4956 15.13 18.4956C13.42 17.3456 10.6 17.3456 8.87005 18.4956Z" fill="#0063A4"/>
</svg>
