<svg width="24" height="25" viewBox="0 0 24 25" fill="none" xmlns="http://www.w3.org/2000/svg">
<path d="M12 2.5556C9.38 2.5556 7.25 4.6856 7.25 7.3056C7.25 9.8756 9.26 11.9556 11.88 12.0456C11.96 12.0356 12.04 12.0356 12.1 12.0456C12.12 12.0456 12.13 12.0456 12.15 12.0456C12.16 12.0456 12.16 12.0456 12.17 12.0456C14.73 11.9556 16.74 9.8756 16.75 7.3056C16.75 4.6856 14.62 2.5556 12 2.5556Z" fill="#0063A4"/>
<path d="M17.08 14.7056C14.29 12.8456 9.74002 12.8456 6.93002 14.7056C5.66002 15.5556 4.96002 16.7056 4.96002 17.9356C4.96002 19.1656 5.66002 20.3056 6.92002 21.1456C8.32002 22.0856 10.16 22.5556 12 22.5556C13.84 22.5556 15.68 22.0856 17.08 21.1456C18.34 20.2956 19.04 19.1556 19.04 17.9156C19.03 16.6856 18.34 15.5456 17.08 14.7056Z" fill="#0063A4"/>
</svg>
