<svg width="24" height="24" viewBox="0 0 24 24" fill="none" xmlns="http://www.w3.org/2000/svg">
<path d="M13.1199 19.1825C13.1199 19.5558 12.9932 19.8758 12.7399 20.1425C12.4732 20.4092 12.1399 20.5425 11.7399 20.5425C11.3532 20.5425 11.0332 20.4092 10.7799 20.1425C10.5132 19.8758 10.3799 19.5558 10.3799 19.1825C10.3799 18.8092 10.5065 18.4958 10.7599 18.2425C11.0132 17.9892 11.3399 17.8625 11.7399 17.8625C12.1399 17.8625 12.4732 17.9958 12.7399 18.2625C12.9932 18.5158 13.1199 18.8225 13.1199 19.1825Z" fill="white"/>
<path d="M13.1199 12.2513C13.1199 12.6246 12.9932 12.9446 12.7399 13.2113C12.4732 13.4779 12.1399 13.6112 11.7399 13.6112C11.3532 13.6112 11.0332 13.4779 10.7799 13.2113C10.5132 12.9446 10.3799 12.6246 10.3799 12.2513C10.3799 11.8779 10.5065 11.5646 10.7599 11.3112C11.0132 11.0579 11.3399 10.9313 11.7399 10.9313C12.1399 10.9313 12.4732 11.0646 12.7399 11.3313C12.9932 11.5846 13.1199 11.8913 13.1199 12.2513Z" fill="white"/>
<path d="M13.1199 5.32C13.1199 5.69333 12.9932 6.01333 12.7399 6.28C12.4732 6.54667 12.1399 6.68 11.7399 6.68C11.3532 6.68 11.0332 6.54667 10.7799 6.28C10.5132 6.01333 10.3799 5.69333 10.3799 5.32C10.3799 4.94667 10.5065 4.63333 10.7599 4.38C11.0132 4.12667 11.3399 4 11.7399 4C12.1399 4 12.4732 4.13333 12.7399 4.4C12.9932 4.65333 13.1199 4.96 13.1199 5.32Z" fill="white"/>
</svg>
