<svg width="20" height="18" viewBox="0 0 20 18" fill="none" xmlns="http://www.w3.org/2000/svg">
<path d="M20 2.71002V12.29C20 15.05 17.76 17.29 15 17.29H5C4.54 17.29 4.1 17.23 3.67 17.11C3.05 16.94 2.85 16.15 3.31 15.69L13.94 5.06002C14.16 4.84002 14.49 4.79002 14.8 4.85002C15.12 4.91002 15.47 4.82002 15.72 4.58002L18.29 2.00002C19.23 1.06002 20 1.37002 20 2.71002Z" fill="white"/>
<path d="M12.64 4.36002L2.17 14.83C1.69 15.31 0.89 15.19 0.57 14.59C0.2 13.91 0 13.12 0 12.29V2.71002C0 1.37002 0.77 1.06002 1.71 2.00002L4.29 4.59002C4.68 4.97002 5.32 4.97002 5.71 4.59002L9.29 1.00002C9.68 0.61002 10.32 0.61002 10.71 1.00002L12.65 2.94002C13.03 3.33002 13.03 3.97002 12.64 4.36002Z" fill="white"/>
<path d="M0 2.71002V12.29C0 15.05 2.24 17.29 5 17.29H15C15.46 17.29 15.9 17.23 16.33 17.11C16.95 16.94 17.15 16.15 16.69 15.69L6.06 5.06002C5.84 4.84002 5.51 4.79002 5.2 4.85002C4.88 4.91002 4.53 4.82002 4.28 4.58002L1.71 2.00002C0.77 1.06002 0 1.37002 0 2.71002Z" fill="white"/>
<path d="M11.5 10.5C13 9.99999 12.5 7.99999 12.5 7.49999C12.5 7.1 11.1667 6 10.5 5.49999H10C9.50001 5.33333 8.39998 5.10002 7.99998 5.50002C7.49999 6.00001 6.99998 6.50002 6.49999 7.99999C5.99999 9.49999 6.99999 9.99999 7.49999 11C7.99999 12 9.99999 11 11.5 10.5Z" fill="white"/>
<path d="M7.36001 4.36004L17.83 14.83C18.31 15.31 19.11 15.19 19.43 14.59C19.8 13.91 20 13.12 20 12.29V2.71002C20 1.37002 19.23 1.06002 18.29 2.00002L15.71 4.59004C15.32 4.97004 14.68 4.97004 14.29 4.59004L10.71 1.00002C10.32 0.61002 9.68 0.61002 9.29 1.00002L7.35001 2.94004C6.97001 3.33004 6.97001 3.97004 7.36001 4.36004Z" fill="white"/>
</svg>
