<svg width="24" height="25" viewBox="0 0 24 25" fill="none" xmlns="http://www.w3.org/2000/svg">
<path d="M22 6.26562V15.8456C22 18.6056 19.76 20.8456 17 20.8456H7C6.54 20.8456 6.1 20.7856 5.67 20.6656C5.05 20.4956 4.85 19.7056 5.31 19.2456L15.94 8.61562C16.16 8.39562 16.49 8.34562 16.8 8.40562C17.12 8.46562 17.47 8.37562 17.72 8.13562L20.29 5.55562C21.23 4.61562 22 4.92562 22 6.26562Z" fill="#0063A4"/>
<path d="M14.64 7.91562L4.17 18.3856C3.69 18.8656 2.89 18.7456 2.57 18.1456C2.2 17.4656 2 16.6756 2 15.8456V6.26562C2 4.92562 2.77 4.61562 3.71 5.55562L6.29 8.14562C6.68 8.52562 7.32 8.52562 7.71 8.14562L11.29 4.55562C11.68 4.16562 12.32 4.16562 12.71 4.55562L14.65 6.49562C15.03 6.88562 15.03 7.52562 14.64 7.91562Z" fill="#0063A4"/>
<path d="M2 6.26562V15.8456C2 18.6056 4.24 20.8456 7 20.8456H17C17.46 20.8456 17.9 20.7856 18.33 20.6656C18.95 20.4956 19.15 19.7056 18.69 19.2456L8.06 8.61562C7.84 8.39562 7.51 8.34562 7.2 8.40562C6.88 8.46562 6.53 8.37562 6.28 8.13562L3.71 5.55562C2.77 4.61562 2 4.92562 2 6.26562Z" fill="#0063A4"/>
<path d="M13.5 14.0556C15 13.5556 14.5 11.5556 14.5 11.0556C14.5 10.6556 13.1667 9.55561 12.5 9.0556H12C11.5 8.88893 10.4 8.65563 9.99998 9.05563C9.49999 9.55562 8.99998 10.0556 8.49999 11.5556C7.99999 13.0556 8.99999 13.5556 9.49999 14.5556C9.99999 15.5556 12 14.5556 13.5 14.0556Z" fill="#0063A4"/>
<path d="M9.36001 7.91564L19.83 18.3856C20.31 18.8656 21.11 18.7456 21.43 18.1456C21.8 17.4656 22 16.6756 22 15.8456V6.26562C22 4.92562 21.23 4.61562 20.29 5.55562L17.71 8.14564C17.32 8.52564 16.68 8.52564 16.29 8.14564L12.71 4.55562C12.32 4.16562 11.68 4.16562 11.29 4.55562L9.35001 6.49564C8.97001 6.88564 8.97001 7.52564 9.36001 7.91564Z" fill="#0063A4"/>
</svg>
