<svg width="18" height="18" viewBox="0 0 18 18" fill="none" xmlns="http://www.w3.org/2000/svg">
<path d="M9.94187 2.71916L9.94249 2.72041L11.1638 5.17997C11.2912 5.43659 11.5048 5.66108 11.7269 5.82664C11.9471 5.99078 12.2245 6.13328 12.513 6.17795L14.7194 6.54978C14.7196 6.54981 14.7197 6.54984 14.7199 6.54987C15.3415 6.65635 15.5546 6.90321 15.6056 7.06214C15.6565 7.22065 15.6275 7.54582 15.1799 7.99647L15.179 7.99743L13.4589 9.73866C13.4587 9.73888 13.4585 9.73909 13.4583 9.73931C13.2409 9.95847 13.0929 10.2543 13.0105 10.541C12.9279 10.8285 12.8958 11.1608 12.9651 11.4681L12.9654 11.4691L13.4557 13.6212L13.4559 13.6219C13.6405 14.4272 13.4574 14.7335 13.3518 14.8114C13.2483 14.8876 12.907 14.9721 12.2008 14.5527C12.2006 14.5526 12.2004 14.5524 12.2001 14.5523L10.1288 13.3139L10.1288 13.3139L10.1261 13.3123C9.84212 13.145 9.50175 13.0754 9.1875 13.0754C8.87325 13.0754 8.53288 13.145 8.24893 13.3123L8.24851 13.3126L6.16671 14.5423L6.16562 14.543C5.459 14.9628 5.11745 14.8783 5.01398 14.802C4.90831 14.7242 4.72528 14.4179 4.90986 13.6125L4.91 13.6119L5.40005 11.4612C5.40011 11.461 5.40017 11.4607 5.40023 11.4605C5.47049 11.1554 5.43735 10.8244 5.35526 10.5387C5.27288 10.252 5.12565 9.95673 4.91234 9.73502L4.91239 9.73498L4.9068 9.72935L3.1951 8.00579C2.74834 7.55594 2.71812 7.22817 2.7695 7.06758C2.8205 6.90814 3.03292 6.66156 3.65244 6.55963L3.65244 6.55963L3.65436 6.55931L5.86569 6.18665L5.86569 6.18666L5.86937 6.18601C6.15049 6.13648 6.42475 5.99751 6.64643 5.83371C6.86771 5.67022 7.08279 5.44787 7.21119 5.18929L8.43251 2.72973L8.43252 2.72973L8.43374 2.72724C8.72667 2.129 9.03133 2.00042 9.18883 2C9.3459 1.99958 9.64941 2.12604 9.94187 2.71916Z" fill="white" stroke="#EB5757"/>
<path d="M14.7976 6.05696C16.2133 6.29919 16.5463 7.32399 15.5286 8.34881L13.8076 10.091C13.5208 10.3798 13.3542 10.9481 13.4468 11.358L13.9372 13.5102C14.3258 15.2058 13.4283 15.8672 11.9386 14.9822L9.86608 13.7431C9.48673 13.5195 8.87607 13.5195 8.49672 13.7431L6.41492 14.9728C4.92527 15.8579 4.02779 15.1964 4.41639 13.5008L4.90677 11.3487C4.99929 10.9481 4.83275 10.3798 4.54592 10.0817L2.83422 8.35812C1.81645 7.33331 2.14954 6.29917 3.56516 6.06626L14.7976 6.05696Z" fill="#EB5757"/>
</svg>
