<svg width="18" height="18" viewBox="0 0 18 18" fill="none" xmlns="http://www.w3.org/2000/svg">
    <path d="M10.3903 2.49803L11.6116 4.95759C11.7782 5.29299 12.2223 5.62838 12.5924 5.68428L14.8037 6.05694C16.2194 6.29917 16.5524 7.32399 15.5347 8.34881L13.8137 10.091C13.5269 10.3798 13.3604 10.9481 13.4529 11.358L13.9433 13.5102C14.3319 15.2058 13.4344 15.8672 11.9447 14.9822L9.87218 13.7431C9.49283 13.5195 8.88217 13.5195 8.50282 13.7431L6.42102 14.9728C4.93138 15.8579 4.03389 15.1964 4.42249 13.5008L4.91287 11.3487C5.0054 10.9481 4.83885 10.3798 4.55203 10.0817L2.84032 8.35812C1.82256 7.3333 2.15564 6.29917 3.57127 6.06626L5.7826 5.6936C6.1527 5.62838 6.59682 5.30231 6.76336 4.96691L7.98468 2.50735C8.64161 1.16577 9.73339 1.16577 10.3903 2.49803Z"
          fill="#EB5757"/>
</svg>
