<svg width="24" height="25" viewBox="0 0 24 25" fill="none" xmlns="http://www.w3.org/2000/svg">
<path d="M13.8538 3.88632L15.4822 7.16573C15.7042 7.61292 16.2964 8.06011 16.7899 8.13465L19.7383 8.63153C21.6258 8.9545 22.0699 10.3209 20.7129 11.6873L18.4183 14.0103C18.0359 14.3953 17.8138 15.1531 17.9372 15.6997L18.591 18.5691C19.1091 20.8299 17.9125 21.7119 15.9263 20.5318L13.1629 18.8797C12.6571 18.5816 11.8429 18.5816 11.3371 18.8797L8.56136 20.5194C6.57517 21.6995 5.37852 20.8175 5.89666 18.5567L6.5505 15.6872C6.67386 15.1531 6.4518 14.3953 6.06937 13.9978L3.7871 11.6998C2.43007 10.3333 2.87419 8.9545 4.76169 8.64395L7.71013 8.14707C8.2036 8.06011 8.79575 7.62534 9.01781 7.17815L10.6462 3.89874C11.5221 2.10997 12.9779 2.10997 13.8538 3.88632Z" fill="#0063A4"/>
</svg>
