<svg width="60" height="61" viewBox="0 0 60 61" fill="none" xmlns="http://www.w3.org/2000/svg">
<g clip-path="url(#clip0_534_11313)">
<path d="M2 30.5C2 15.036 14.536 2.5 30 2.5C45.464 2.5 58 15.036 58 30.5C58 45.964 45.464 58.5 30 58.5C14.536 58.5 2 45.964 2 30.5Z" fill="white"/>
<circle cx="30" cy="30.5" r="28" fill="#007AFF" fill-opacity="0.15"/>
<path d="M28.7137 37.3263C28.7137 36.1611 28.9059 35.1452 29.2903 34.2787C29.6747 33.4122 30.1479 32.6354 30.7097 31.9482C31.3011 31.261 31.9368 30.6335 32.6169 30.0658C33.297 29.4683 33.9328 28.8856 34.5242 28.3179C35.1156 27.7204 35.5887 27.0929 35.9436 26.4356C36.328 25.7782 36.5202 25.0163 36.5202 24.1499C36.5202 22.7157 35.9583 21.5504 34.8347 20.6541C33.711 19.7577 32.1586 19.3095 30.1774 19.3095C28.4032 19.3095 26.8656 19.6083 25.5645 20.2059C24.2634 20.8035 23.1546 21.6849 22.2379 22.8501L19 20.5196C20.2419 18.936 21.8239 17.711 23.746 16.8445C25.668 15.9482 27.9153 15.5 30.4879 15.5C32.6169 15.5 34.4651 15.8287 36.0323 16.486C37.5995 17.1134 38.8118 18.0247 39.6694 19.2199C40.5565 20.3852 41 21.8044 41 23.4776C41 24.7325 40.8078 25.8081 40.4234 26.7045C40.039 27.6008 39.5511 28.3926 38.9597 29.0798C38.3683 29.767 37.7325 30.4094 37.0524 31.007C36.4019 31.6046 35.7809 32.2021 35.1895 32.7997C34.5981 33.3973 34.1102 34.0546 33.7258 34.7717C33.3414 35.4888 33.1492 36.3403 33.1492 37.3263H28.7137ZM30.9758 47.5C30.1479 47.5 29.453 47.2162 28.8911 46.6485C28.3589 46.0808 28.0927 45.4085 28.0927 44.6317C28.0927 43.7951 28.3589 43.1078 28.8911 42.57C29.453 42.0322 30.1479 41.7633 30.9758 41.7633C31.8038 41.7633 32.4839 42.0322 33.0161 42.57C33.5484 43.1078 33.8145 43.7951 33.8145 44.6317C33.8145 45.4085 33.5484 46.0808 33.0161 46.6485C32.4839 47.2162 31.8038 47.5 30.9758 47.5Z" fill="white"/>
</g>
<path d="M30 1.5C13.9837 1.5 1 14.4837 1 30.5C1 46.5163 13.9837 59.5 30 59.5C46.0163 59.5 59 46.5163 59 30.5C59 14.4837 46.0163 1.5 30 1.5Z" stroke="#F6F9FF" stroke-width="2"/>
<defs>
<clipPath id="clip0_534_11313">
<path d="M2 30.5C2 15.036 14.536 2.5 30 2.5C45.464 2.5 58 15.036 58 30.5C58 45.964 45.464 58.5 30 58.5C14.536 58.5 2 45.964 2 30.5Z" fill="white"/>
</clipPath>
</defs>
</svg>
