<svg width="24" height="25" viewBox="0 0 24 25" fill="none" xmlns="http://www.w3.org/2000/svg">
<path d="M18.94 5.97561L13.77 2.98561C12.78 2.41561 11.23 2.41561 10.24 2.98561L5.02002 5.99561C2.95002 7.39561 2.83002 7.60561 2.83002 9.83561V15.2656C2.83002 17.4956 2.95002 17.7156 5.06002 19.1356L10.23 22.1256C10.73 22.4156 11.37 22.5556 12 22.5556C12.63 22.5556 13.27 22.4156 13.76 22.1256L18.98 19.1156C21.05 17.7156 21.17 17.5056 21.17 15.2756V9.83561C21.17 7.60561 21.05 7.39561 18.94 5.97561ZM12 15.8056C10.21 15.8056 8.75002 14.3456 8.75002 12.5556C8.75002 10.7656 10.21 9.30561 12 9.30561C13.79 9.30561 15.25 10.7656 15.25 12.5556C15.25 14.3456 13.79 15.8056 12 15.8056Z" fill="#0063A4"/>
</svg>
