<svg width="24" height="25" viewBox="0 0 24 25" fill="none" xmlns="http://www.w3.org/2000/svg">
<path d="M16.4805 3.5556H8.5195C5.0615 3.5556 3 5.6171 3 9.0751V17.0266C3 20.4941 5.0615 22.5556 8.5195 22.5556H16.471C19.929 22.5556 21.9905 20.4941 21.9905 17.0361V9.0751C22 5.6171 19.9385 3.5556 16.4805 3.5556ZM8.871 17.5871C8.852 17.5871 8.8235 17.5871 8.8045 17.5871C7.883 17.5016 7.0185 17.0741 6.3725 16.3901C4.8525 14.7941 4.8525 12.2006 6.3725 10.6046L8.453 8.4196C9.194 7.6406 10.1915 7.2036 11.2555 7.2036C12.3195 7.2036 13.317 7.6311 14.058 8.4196C15.578 10.0156 15.578 12.6091 14.058 14.2051L13.0225 15.2976C12.747 15.5826 12.3005 15.5921 12.0155 15.3261C11.7305 15.0506 11.721 14.6041 11.987 14.3191L13.0225 13.2266C14.0295 12.1721 14.0295 10.4526 13.0225 9.4076C12.082 8.4196 10.429 8.4196 9.479 9.4076L7.3985 11.5926C6.3915 12.6471 6.3915 14.3666 7.3985 15.4116C7.807 15.8486 8.358 16.1146 8.9375 16.1716C9.327 16.2096 9.612 16.5611 9.574 16.9506C9.5455 17.3116 9.232 17.5871 8.871 17.5871ZM18.6275 15.5161L16.547 17.7011C15.806 18.4801 14.8085 18.9171 13.7445 18.9171C12.6805 18.9171 11.683 18.4896 10.942 17.7011C9.422 16.1051 9.422 13.5116 10.942 11.9156L11.9775 10.8231C12.253 10.5381 12.6995 10.5286 12.9845 10.7946C13.2695 11.0701 13.279 11.5166 13.013 11.8016L11.9775 12.8941C10.9705 13.9486 10.9705 15.6681 11.9775 16.7131C12.918 17.7011 14.571 17.7106 15.521 16.7131L17.6015 14.5281C18.6085 13.4736 18.6085 11.7541 17.6015 10.7091C17.193 10.2721 16.642 10.0061 16.0625 9.9491C15.673 9.9111 15.388 9.5596 15.426 9.1701C15.464 8.7806 15.806 8.4861 16.205 8.5336C17.1265 8.6286 17.991 9.0466 18.637 9.7306C20.1475 11.3171 20.1475 13.9201 18.6275 15.5161Z" fill="#0063A4"/>
</svg>
