<svg width="20" height="20" viewBox="0 0 20 20" fill="none" xmlns="http://www.w3.org/2000/svg">
<path d="M14.0925 5.83902L14.0841 5.83761L14.0768 5.83649C14.0768 5.83639 14.0562 5.83215 14.0165 5.8138C13.9736 5.79394 13.9227 5.76413 13.8705 5.72522C13.8184 5.68637 13.7736 5.64491 13.7397 5.60682C13.723 5.58818 13.7108 5.57235 13.7024 5.5602C13.6942 5.5485 13.691 5.54234 13.691 5.54234L12.2839 2.70864C12.2837 2.70817 12.2835 2.7077 12.2832 2.70724C11.8324 1.79366 11.0611 0.997173 9.99734 1.00001C8.93485 1.00284 8.16613 1.80172 7.71613 2.71926L6.30894 5.55313C6.30896 5.5531 6.30894 5.55312 6.30889 5.55321C6.30802 5.55479 6.29601 5.57639 6.2634 5.61264C6.23028 5.64947 6.1858 5.69033 6.13289 5.72942C6.01705 5.81501 5.92511 5.84604 5.90147 5.85078L3.3592 6.2792C2.36715 6.44291 1.4146 6.94852 1.09745 7.93988C0.780822 8.92963 1.26012 9.89713 1.97119 10.6131L3.93664 12.5922C3.96373 12.6221 4.02391 12.7134 4.06558 12.8584C4.10912 13.0099 4.10123 13.1109 4.09634 13.1321L4.09569 13.1349L3.53049 15.6154C3.53044 15.6156 3.53039 15.6158 3.53034 15.616C3.28699 16.6784 3.32225 17.9235 4.25218 18.6086C5.18614 19.2967 6.38395 18.9521 7.31902 18.3969C7.31955 18.3966 7.32008 18.3963 7.32062 18.396L9.71824 16.9796C9.71825 16.9796 9.71826 16.9796 9.71828 16.9796C9.74851 16.9618 9.84816 16.9248 10 16.9248C10.1499 16.9248 10.2489 16.9608 10.2805 16.9789C10.2809 16.9791 10.2814 16.9794 10.2818 16.9796L12.6664 18.4053L12.6687 18.4067C13.604 18.9624 14.8027 19.3078 15.7371 18.6194C16.667 17.9343 16.7023 16.6893 16.459 15.6269C16.459 15.6267 16.4589 15.6264 16.4588 15.6262L15.8941 13.1477C15.8941 13.1475 15.894 13.1474 15.894 13.1472C15.8869 13.1151 15.8813 13.0089 15.9238 12.8611C15.9667 12.7116 16.0275 12.6283 16.0443 12.6114L16.0462 12.6095L18.0288 10.6024C18.0291 10.602 18.0295 10.6017 18.0298 10.6014C18.7387 9.88708 19.2198 8.92216 18.9023 7.93239C18.5849 6.94309 17.6328 6.4382 16.645 6.26918L16.6426 6.26876L14.0925 5.83902Z" fill="#E2E6EE" stroke="#F6F9FF" stroke-width="2"/>
</svg>
