<svg width="16" height="16" viewBox="0 0 16 16" fill="none" xmlns="http://www.w3.org/2000/svg">
<path d="M7.99967 12.6666C10.577 12.6666 12.6663 10.5773 12.6663 7.99998C12.6663 5.42265 10.577 3.33331 7.99967 3.33331C5.42235 3.33331 3.33301 5.42265 3.33301 7.99998C3.33301 10.5773 5.42235 12.6666 7.99967 12.6666Z" fill="white"/>
<path d="M8.00033 15.3067C7.63366 15.3067 7.33366 15.0334 7.33366 14.6667V14.6134C7.33366 14.2467 7.63366 13.9467 8.00033 13.9467C8.36699 13.9467 8.66699 14.2467 8.66699 14.6134C8.66699 14.98 8.36699 15.3067 8.00033 15.3067ZM12.7603 13.4267C12.587 13.4267 12.4203 13.36 12.287 13.2334L12.2003 13.1467C11.9403 12.8867 11.9403 12.4667 12.2003 12.2067C12.4603 11.9467 12.8803 11.9467 13.1403 12.2067L13.227 12.2934C13.487 12.5534 13.487 12.9734 13.227 13.2334C13.1003 13.36 12.9337 13.4267 12.7603 13.4267ZM3.24033 13.4267C3.06699 13.4267 2.90033 13.36 2.76699 13.2334C2.50699 12.9734 2.50699 12.5534 2.76699 12.2934L2.85366 12.2067C3.11366 11.9467 3.53366 11.9467 3.79366 12.2067C4.05366 12.4667 4.05366 12.8867 3.79366 13.1467L3.70699 13.2334C3.58033 13.36 3.40699 13.4267 3.24033 13.4267ZM14.667 8.66669H14.6137C14.247 8.66669 13.947 8.36669 13.947 8.00002C13.947 7.63335 14.247 7.33335 14.6137 7.33335C14.9803 7.33335 15.307 7.63335 15.307 8.00002C15.307 8.36669 15.0337 8.66669 14.667 8.66669ZM1.38699 8.66669H1.33366C0.966992 8.66669 0.666992 8.36669 0.666992 8.00002C0.666992 7.63335 0.966992 7.33335 1.33366 7.33335C1.70033 7.33335 2.02699 7.63335 2.02699 8.00002C2.02699 8.36669 1.75366 8.66669 1.38699 8.66669ZM12.6737 3.99335C12.5003 3.99335 12.3337 3.92669 12.2003 3.80002C11.9403 3.54002 11.9403 3.12002 12.2003 2.86002L12.287 2.77335C12.547 2.51335 12.967 2.51335 13.227 2.77335C13.487 3.03335 13.487 3.45335 13.227 3.71335L13.1403 3.80002C13.0137 3.92669 12.847 3.99335 12.6737 3.99335ZM3.32699 3.99335C3.15366 3.99335 2.98699 3.92669 2.85366 3.80002L2.76699 3.70669C2.50699 3.44669 2.50699 3.02669 2.76699 2.76669C3.02699 2.50669 3.44699 2.50669 3.70699 2.76669L3.79366 2.85335C4.05366 3.11335 4.05366 3.53335 3.79366 3.79335C3.66699 3.92669 3.49366 3.99335 3.32699 3.99335ZM8.00033 2.02669C7.63366 2.02669 7.33366 1.75335 7.33366 1.38669V1.33335C7.33366 0.966687 7.63366 0.666687 8.00033 0.666687C8.36699 0.666687 8.66699 0.966687 8.66699 1.33335C8.66699 1.70002 8.36699 2.02669 8.00033 2.02669Z" fill="white"/>
</svg>
