<svg width="24" height="24" viewBox="0 0 24 24" fill="none" xmlns="http://www.w3.org/2000/svg">
<path fill-rule="evenodd" clip-rule="evenodd" d="M7.81 2H16.19C19.83 2 22 4.17 21.99 7.81V16.19C21.99 19.83 19.82 22 16.18 22H7.81C4.17 22 2 19.83 2 16.18V7.81C2 4.17 4.17 2 7.81 2ZM7 8.14001C6.58579 8.14001 6.25 8.4758 6.25 8.89001C6.25 9.30423 6.58579 9.64001 7 9.64001H11.25V17.3C11.25 17.7142 11.5858 18.05 12 18.05C12.4142 18.05 12.75 17.7142 12.75 17.3V9.64001H17C17.4142 9.64001 17.75 9.30423 17.75 8.89001C17.75 8.4758 17.4142 8.14001 17 8.14001H7Z" fill="white"/>
</svg>
