<svg width="15" height="12" viewBox="0 0 15 12" fill="none" xmlns="http://www.w3.org/2000/svg">
<path d="M0.198184 9.56296C0.068417 9.19389 0 8.79478 0 8.38172V1.44904C0 0.479449 0.557229 0.255073 1.23747 0.935267L3.09727 2.80236C3.27818 2.97603 3.53145 3.04104 3.76302 2.99776L3.79579 2.99193L3.81898 2.98857C3.86187 2.97673 3.90379 2.96101 3.9442 2.9414C3.96646 2.93045 3.98828 2.91843 4.00953 2.90536C4.02242 2.89741 4.03514 2.88893 4.0476 2.88009C4.07715 2.85907 4.10542 2.83557 4.13209 2.8096L5.28162 1.6568L5.29633 1.63984L5.306 1.62924L5.3189 1.61546L6.72275 0.211611C7.00499 -0.070537 7.46814 -0.070537 7.75037 0.211611L9.15427 1.61546C9.16734 1.62889 9.1798 1.64285 9.19164 1.65698L10.3411 2.8096C10.431 2.89723 10.5393 2.95677 10.6542 2.98857L10.6892 2.99387L10.7101 2.99776C10.9417 3.04104 11.1949 2.97603 11.3759 2.80236L13.2357 0.935267C13.9159 0.255073 14.4731 0.479449 14.4731 1.44904V8.38172C14.4731 8.83188 14.3908 9.26279 14.2404 9.66048C13.8277 10.7516 12.9024 11.5915 11.7588 11.886C11.4698 11.9604 11.1669 12 10.8548 12H3.61828C3.28538 12 2.96697 11.9565 2.65581 11.8698C1.50579 11.5528 0.5851 10.6824 0.198184 9.56296Z" fill="white"/>
</svg>
