<svg width="68" height="68" viewBox="0 0 68 68" fill="none" xmlns="http://www.w3.org/2000/svg">
<g clip-path="url(#clip0_117_861)">
<path d="M2 34C2 16.3269 16.3269 2 34 2C51.6731 2 66 16.3269 66 34C66 51.6731 51.6731 66 34 66C16.3269 66 2 51.6731 2 34Z" fill="white"/>
<circle cx="34" cy="34" r="32" fill="#007AFF" fill-opacity="0.15"/>
<path d="M56.284 56.9634C55.7978 57.4349 55.297 57.8918 54.7808 58.3327C53.7638 59.2039 52.691 60.0109 51.5693 60.7489C46.5262 64.0685 40.4883 65.9992 33.9999 65.9992C27.5114 65.9992 21.4736 64.0685 16.4304 60.7489C15.3088 60.0109 14.236 59.2039 13.219 58.3327C12.7028 57.8918 12.202 57.4349 11.7158 56.9634C12.9219 53.226 15.871 50.1966 19.7612 48.969L29.233 45.978V44.4162C28.0458 43.711 26.9848 42.9046 26.1101 42.3138C24.4828 41.2159 23.3876 39.4951 23.064 37.5594L22.559 34.5377C20.977 34.5377 19.6984 33.2592 19.6984 31.6772C19.6984 30.5011 20.4043 29.4925 21.4171 29.0537C20.5326 26.98 19.8839 24.782 19.494 22.5283C19.2464 21.1005 19.1069 19.5945 19.5261 18.2176C19.9446 16.8406 21.0537 15.6325 22.3623 15.6088L22.5339 15.6207C23.3597 14.3309 24.6502 13.4813 26.0048 12.9903C27.3594 12.4985 28.7893 12.3318 30.206 12.1686C30.7599 12.1051 31.3165 12.0402 31.8745 11.9844C34.4477 11.7368 37.2497 11.6768 39.8808 12.4092C42.5126 13.1423 45.0551 14.7857 46.395 17.4056C47.4595 19.4843 47.675 21.9919 47.4072 24.3642C47.23 25.9386 46.8526 27.471 46.4097 28.984C47.5139 29.3795 48.3014 30.4348 48.3014 31.6772C48.3014 33.2592 47.0242 34.5377 45.4408 34.5377L44.9358 37.5594C44.6122 39.4951 43.5177 41.2159 41.8904 42.3138C41.0143 42.9046 39.9547 43.711 38.7675 44.4162V45.978L48.2386 48.969C52.1295 50.1973 55.0786 53.2267 56.2854 56.9634H56.284Z" fill="white"/>
</g>
<path d="M34 1C15.7746 1 1 15.7746 1 34C1 52.2254 15.7746 67 34 67C52.2254 67 67 52.2254 67 34C67 15.7746 52.2254 1 34 1Z" stroke="#F6F9FF" stroke-width="2"/>
<defs>
<clipPath id="clip0_117_861">
<path d="M2 34C2 16.3269 16.3269 2 34 2C51.6731 2 66 16.3269 66 34C66 51.6731 51.6731 66 34 66C16.3269 66 2 51.6731 2 34Z" fill="white"/>
</clipPath>
</defs>
</svg>
