<svg version="1.1" id="Layer_1" xmlns="http://www.w3.org/2000/svg" xmlns:xlink="http://www.w3.org/1999/xlink" x="0px"
     y="0px"
     width="100%" viewBox="0 0 1080 1076" enable-background="new 0 0 1080 1076" xml:space="preserve">
<path fill="#FDFEFE" opacity="1.000000" stroke="none"
      d="
M725.856018,366.878326 
	C744.536011,354.732178 762.907227,342.772064 781.278442,330.811951 
	C781.222168,330.482605 781.165894,330.153259 781.109619,329.823914 
	C704.280334,328.813171 627.451050,327.802429 550.539795,326.790619 
	C550.539795,308.854797 550.539795,291.270935 550.539795,272.996216 
	C660.765015,274.424164 770.484436,275.845551 880.900330,277.275970 
	C880.900330,278.997345 880.918335,280.583038 880.897461,282.168213 
	C880.706543,296.665588 880.372620,311.163147 880.406250,325.659943 
	C880.414978,329.438507 879.213562,331.569244 876.013672,333.642517 
	C802.351685,381.371460 728.772095,429.227478 655.178406,477.061798 
	C652.573059,478.755219 649.980469,480.468140 647.567688,483.242645 
	C724.225586,484.250885 800.883484,485.259094 877.656738,486.268860 
	C877.656738,504.266693 877.656738,521.980957 877.656738,540.264465 
	C767.405273,538.834473 657.665894,537.411072 547.367371,535.980469 
	C547.367371,533.857422 547.348022,532.072144 547.370422,530.287415 
	C547.548157,516.122925 547.868469,501.958191 547.826416,487.794495 
	C547.815369,484.059845 548.905457,481.890717 552.127930,479.802765 
	C609.991211,442.311005 667.758972,404.671875 725.856018,366.878326 
z"/>
    <path fill="#93BCDB" opacity="1.000000" stroke="none"
          d="
M543.787476,646.000305 
	C543.802368,640.167908 543.601562,634.820007 543.982788,629.513916 
	C544.076721,628.207153 546.051086,625.979980 547.187866,625.962830 
	C562.832886,625.726624 578.482605,625.803467 595.030212,625.803467 
	C595.030212,628.334106 595.032837,630.412842 595.029846,632.491577 
	C594.945923,690.482727 594.860107,748.473877 594.778625,806.465027 
	C594.769592,812.878540 594.780640,812.888367 601.359924,812.901672 
	C624.856323,812.949158 648.354492,812.847900 671.847656,813.146912 
	C676.790039,813.209778 677.856873,811.649475 677.850281,806.951294 
	C677.773560,752.626404 677.981384,698.301208 677.893921,643.976440 
	C677.886047,639.086426 679.313782,637.842773 684.067261,637.941711 
	C698.717529,638.246704 713.378174,638.052979 728.695679,638.052979 
	C728.695679,696.390747 728.695679,754.400940 728.695679,812.820801 
	C760.246643,812.820801 791.136902,812.820801 822.758606,812.820801 
	C822.758606,748.416931 822.758606,684.173706 822.758606,619.635620 
	C824.701355,619.391052 825.963806,619.095032 827.226501,619.094238 
	C841.224365,619.084839 855.224854,619.279846 869.218506,619.048767 
	C873.429565,618.979309 874.127686,620.644897 874.106995,624.319092 
	C873.943909,653.314026 873.940247,682.309875 873.894775,711.305481 
	C873.815857,761.631165 873.742004,811.956787 873.666626,862.282471 
	C873.663513,864.399292 873.666260,866.516113 873.666260,869.193298 
	C871.158142,869.193298 869.363403,869.196228 867.568726,869.192871 
	C761.918274,868.997070 656.267761,868.802063 550.617310,868.601929 
	C543.177490,868.587830 543.171570,868.570007 543.192444,860.963013 
	C543.389160,789.475403 543.588013,717.987793 543.787476,646.000305 
z"/>
    <path fill="#FEFEFF" opacity="1.000000" stroke="none"
          d="
M284.001648,393.000000 
	C284.973938,413.438568 285.312592,433.434174 287.101654,453.299194 
	C288.797485,472.128510 297.219360,487.726349 314.092651,497.576294 
	C326.597351,504.876068 340.358887,507.776886 354.759796,507.926636 
	C369.818024,508.083252 384.647888,506.924194 399.064758,501.966309 
	C418.129944,495.409851 428.332733,481.400665 432.876862,462.591217 
	C437.006287,445.498352 438.039124,428.068573 438.021790,410.528992 
	C437.960693,348.707123 437.998199,286.885193 437.998322,225.063263 
	C437.998322,223.251587 437.998352,221.439896 437.998352,219.314178 
	C456.959473,219.314178 475.663239,219.314178 494.834869,219.314178 
	C494.834869,221.301025 494.834869,223.091583 494.834839,224.882126 
	C494.834717,286.204132 494.965179,347.526581 494.762909,408.847931 
	C494.693146,429.993469 493.824768,451.108398 489.121796,471.907318 
	C479.241211,515.604370 452.276978,543.336304 409.481201,554.527710 
	C372.677124,564.152283 335.456146,563.527954 299.309357,550.581238 
	C266.538208,538.843445 245.383453,515.598755 235.558289,482.103455 
	C228.778244,458.989471 227.375061,435.204956 227.266342,411.380096 
	C226.979691,348.559662 227.166946,285.737061 227.165497,222.915329 
	C227.165482,221.789474 227.165497,220.663620 227.165497,219.270279 
	C246.193314,219.270279 264.779205,219.270279 284.001648,219.270279 
	C284.001648,277.000702 284.001648,334.750366 284.001648,393.000000 
z"/>
    <path fill="#92BCDA" opacity="1.000000" stroke="none"
          d="
M331.631897,666.491577 
	C334.911957,683.650330 323.844879,694.520996 311.743103,695.210327 
	C306.307892,695.519897 300.541321,693.104492 295.211151,691.146729 
	C291.248138,689.691101 287.745636,686.981567 282.797607,684.110962 
	C283.325073,687.078796 283.478302,688.774902 283.934570,690.385132 
	C292.889008,721.987305 307.808075,750.229248 330.482971,774.282654 
	C359.399139,804.956482 394.562164,824.406433 435.726257,832.623169 
	C448.540466,835.180969 461.812378,835.494507 474.889709,836.669067 
	C484.326324,837.516602 492.497894,843.892456 495.084412,852.783020 
	C499.539062,868.094849 488.544952,883.127747 472.534302,883.085266 
	C441.058441,883.001770 410.612091,877.114502 381.572083,865.001526 
	C326.925659,842.207825 285.780731,804.436707 258.050140,752.102112 
	C244.165924,725.898987 235.902161,697.959778 232.762543,668.525391 
	C231.740967,658.947815 230.935349,649.294800 230.912140,639.674194 
	C230.867050,620.991089 250.407486,609.922302 266.443512,619.430603 
	C284.634430,630.216614 302.658691,641.284546 320.719727,652.288391 
	C326.020966,655.518127 329.833344,660.017273 331.631897,666.491577 
z"/>
</svg>