<svg width="18" height="19" viewBox="0 0 18 19" fill="none" xmlns="http://www.w3.org/2000/svg">
<path d="M16.1702 8.55492L15.1502 7.36992C14.9552 7.14492 14.7977 6.72492 14.7977 6.42492V5.14992C14.7977 4.35492 14.1452 3.70242 13.3502 3.70242H12.0752C11.7827 3.70242 11.3552 3.54492 11.1302 3.34992L9.94516 2.32992C9.42766 1.88742 8.58016 1.88742 8.05516 2.32992L6.87766 3.35742C6.65266 3.54492 6.22516 3.70242 5.93266 3.70242H4.63516C3.84016 3.70242 3.18766 4.35492 3.18766 5.14992V6.43242C3.18766 6.72492 3.03016 7.14492 2.84266 7.36992L1.83016 8.56242C1.39516 9.07992 1.39516 9.91992 1.83016 10.4374L2.84266 11.6299C3.03016 11.8549 3.18766 12.2749 3.18766 12.5674V13.8499C3.18766 14.6449 3.84016 15.2974 4.63516 15.2974H5.93266C6.22516 15.2974 6.65266 15.4549 6.87766 15.6499L8.06266 16.6699C8.58016 17.1124 9.42766 17.1124 9.95266 16.6699L11.1377 15.6499C11.3627 15.4549 11.7827 15.2974 12.0827 15.2974H13.3577C14.1527 15.2974 14.8052 14.6449 14.8052 13.8499V12.5749C14.8052 12.2824 14.9627 11.8549 15.1577 11.6299L16.1777 10.4449C16.6127 9.92742 16.6127 9.07242 16.1702 8.55492ZM12.1202 8.08242L8.49766 11.7049C8.39266 11.8099 8.25016 11.8699 8.10016 11.8699C7.95016 11.8699 7.80766 11.8099 7.70266 11.7049L5.88766 9.88992C5.67016 9.67242 5.67016 9.31242 5.88766 9.09492C6.10516 8.87742 6.46516 8.87742 6.68266 9.09492L8.10016 10.5124L11.3252 7.28742C11.5427 7.06992 11.9027 7.06992 12.1202 7.28742C12.3377 7.50492 12.3377 7.86492 12.1202 8.08242Z" fill="#FFCC00"/>
</svg>
