<svg width="89" height="90" viewBox="0 0 89 90" fill="none" xmlns="http://www.w3.org/2000/svg">
<path d="M59.5545 18.8231C54.6112 17.7337 49.5642 17.1853 44.5023 17.1878C29.8399 17.1635 15.5487 21.7974 3.69026 30.4209C3.3779 30.6544 3.11985 30.9528 2.9339 31.2955C2.74795 31.6383 2.63852 32.0173 2.61314 32.4064C2.58776 32.7955 2.64704 33.1855 2.7869 33.5495C2.92676 33.9135 3.14386 34.2429 3.42326 34.5149C3.9094 34.9938 4.54969 35.2845 5.23013 35.3355C5.91057 35.3864 6.58701 35.1942 7.13901 34.7931C18.0145 26.9443 31.0904 22.7297 44.5023 22.7503C48.0067 22.7503 51.4499 23.0284 54.8041 23.5735L59.5545 18.8231ZM44.5023 33.8753C33.9058 33.8753 24.0323 36.9903 15.7664 42.3636C15.4358 42.5868 15.1593 42.8812 14.9574 43.2253C14.7554 43.5693 14.6332 43.9543 14.5995 44.3518C14.5659 44.7493 14.6218 45.1493 14.7631 45.5224C14.9044 45.8955 15.1275 46.2322 15.416 46.5077C15.89 46.9703 16.5071 47.258 17.1661 47.3237C17.8251 47.3894 18.4868 47.2292 19.0428 46.8693C24.9427 43.0882 31.6137 40.6744 38.5671 39.8049L44.5023 33.8753ZM58.9426 41.685L63.3091 37.3184C66.8135 38.6534 70.1399 40.35 73.2382 42.3636C73.5672 42.5881 73.842 42.8831 74.0427 43.2271C74.2435 43.5711 74.365 43.9555 74.3986 44.3524C74.4321 44.7492 74.3769 45.1486 74.2368 45.5214C74.0966 45.8942 73.8753 46.2311 73.5886 46.5077C73.1147 46.9703 72.4976 47.258 71.8386 47.3237C71.1796 47.3894 70.5178 47.2292 69.9619 46.8693C66.5305 44.6717 62.8283 42.9291 58.9481 41.685H58.9426ZM44.5023 56.1253L49.6977 50.9354C53.5974 51.4945 57.3786 52.6916 60.8895 54.4788C62.4748 55.2853 62.7028 57.3935 61.4457 58.6506L61.3623 58.7341C60.9183 59.1608 60.3522 59.4383 59.743 59.528C59.1338 59.6178 58.5117 59.5152 57.9636 59.2347C53.7737 57.1812 49.1683 56.1174 44.5023 56.1253ZM71.7864 28.8412L75.9416 24.686C79.2234 26.3548 82.3551 28.2738 85.3144 30.4154C85.6277 30.6488 85.8865 30.9474 86.0731 31.2907C86.2596 31.634 86.3694 32.0136 86.3948 32.4035C86.4202 32.7933 86.3606 33.1841 86.2201 33.5486C86.0797 33.9132 85.8618 34.2429 85.5814 34.5149C85.0953 34.9938 84.455 35.2845 83.7745 35.3355C83.0941 35.3864 82.4176 35.1942 81.8656 34.7931C78.6949 32.5051 75.321 30.5128 71.7864 28.8412ZM50.1761 66.0265C51.5 66.8053 51.4888 68.6075 50.3986 69.6978L46.4715 73.6249C46.2131 73.8839 45.9062 74.0894 45.5683 74.2296C45.2304 74.3698 44.8682 74.442 44.5023 74.442C44.1365 74.442 43.7743 74.3698 43.4364 74.2296C43.0985 74.0894 42.7916 73.8839 42.5332 73.6249L38.6005 69.6922C37.5158 68.6075 37.5047 66.8108 38.823 66.0209C40.5413 65.0004 42.5038 64.4641 44.5023 64.469C46.5771 64.469 48.5185 65.0364 50.1761 66.0265ZM74.4008 10.9299C74.954 10.3767 75.7043 10.0659 76.4867 10.0659C77.2691 10.0659 78.0194 10.3767 78.5726 10.9299C79.1259 11.4832 79.4367 12.2335 79.4367 13.0159C79.4367 13.7983 79.1259 14.5486 78.5726 15.1018L18.7758 74.8987C18.5018 75.1726 18.1766 75.3899 17.8187 75.5382C17.4608 75.6864 17.0772 75.7627 16.6898 75.7627C16.3024 75.7627 15.9188 75.6864 15.5609 75.5382C15.203 75.3899 14.8778 75.1726 14.6039 74.8987C14.33 74.6248 14.1127 74.2996 13.9644 73.9417C13.8162 73.5837 13.7399 73.2001 13.7399 72.8128C13.7399 72.4254 13.8162 72.0418 13.9644 71.6838C14.1127 71.3259 14.33 71.0007 14.6039 70.7268L74.4008 10.9299Z" fill="#0063A4"/>
</svg>
