<svg width="18" height="18" viewBox="0 0 18 18" fill="none" xmlns="http://www.w3.org/2000/svg">
<path d="M14.3174 9.44243C14.1974 9.44243 14.0774 9.40493 13.9724 9.32243C10.9499 6.98993 7.04245 6.98993 4.01995 9.32243C3.77245 9.50993 3.41995 9.46493 3.23245 9.22493C3.04495 8.97743 3.08995 8.62493 3.32995 8.43743C6.77245 5.77493 11.2199 5.77493 14.655 8.43743C14.9024 8.62493 14.9474 8.97743 14.7524 9.22493C14.6549 9.36743 14.4899 9.44243 14.3174 9.44243Z" fill="#00C62C"/>
<path d="M16.5 6.83243C16.38 6.83243 16.26 6.79493 16.155 6.71243C11.805 3.35243 6.18751 3.35243 1.84501 6.71243C1.59751 6.89993 1.24501 6.85493 1.05751 6.61493C0.862505 6.37493 0.907505 6.01493 1.15501 5.82743C5.91751 2.14493 12.075 2.14493 16.845 5.82743C17.0925 6.01493 17.1375 6.36743 16.9425 6.61493C16.8375 6.75743 16.665 6.83243 16.5 6.83243Z" fill="#00C62C"/>
<path d="M12.9076 12.18C12.7876 12.18 12.6676 12.1425 12.5626 12.06C10.4026 10.3875 7.60505 10.3875 5.43755 12.06C5.19005 12.2475 4.83755 12.2025 4.65005 11.9625C4.46255 11.715 4.50755 11.3625 4.74755 11.175C7.32755 9.18002 10.6651 9.18002 13.2451 11.175C13.4926 11.3625 13.5376 11.715 13.3426 11.9625C13.2376 12.105 13.0726 12.18 12.9076 12.18Z" fill="#00C62C"/>
<path d="M10.95 14.925C10.83 14.925 10.71 14.8875 10.605 14.805C9.63 14.0475 8.3625 14.0475 7.3875 14.805C7.14 14.9925 6.7875 14.9475 6.6 14.7075C6.4125 14.46 6.4575 14.1075 6.6975 13.92C8.0925 12.84 9.8925 12.84 11.2875 13.92C11.535 14.1075 11.58 14.46 11.385 14.7075C11.2875 14.8425 11.1225 14.925 10.95 14.925Z" fill="#00C62C"/>
</svg>
