<svg width="19" height="18" viewBox="0 0 19 18" fill="none" xmlns="http://www.w3.org/2000/svg">
<path d="M8.4375 4.49994V14.9324C8.4375 15.4649 7.8975 15.8324 7.41 15.6299C6.015 15.0449 4.2825 14.5349 3.0525 14.3699L2.82 14.3399C2.0925 14.2499 1.5 13.5824 1.5 12.8549V3.93744C1.5 3.03744 2.2275 2.30994 3.1275 2.30994H3.18C4.59 2.42994 6.6675 3.08994 8.04 3.83244C8.2875 3.96744 8.4375 4.21494 8.4375 4.49994Z" fill="#0063A4"/>
<path fill-rule="evenodd" clip-rule="evenodd" d="M14.8275 2.30994H14.8725C15.7725 2.30994 16.5 3.03744 16.5 3.93744V8.11151C16.1784 8.03853 15.8437 8 15.5 8C13.0147 8 11 10.0147 11 12.5C11 13.4902 11.3198 14.4056 11.8617 15.1487C11.4232 15.2986 10.9925 15.4611 10.59 15.6299C10.1025 15.8324 9.5625 15.4649 9.5625 14.9324V4.49994C9.5625 4.22244 9.72 3.96744 9.9675 3.83244C10.35 3.62994 10.785 3.42744 11.25 3.23994C12.2325 2.84994 13.3275 2.53494 14.25 2.38494C14.4525 2.34744 14.6475 2.32494 14.8275 2.30994Z" fill="#0063A4"/>
<path fill-rule="evenodd" clip-rule="evenodd" d="M15.5 16C17.433 16 19 14.433 19 12.5C19 10.567 17.433 9 15.5 9C13.567 9 12 10.567 12 12.5C12 14.433 13.567 16 15.5 16ZM16.0803 13.0556H18V11.9444H16.0803V10H14.9197V11.9444H13V13.0556H14.9197V15H16.0803V13.0556Z" fill="#0063A4"/>
</svg>
